<svg width="53" height="53" viewBox="0 0 53 53" fill="none" xmlns="http://www.w3.org/2000/svg">
<path id="Vector" d="M50.35 5.3H42.4V2.65C42.4 1.94718 42.1208 1.27314 41.6238 0.776167C41.1269 0.279196 40.4528 0 39.75 0H13.25C12.5472 0 11.8731 0.279196 11.3762 0.776167C10.8792 1.27314 10.6 1.94718 10.6 2.65V5.3H2.65C1.94718 5.3 1.27314 5.5792 0.776167 6.07617C0.279196 6.57314 0 7.24718 0 7.95V15.9C0 18.7113 1.11678 21.4074 3.10467 23.3953C5.09255 25.3832 7.78871 26.5 10.6 26.5H14.681C17.078 29.1742 20.3098 30.9582 23.85 31.5615V37.1H21.2C19.0915 37.1 17.0694 37.9376 15.5785 39.4285C14.0876 40.9194 13.25 42.9415 13.25 45.05V50.35C13.25 51.0528 13.5292 51.7269 14.0262 52.2238C14.5231 52.7208 15.1972 53 15.9 53H37.1C37.8028 53 38.4769 52.7208 38.9738 52.2238C39.4708 51.7269 39.75 51.0528 39.75 50.35V45.05C39.75 42.9415 38.9124 40.9194 37.4215 39.4285C35.9306 37.9376 33.9085 37.1 31.8 37.1H29.15V31.5615C32.6902 30.9582 35.922 29.1742 38.319 26.5H42.4C45.2113 26.5 47.9074 25.3832 49.8953 23.3953C51.8832 21.4074 53 18.7113 53 15.9V7.95C53 7.24718 52.7208 6.57314 52.2238 6.07617C51.7269 5.5792 51.0528 5.3 50.35 5.3ZM10.6 21.2C9.19435 21.2 7.84628 20.6416 6.85233 19.6477C5.85839 18.6537 5.3 17.3056 5.3 15.9V10.6H10.6V15.9C10.6058 17.7065 10.9195 19.4989 11.5275 21.2H10.6ZM31.8 42.4C32.5028 42.4 33.1769 42.6792 33.6738 43.1762C34.1708 43.6731 34.45 44.3472 34.45 45.05V47.7H18.55V45.05C18.55 44.3472 18.8292 43.6731 19.3262 43.1762C19.8231 42.6792 20.4972 42.4 21.2 42.4H31.8ZM37.1 15.9C37.1 18.7113 35.9832 21.4074 33.9953 23.3953C32.0074 25.3832 29.3113 26.5 26.5 26.5C23.6887 26.5 20.9926 25.3832 19.0047 23.3953C17.0168 21.4074 15.9 18.7113 15.9 15.9V5.3H37.1V15.9ZM47.7 15.9C47.7 17.3056 47.1416 18.6537 46.1477 19.6477C45.1537 20.6416 43.8056 21.2 42.4 21.2H41.4725C42.0805 19.4989 42.3942 17.7065 42.4 15.9V10.6H47.7V15.9Z" fill="#1A3C21"/>
</svg>
