<svg width="65" height="40" viewBox="0 0 65 40" fill="none" xmlns="http://www.w3.org/2000/svg">
<path id="Vector" d="M32.5 0C35.014 0 37.4251 1.01724 39.2028 2.82794C40.9805 4.63863 41.9792 7.09446 41.9792 9.65517C41.9792 12.2159 40.9805 14.6717 39.2028 16.4824C37.4251 18.2931 35.014 19.3103 32.5 19.3103C29.986 19.3103 27.5749 18.2931 25.7972 16.4824C24.0195 14.6717 23.0208 12.2159 23.0208 9.65517C23.0208 7.09446 24.0195 4.63863 25.7972 2.82794C27.5749 1.01724 29.986 0 32.5 0ZM13.5417 6.89655C15.0583 6.89655 16.4667 7.31035 17.6854 8.05517C17.2792 12 18.4167 15.9172 20.7458 18.9793C19.3917 21.6276 16.6833 23.4483 13.5417 23.4483C11.3868 23.4483 9.32016 22.5764 7.79642 21.0243C6.27269 19.4723 5.41667 17.3673 5.41667 15.1724C5.41667 12.9775 6.27269 10.8725 7.79642 9.32049C9.32016 7.76847 11.3868 6.89655 13.5417 6.89655ZM51.4583 6.89655C53.6132 6.89655 55.6798 7.76847 57.2036 9.32049C58.7273 10.8725 59.5833 12.9775 59.5833 15.1724C59.5833 17.3673 58.7273 19.4723 57.2036 21.0243C55.6798 22.5764 53.6132 23.4483 51.4583 23.4483C48.3167 23.4483 45.6083 21.6276 44.2542 18.9793C46.6155 15.8743 47.7115 11.9619 47.3146 8.05517C48.5333 7.31035 49.9417 6.89655 51.4583 6.89655ZM14.8958 35.1724C14.8958 29.4621 22.7771 24.8276 32.5 24.8276C42.2229 24.8276 50.1042 29.4621 50.1042 35.1724V40H14.8958V35.1724ZM0 40V35.8621C0 32.0276 5.11875 28.8 12.0521 27.8621C10.4542 29.7379 9.47917 32.331 9.47917 35.1724V40H0ZM65 40H55.5208V35.1724C55.5208 32.331 54.5458 29.7379 52.9479 27.8621C59.8812 28.8 65 32.0276 65 35.8621V40Z" fill="#1A3C21"/>
</svg>
