<svg width="295" height="295" viewBox="0 0 295 295" fill="none" xmlns="http://www.w3.org/2000/svg">
<g style="mix-blend-mode:multiply">
<path d="M284.569 101.052C302.215 83.4076 294.168 62.7988 284.569 52.7768L242.22 10.43C224.434 -7.21442 203.965 0.831459 193.943 10.43L169.945 34.5677H133.384C106.563 34.5677 91.0347 48.6832 83.1296 64.9162L20.4532 127.589L20.4532 184.052L10.4306 193.932C-7.2148 211.718 0.831502 232.186 10.4306 242.208L52.7795 284.554C60.4023 292.177 68.5898 295 76.3538 295C86.3764 295 95.552 290.06 101.057 284.554L139.171 246.301H189.849C213.847 246.301 225.987 231.339 230.363 216.659C246.314 212.424 255.066 200.284 258.595 188.427C280.476 182.781 288.663 162.031 288.663 147.492V105.146H280.335L284.569 101.052ZM260.431 147.492C260.431 153.844 257.748 161.608 246.314 161.608H232.198V175.723C232.198 182.075 229.516 189.839 218.082 189.839H203.965V203.955C203.965 210.307 201.283 218.07 189.849 218.07H127.596L81.2945 264.369C76.9184 268.463 74.3775 266.063 72.8247 264.51L30.6169 222.446C26.5232 218.07 28.923 215.529 30.4758 213.977L48.6858 195.626L48.6858 139.164L76.9184 110.933L76.9184 133.377C76.9184 150.457 88.2115 175.723 119.267 175.723C150.323 175.723 161.616 150.457 161.616 133.377L260.431 133.377V147.492ZM264.524 81.0079L240.527 105.146H133.384V133.377C133.384 139.729 130.702 147.492 119.267 147.492C107.833 147.492 105.151 139.729 105.151 133.377L105.151 91.03C105.151 84.5368 107.551 62.7988 133.384 62.7988H181.52L213.706 30.6153C218.082 26.5218 220.623 28.9214 222.175 30.4742L264.383 72.5386C268.477 76.9144 266.077 79.4552 264.524 81.0079Z" fill="#F4F4F4"/>
</g>
</svg>
