<svg width="167" height="239" viewBox="0 0 167 239" fill="none" xmlns="http://www.w3.org/2000/svg">
<path id="Vector" d="M61.9785 3.43017C40.7669 9.11381 22.6856 23.0049 11.7123 42.0476C0.739043 61.0903 -2.22736 83.7247 3.4657 104.971C10.764 132.209 30.7694 152.485 55.3441 161.478L62.2744 187.343C63.0877 190.378 65.0715 192.966 67.7893 194.538C70.5071 196.11 73.7362 196.538 76.7665 195.726L145.32 177.357C148.35 176.545 150.933 174.56 152.5 171.84C154.068 169.12 154.492 165.886 153.678 162.851L146.748 136.987C163.534 116.911 170.721 89.3488 163.423 62.1111C157.73 40.8643 143.844 22.7455 124.819 11.7407C105.795 0.735931 83.1902 -2.25347 61.9785 3.43017ZM85.9661 230.059C86.7794 233.094 88.7631 235.683 91.4809 237.255C94.1987 238.827 97.4279 239.254 100.458 238.442L146.16 226.196C149.19 225.384 151.773 223.4 153.341 220.679C154.909 217.959 155.332 214.725 154.519 211.69L151.453 200.246L82.8995 218.614L85.9661 230.059Z" fill="#F4F4F4"/>
</svg>
