<svg width="151" height="151" viewBox="0 0 151 151" fill="none" xmlns="http://www.w3.org/2000/svg">
<path d="M52.5696 95.6517L64.713 88.4966L53.8618 69.7019L72.6566 58.8508L65.7176 46.5826L34.6091 64.5431L52.5696 95.6517ZM85.2822 104.417L116.391 86.4565L98.4303 55.348L86.2869 62.503L97.138 81.2977L78.3433 92.1489L85.2822 104.417ZM11.3589 124.053C7.61057 123.049 4.75795 120.855 2.80103 117.473C0.849875 114.086 0.376478 110.519 1.38084 106.771L26.9464 11.3588C27.9508 7.61047 30.1444 4.75785 33.5272 2.80093C36.9133 0.849775 40.4806 0.376378 44.2289 1.38074L139.641 26.9463C143.389 27.9507 146.242 30.1443 148.199 33.5271C150.15 36.9132 150.623 40.4805 149.619 44.2288L124.053 139.641C123.049 143.389 120.855 146.242 117.473 148.199C114.086 150.15 110.519 150.623 106.771 149.619L11.3589 124.053ZM15.0111 110.423L110.423 135.989L135.989 40.5766L40.5767 15.011L15.0111 110.423Z" fill="#F4F4F4"/>
</svg>
