<svg width="147" height="141" viewBox="0 0 147 141" fill="none" xmlns="http://www.w3.org/2000/svg">
<path d="M62.5409 89.3872C63.1729 91.746 63.1 94.0204 62.4665 96.2399C59.2941 93.0586 54.5193 91.5366 49.8082 92.7989C45.0972 94.0612 41.7231 97.7668 40.5664 102.108C38.9716 100.486 37.7076 98.5694 37.0756 96.2106C35.1966 89.198 39.3889 81.9251 46.3918 80.0487C53.3948 78.1722 60.6619 82.3746 62.5409 89.3872ZM141.266 64.8765L146.391 84.0018C147.33 87.5081 145.234 91.1446 141.732 92.0828L135.366 93.7886L137.074 100.164C138.97 107.24 134.825 114.432 127.758 116.326L38.6294 140.208C35.2525 141.112 31.654 140.637 28.6254 138.886C25.5969 137.134 23.3864 134.251 22.4804 130.869L20.7722 124.494L14.4058 126.2C10.9043 127.138 7.2708 125.037 6.33129 121.531L1.20667 102.405C0.26716 98.8989 2.36332 95.2625 5.8648 94.3243L12.2311 92.6184C5.62037 67.9468 20.2003 42.6533 44.838 36.0517L51.2043 34.3458L49.0349 26.2494C44.6343 25.1054 40.9774 21.6439 39.7134 16.9264C37.8343 9.91373 42.0267 2.64087 49.0296 0.764428C56.0326 -1.11201 63.2997 3.09032 65.1787 10.1029C66.4428 14.8205 65.0066 19.6467 61.7676 22.8377L63.937 30.9341L70.3033 29.2283C94.941 22.6266 120.214 37.2414 126.825 61.9131L133.191 60.2072C136.693 59.269 140.326 61.3702 141.266 64.8765ZM130.241 74.6633L117.509 78.075L114.092 65.3248C109.378 47.7295 91.2908 37.2703 73.7197 41.9785L48.2544 48.8019C30.6833 53.5101 20.2491 71.6114 24.9638 89.2067L28.3802 101.957L15.6475 105.369L17.3557 111.744L30.0884 108.332L35.213 127.457L124.342 103.575L119.217 84.4501L131.95 81.0384L130.241 74.6633ZM90.9561 68.1077C83.9532 69.9842 79.7609 77.257 81.6399 84.2696C82.2719 86.6284 83.5359 88.5446 85.1307 90.1671C86.2874 85.8258 89.6615 82.1203 94.3726 80.8579C99.0836 79.5956 103.858 81.1177 107.031 84.299C107.664 82.0794 107.737 79.805 107.105 77.4462C106.199 74.0647 103.989 71.181 100.96 69.4297C97.9316 67.6784 94.333 67.2029 90.9561 68.1077Z" fill="#F4F4F4"/>
</svg>
