<svg width="70" height="70" viewBox="0 0 70 70" fill="none" xmlns="http://www.w3.org/2000/svg">
<g filter="url(#filter0_d_499_423)">
<circle cx="35" cy="31" r="25" transform="rotate(180 35 31)" fill="#469C57"/>
</g>
<path d="M22.3372 31.3246C22.3372 30.9363 22.4091 30.5607 22.5528 30.1977C22.6966 29.8327 22.8882 29.5289 23.1278 29.2863L36.3528 15.8916C36.8798 15.3577 37.5507 15.0908 38.3653 15.0908C39.1798 15.0908 39.8507 15.3577 40.3777 15.8916C40.9048 16.4254 41.1684 17.1049 41.1684 17.9299C41.1684 18.7549 40.9048 19.4344 40.3777 19.9682L29.1653 31.3246L40.3777 42.6809C40.9048 43.2148 41.1684 43.8942 41.1684 44.7193C41.1684 45.5443 40.9048 46.2237 40.3777 46.7576C39.8507 47.2914 39.1798 47.5583 38.3653 47.5583C37.5507 47.5583 36.8798 47.2914 36.3528 46.7576L23.1278 33.3629C22.8403 33.0717 22.6372 32.7563 22.5183 32.4165C22.3976 32.0768 22.3372 31.7128 22.3372 31.3246Z" fill="#F9F9F9"/>
<defs>
<filter id="filter0_d_499_423" x="7.62939e-06" y="0" width="70" height="70" filterUnits="userSpaceOnUse" color-interpolation-filters="sRGB">
<feFlood flood-opacity="0" result="BackgroundImageFix"/>
<feColorMatrix in="SourceAlpha" type="matrix" values="0 0 0 0 0 0 0 0 0 0 0 0 0 0 0 0 0 0 127 0" result="hardAlpha"/>
<feOffset dy="4"/>
<feGaussianBlur stdDeviation="5"/>
<feComposite in2="hardAlpha" operator="out"/>
<feColorMatrix type="matrix" values="0 0 0 0 0 0 0 0 0 0 0 0 0 0 0 0 0 0 0.25 0"/>
<feBlend mode="normal" in2="BackgroundImageFix" result="effect1_dropShadow_499_423"/>
<feBlend mode="normal" in="SourceGraphic" in2="effect1_dropShadow_499_423" result="shape"/>
</filter>
</defs>
</svg>
