<svg width="112" height="112" viewBox="0 0 112 112" fill="none" xmlns="http://www.w3.org/2000/svg">
<path d="M24.8889 87.1111H68.4444V74.6667H24.8889V87.1111ZM24.8889 62.2222H87.1111V49.7778H24.8889V62.2222ZM24.8889 37.3333H87.1111V24.8889L24.8889 24.8889V37.3333ZM12.4444 112C9.02222 112 6.09156 110.783 3.65244 108.348C1.21748 105.908 0 102.978 0 99.5556L0 12.4444C0 9.02222 1.21748 6.09156 3.65244 3.65244C6.09156 1.21748 9.02222 0 12.4444 0L99.5556 0C102.978 0 105.908 1.21748 108.348 3.65244C110.783 6.09156 112 9.02222 112 12.4444V99.5556C112 102.978 110.783 105.908 108.348 108.348C105.908 110.783 102.978 112 99.5556 112H12.4444Z" fill="#F4F4F4"/>
</svg>
