<svg width="179" height="163" viewBox="0 0 179 163" fill="none" xmlns="http://www.w3.org/2000/svg">
<path d="M109.384 103.426C110.16 104.773 111.292 105.615 112.783 105.954C114.269 106.286 115.685 106.063 117.03 105.285C118.375 104.507 119.246 103.378 119.642 101.9C120.037 100.427 119.846 99.017 119.071 97.6704L111.008 83.9323C112.842 82.2725 114.385 80.4083 115.636 78.3394C116.883 76.2693 117.838 73.9947 118.503 71.5154C120.369 64.55 119.5 58.0208 115.894 51.9276C112.283 45.838 107.12 41.8934 100.405 40.0941C93.6893 38.2947 87.2479 39.1297 81.0805 42.5993C74.907 46.0723 70.8871 51.2915 69.0208 58.2569C67.1544 65.2222 68.0261 71.7521 71.636 77.8465C75.2424 83.935 80.4032 87.8789 87.1186 89.6782C89.5927 90.3412 91.9922 90.6981 94.3171 90.7492C96.636 90.8036 99.0298 90.4657 101.498 89.7353L109.384 103.426ZM89.9656 79.0531C86.0778 78.0113 83.1227 75.7315 81.1005 72.2135C79.0723 68.6991 78.5801 64.9939 79.624 61.098C80.6679 57.2021 82.9474 54.237 86.4624 52.2028C89.9714 50.172 93.6698 49.6775 97.5577 50.7192C101.328 51.7294 104.255 53.9993 106.34 57.5289C108.423 61.0633 108.943 64.7784 107.899 68.6743C106.855 72.5702 104.579 75.5336 101.07 77.5643C97.5549 79.5986 93.8535 80.0948 89.9656 79.0531ZM25.5614 107.348C21.6736 106.306 18.7179 104.029 16.6944 100.516C14.6674 96.9965 14.1759 93.289 15.2198 89.3931L36.0979 11.4751C37.1418 7.57916 39.4212 4.61409 42.9362 2.57986C46.4452 0.549083 50.1437 0.0545705 54.0315 1.09632L167.133 31.4017C171.021 32.4434 173.979 34.7215 176.007 38.236C178.029 41.7539 178.518 45.4609 177.474 49.3568L156.596 127.275C155.552 131.171 153.275 134.136 149.765 136.172C146.251 138.201 142.55 138.695 138.663 137.654L25.5614 107.348ZM5.72978 124.81C3.72695 124.274 2.23149 123.144 1.24341 121.422C0.249343 119.703 0.021197 117.84 0.558964 115.833C1.09673 113.826 2.2258 112.327 3.94617 111.335C5.66308 110.337 7.52296 110.107 9.52579 110.643L150.902 148.525C152.905 149.062 154.401 150.191 155.389 151.914C156.383 153.633 156.611 155.496 156.073 157.503C155.535 159.51 154.406 161.009 152.686 162.001C150.969 162.998 149.109 163.229 147.106 162.692L5.72978 124.81Z" fill="#F4F4F4"/>
</svg>
