<svg width="107" height="102" viewBox="0 0 107 102" fill="none" xmlns="http://www.w3.org/2000/svg">
<path d="M53.4988 85.4516L27.566 101.045C26.4204 101.773 25.2227 102.084 23.9729 101.98C22.7231 101.877 21.6295 101.461 20.6922 100.733C19.7549 100.005 19.0258 99.0968 18.5051 98.0073C17.9844 96.9137 17.8802 95.6912 18.1927 94.3398L25.0664 64.8683L2.10181 45.0648C1.06033 44.1292 0.410445 43.0626 0.152158 41.865C-0.110294 40.6716 -0.0332254 39.5032 0.383366 38.3596C0.799958 37.2161 1.42485 36.2805 2.25803 35.5528C3.09121 34.8251 4.23684 34.3573 5.69491 34.1494L36.002 31.4986L47.7186 3.74241C48.2393 2.49494 49.0475 1.55934 50.1432 0.935602C51.2346 0.311868 52.3532 0 53.4988 0C54.6444 0 55.7651 0.311868 56.8607 0.935602C57.9522 1.55934 58.7583 2.49494 59.279 3.74241L70.9957 31.4986L101.303 34.1494C102.761 34.3573 103.906 34.8251 104.74 35.5528C105.573 36.2805 106.198 37.2161 106.614 38.3596C107.031 39.5032 107.11 40.6716 106.852 41.865C106.589 43.0626 105.937 44.1292 104.896 45.0648L81.9312 64.8683L88.805 94.3398C89.1174 95.6912 89.0133 96.9137 88.4925 98.0073C87.9718 99.0968 87.2428 100.005 86.3054 100.733C85.3681 101.461 84.2745 101.877 83.0248 101.98C81.775 102.084 80.5773 101.773 79.4317 101.045L53.4988 85.4516Z" fill="#F4F4F4"/>
</svg>
