<svg width="220" height="467" viewBox="0 0 220 467" fill="none" xmlns="http://www.w3.org/2000/svg">
<path d="M-36.4605 67.3544L27.9521 50.0951M-206.968 268.376L50.6825 199.338M-184.238 417.619L-119.825 400.36M-68.7803 429.831C-55.2423 437.647 -39.1538 439.765 -24.0542 435.719C-8.95454 431.673 3.91943 421.794 11.7356 408.256C19.5517 394.718 21.6698 378.63 17.6239 363.53C13.5779 348.431 3.6994 335.557 -9.83857 327.741C-23.3766 319.924 -39.465 317.806 -54.5647 321.852C-69.6643 325.898 -82.5383 335.777 -90.3544 349.315C-98.1706 362.853 -100.289 378.941 -96.2427 394.041C-92.1968 409.141 -82.3182 422.014 -68.7803 429.831V429.831ZM-146.447 139.974C-132.909 147.79 -116.821 149.908 -101.721 145.862C-86.6215 141.816 -73.7475 131.937 -65.9314 118.399C-58.1152 104.861 -55.9971 88.773 -60.0431 73.6733C-64.089 58.5737 -73.9676 45.6997 -87.5055 37.8835C-101.044 30.0674 -117.132 27.9493 -132.232 31.9952C-147.331 36.0412 -160.205 45.9197 -168.021 59.4577C-175.838 72.9957 -177.956 89.0841 -173.91 104.184C-169.864 119.283 -159.985 132.157 -146.447 139.974V139.974ZM-316.955 340.995C-303.417 348.811 -287.329 350.929 -272.229 346.883C-257.129 342.837 -244.255 332.959 -236.439 319.421C-228.623 305.883 -226.505 289.794 -230.551 274.695C-234.597 259.595 -244.475 246.721 -258.013 238.905C-271.551 231.089 -287.64 228.971 -302.739 233.017C-317.839 237.063 -330.713 246.941 -338.529 260.479C-346.345 274.017 -348.463 290.105 -344.417 305.205C-340.372 320.305 -330.493 333.179 -316.955 340.995V340.995ZM101.727 228.809C115.265 236.625 131.354 238.744 146.454 234.698C161.553 230.652 174.427 220.773 182.243 207.235C190.059 193.697 192.178 177.609 188.132 162.509C184.086 147.409 174.207 134.535 160.669 126.719C147.131 118.903 131.043 116.785 115.943 120.831C100.843 124.877 87.9695 134.755 80.1533 148.293C72.3372 161.831 70.2191 177.92 74.265 193.02C78.311 208.119 88.1895 220.993 101.727 228.809Z" stroke="#F4F4F4" stroke-width="58.3333" stroke-linecap="round" stroke-linejoin="round"/>
</svg>
