<svg width="212" height="575" viewBox="0 0 212 575" fill="none" xmlns="http://www.w3.org/2000/svg">
<path d="M93.1447 182.325L167.526 202.163L169.556 205.679L149.546 280.014L79.2419 320.604L101.802 359.68L188.165 309.819L201.367 260.776L230.582 311.38L250.166 300.073C260.553 294.076 268.139 284.207 271.253 272.638C274.367 261.07 272.755 248.748 266.772 238.384L238.571 189.54L300.063 154.037C305.999 160.249 312.884 165.391 320.524 169.578L325.602 438.874L231.211 493.371C220.823 499.368 213.238 509.237 210.124 520.806C207.009 532.375 208.621 544.696 214.605 555.06L225.885 574.598L617.551 348.469L606.271 328.931C600.287 318.568 590.422 311.011 578.846 307.924C567.27 304.836 554.931 306.471 544.544 312.468L415.098 387.204L411.062 168.104C428.043 157.914 441.225 142.452 448.588 124.086C455.952 105.72 457.092 85.4619 451.833 66.4127C448.643 54.9807 443.225 44.294 435.891 34.9643C428.556 25.6347 419.448 17.8454 409.088 12.0424C398.728 6.23935 387.32 2.53656 375.517 1.14597C363.714 -0.24461 351.748 0.704338 340.303 3.93848C292.386 17.2753 264.133 66.9318 277.502 114.962L216.011 150.464L187.81 101.619C181.827 91.2553 171.962 83.6986 160.386 80.6112C148.81 77.5238 136.471 79.1585 126.083 85.1558L106.5 96.4623L135.716 147.066L86.6425 133.977L0.280178 183.839L22.8407 222.915L93.1447 182.325ZM341.813 51.7809C352.201 45.7836 364.54 44.1488 376.116 47.2362C387.692 50.3236 397.557 57.8803 403.541 68.2439C409.524 78.6075 411.136 90.929 408.022 102.498C404.907 114.067 397.322 123.935 386.934 129.933C376.547 135.93 364.208 137.565 352.632 134.477C341.056 131.39 331.191 123.833 325.207 113.47C319.224 103.106 317.612 90.7845 320.726 79.2156C323.841 67.6467 331.426 57.7782 341.813 51.7809Z" fill="#F4F4F4"/>
</svg>
