<svg width="158" height="48" viewBox="0 0 158 48" fill="none" xmlns="http://www.w3.org/2000/svg">
<g clip-path="url(#clip0_16_2095)">
<mask id="mask0_16_2095" style="mask-type:luminance" maskUnits="userSpaceOnUse" x="-169" y="-66" width="350" height="248">
<path d="M-168.955 -65.8305H180.245V181.079H-168.955V-65.8305Z" fill="white"/>
</mask>
<g mask="url(#mask0_16_2095)">
<path d="M55.5555 8.21844C55.5555 4.0781 58.671 1.28414 62.7109 1.28414C65.6455 1.28414 67.354 2.87233 68.2989 4.56091L65.8467 5.76667C65.2838 4.68161 64.0776 3.8172 62.7109 3.8172C60.2592 3.8172 58.4901 5.68662 58.4901 8.21844C58.4901 10.7511 60.2592 12.6201 62.7109 12.6201C64.0776 12.6201 65.2838 11.7561 65.8467 10.6706L68.2989 11.8565C67.354 13.5247 65.6455 15.1532 62.7109 15.1532C58.671 15.1532 55.5555 12.3389 55.5555 8.21844Z" fill="#1E1719"/>
<path d="M74.3494 7.05279C72.7612 7.05279 72.0777 8.15818 71.9777 9.12337H76.7614C76.6809 8.19924 76.0376 7.05279 74.3494 7.05279ZM69.3243 10.0479C69.3243 7.23405 71.4148 4.96271 74.3494 4.96271C77.2637 4.96271 79.2135 7.13326 79.2135 10.2889V10.8924H71.9976C72.1789 12.0779 73.1436 13.0625 74.7916 13.0625C75.6157 13.0625 76.7415 12.7212 77.3645 12.1181L78.5097 13.8063C77.5453 14.691 76.0172 15.153 74.5103 15.153C71.5559 15.153 69.3243 13.1629 69.3243 10.0479Z" fill="#1E1719"/>
<path d="M87.6147 14.9116V9.04282C87.6147 7.69603 86.9116 7.23314 85.8261 7.23314C84.8211 7.23314 84.0571 7.79682 83.615 8.35968V14.9116H81.0628V5.20361H83.615V6.45003C84.238 5.72624 85.4441 4.96304 87.012 4.96304C89.1622 4.96304 90.1876 6.16839 90.1876 8.05772V14.9116H87.6147Z" fill="#1E1719"/>
<path d="M93.2231 12.4796V7.43462H91.615V5.20351H93.2231V2.55057H95.7756V5.20351H97.745V7.43462H95.7756V11.7969C95.7756 12.419 96.0971 12.8815 96.6595 12.8815C97.0415 12.8815 97.4036 12.7413 97.5443 12.58L98.0872 14.5294C97.7052 14.8716 97.0216 15.1529 95.9565 15.1529C94.1675 15.1529 93.2231 14.2283 93.2231 12.4796Z" fill="#1E1719"/>
<path d="M99.494 14.9115V5.20358H102.046V6.51014C102.75 5.66606 103.936 4.96301 105.142 4.96301V7.4546C104.961 7.41436 104.74 7.39446 104.439 7.39446C103.594 7.39446 102.469 7.87685 102.046 8.50026V14.9115H99.494Z" fill="#1E1719"/>
<path d="M113.724 10.0476C113.724 8.54031 112.84 7.23375 111.232 7.23375C109.644 7.23375 108.76 8.54031 108.76 10.0476C108.76 11.5753 109.644 12.8814 111.232 12.8814C112.84 12.8814 113.724 11.5753 113.724 10.0476ZM106.107 10.0476C106.107 7.2939 108.036 4.96241 111.232 4.96241C114.448 4.96241 116.377 7.2939 116.377 10.0476C116.377 12.8014 114.448 15.1532 111.232 15.1532C108.036 15.1532 106.107 12.8014 106.107 10.0476Z" fill="#1E1719"/>
<path d="M130.126 11.7761V8.33921C129.704 7.69588 128.78 7.23382 127.936 7.23382C126.468 7.23382 125.463 8.37986 125.463 10.0477C125.463 11.7358 126.468 12.8815 127.936 12.8815C128.78 12.8815 129.704 12.4194 130.126 11.7761ZM130.126 14.9122V13.6654C129.362 14.6306 128.318 15.1532 127.132 15.1532C124.699 15.1532 122.83 13.3037 122.83 10.0477C122.83 6.89245 124.659 4.96247 127.132 4.96247C128.277 4.96247 129.362 5.44445 130.126 6.44988V1.50528H132.699V14.9122H130.126Z" fill="#1E1719"/>
<path d="M139.633 7.05279C138.045 7.05279 137.362 8.15818 137.261 9.12337H142.045C141.965 8.19924 141.321 7.05279 139.633 7.05279ZM134.608 10.0479C134.608 7.23405 136.699 4.96271 139.633 4.96271C142.548 4.96271 144.498 7.13326 144.498 10.2889V10.8924H137.282C137.462 12.0779 138.427 13.0625 140.075 13.0625C140.9 13.0625 142.025 12.7212 142.648 12.1181L143.794 13.8063C142.829 14.691 141.301 15.153 139.794 15.153C136.839 15.153 134.608 13.1629 134.608 10.0479Z" fill="#1E1719"/>
<path d="M56.1969 21.1034H59.051V34.5095H56.1969V21.1034Z" fill="#1E1719"/>
<path d="M68.1971 34.5097V28.641C68.1971 27.2942 67.4936 26.8317 66.4081 26.8317C65.4031 26.8317 64.6395 27.3954 64.1969 27.9579V34.5097H61.6448V24.8018H64.1969V26.0482C64.8199 25.3244 66.0265 24.5612 67.5944 24.5612C69.7446 24.5612 70.7695 25.767 70.7695 27.6563V34.5097H68.1971Z" fill="#1E1719"/>
<path d="M73.8648 34.5097V27.0337H72.2571V24.8018H73.8648V24.3999C73.8648 22.2094 75.1714 20.9028 77.1213 20.9028C78.0657 20.9028 79.0712 21.1637 79.6535 21.8274L78.6887 23.3749C78.4274 23.134 78.0856 22.9929 77.624 22.9929C76.8998 22.9929 76.4178 23.4554 76.4178 24.3999V24.8018H78.3872V27.0337H76.4178V34.5097H73.8648Z" fill="#1E1719"/>
<path d="M86.8481 29.6457C86.8481 28.1388 85.9634 26.8322 84.3557 26.8322C82.7683 26.8322 81.8836 28.1388 81.8836 29.6457C81.8836 31.1733 82.7683 32.4803 84.3557 32.4803C85.9634 32.4803 86.8481 31.1733 86.8481 29.6457ZM79.2307 29.6457C79.2307 26.8928 81.1598 24.5605 84.3557 24.5605C87.5719 24.5605 89.501 26.8928 89.501 29.6457C89.501 32.3994 87.5719 34.7516 84.3557 34.7516C81.1598 34.7516 79.2307 32.3994 79.2307 29.6457Z" fill="#1E1719"/>
<path d="M91.4123 34.5097V24.8018H93.9648V26.1083C94.6687 25.2647 95.8546 24.5612 97.0603 24.5612V27.0528C96.8795 27.0134 96.658 26.9926 96.3569 26.9926C95.5128 26.9926 94.3871 27.475 93.9648 28.0984V34.5097H91.4123Z" fill="#1E1719"/>
<path d="M110.687 34.5096V28.38C110.687 27.475 110.286 26.8316 109.241 26.8316C108.336 26.8316 107.592 27.4351 107.231 27.9578V34.5096H104.658V28.38C104.658 27.475 104.255 26.8316 103.211 26.8316C102.327 26.8316 101.583 27.4351 101.201 27.9578V34.5096H98.6485V24.8017H101.201V26.0481C101.623 25.4857 102.889 24.5611 104.376 24.5611C105.803 24.5611 106.728 25.2235 107.069 26.3094C107.633 25.445 108.919 24.5611 110.406 24.5611C112.195 24.5611 113.26 25.5056 113.26 27.4957V34.5096H110.687Z" fill="#1E1719"/>
<path d="M120.176 23.3343H118.387L121.081 20.4399H123.432L120.176 23.3343ZM121.623 32.1782V30.9724C121.201 30.4096 120.397 30.108 119.573 30.108C118.568 30.108 117.744 30.6506 117.744 31.5751C117.744 32.5001 118.568 33.0223 119.573 33.0223C120.397 33.0223 121.201 32.7411 121.623 32.1782ZM121.623 34.5097V33.4848C120.96 34.2882 119.814 34.7511 118.548 34.7511C117 34.7511 115.191 33.7059 115.191 31.5349C115.191 29.2436 117 28.3996 118.548 28.3996C119.854 28.3996 120.98 28.8214 121.623 29.5854V28.3597C121.623 27.3746 120.779 26.7309 119.493 26.7309C118.467 26.7309 117.503 27.1336 116.698 27.8769L115.693 26.0884C116.88 25.0224 118.407 24.5603 119.935 24.5603C122.166 24.5603 124.196 25.4447 124.196 28.239V34.5097H121.623Z" fill="#1E1719"/>
<path d="M127.23 32.0776V27.033H125.622V24.8015H127.23V22.1486H129.783V24.8015H131.752V27.033H129.783V31.3949C129.783 32.017 130.105 32.4799 130.667 32.4799C131.049 32.4799 131.411 32.3393 131.552 32.1784L132.094 34.1279C131.713 34.4696 131.029 34.7513 129.964 34.7513C128.175 34.7513 127.23 33.8263 127.23 32.0776Z" fill="#1E1719"/>
<path d="M133.502 24.8016H136.054V34.5095H133.502V24.8016ZM133.26 22.2291C133.26 21.385 133.944 20.7218 134.768 20.7218C135.612 20.7218 136.296 21.385 136.296 22.2291C136.296 23.0736 135.612 23.7567 134.768 23.7567C133.944 23.7567 133.26 23.0736 133.26 22.2291Z" fill="#1E1719"/>
<path d="M137.965 29.6457C137.965 26.6713 140.135 24.5605 143.11 24.5605C145.099 24.5605 146.305 25.4253 146.949 26.3096L145.281 27.8771C144.818 27.1939 144.115 26.8322 143.23 26.8322C141.683 26.8322 140.598 27.958 140.598 29.6457C140.598 31.3343 141.683 32.4803 143.23 32.4803C144.115 32.4803 144.818 32.078 145.281 31.4143L146.949 32.9826C146.305 33.8665 145.099 34.7516 143.11 34.7516C140.135 34.7516 137.965 32.6404 137.965 29.6457Z" fill="#1E1719"/>
<path d="M154.445 32.1784V30.9723C154.023 30.4098 153.219 30.1083 152.396 30.1083C151.39 30.1083 150.566 30.6508 150.566 31.5754C150.566 32.4999 151.39 33.0225 152.396 33.0225C153.219 33.0225 154.023 32.7409 154.445 32.1784ZM154.445 34.5099V33.485C153.782 34.2884 152.637 34.7509 151.37 34.7509C149.822 34.7509 148.013 33.7061 148.013 31.5355C148.013 29.2439 149.822 28.3998 151.37 28.3998C152.676 28.3998 153.802 28.8216 154.445 29.5861V28.36C154.445 27.3744 153.601 26.7311 152.315 26.7311C151.29 26.7311 150.325 27.1335 149.521 27.8772L148.516 26.0882C149.702 25.0226 151.229 24.5606 152.757 24.5606C154.988 24.5606 157.018 25.4449 157.018 28.2393V34.5099H154.445Z" fill="#1E1719"/>
<path d="M56.0399 39.5238H57.0586V43.5891C57.0586 44.7385 57.6941 45.4751 58.8741 45.4751C60.0542 45.4751 60.6797 44.7385 60.6797 43.5891V39.5238H61.6988V43.6094C61.6988 45.2839 60.7605 46.3727 58.8741 46.3727C56.9881 46.3727 56.0399 45.2735 56.0399 43.6194V39.5238Z" fill="#1E1719"/>
<path d="M65.218 39.5239H69.7371V40.4123H66.2268V42.3788H69.6661V43.266H66.2268V46.252H65.218V39.5239Z" fill="#1E1719"/>
<path d="M75.5468 40.4117H73.8528V42.7718H75.5468C76.273 42.7718 76.7874 42.2977 76.7874 41.5917C76.7874 40.8857 76.273 40.4117 75.5468 40.4117ZM72.8436 39.5236H75.6774C77.0599 39.5236 77.8264 40.4722 77.8264 41.5917C77.8264 42.7116 77.0495 43.6594 75.6774 43.6594H73.8528V46.2518H72.8436V39.5236Z" fill="#1E1719"/>
<path d="M80.8828 39.5238H85.4014V40.4123H81.8916V42.3788H85.3305V43.266H81.8916V45.3639H85.4014V46.252H80.8828V39.5238Z" fill="#1E1719"/>
<path fill-rule="evenodd" clip-rule="evenodd" d="M0 38.874V36.1613C0 36.1613 12.7777 23.9224 17.2914 22.1459C17.2914 22.1459 26.0399 18.2635 28.4855 29.5887C29.9173 36.2202 31.5594 41.2075 37.9346 38.8611C40.1255 38.0544 42.7336 36.2679 46.2788 33.5374L46.9038 35.9635C46.9038 35.9635 21.3782 62.9396 12.6989 36.0029C12.088 34.1069 10.7237 33.5826 9.18159 33.7738C5.44234 34.2575 0 38.874 0 38.874Z" fill="#E02C33"/>
<path fill-rule="evenodd" clip-rule="evenodd" d="M36.225 3.01984C37.6863 5.45626 38.07 9.34608 34.3705 11.5647C32.9159 12.4366 31.0386 13.1658 29.1746 13.4234C25.5386 13.9257 21.959 13.2712 21.7052 12.8472C21.3248 12.2135 23.8604 3.30272 27.7668 0.959623C31.4476 -1.24743 34.8575 0.739374 36.225 3.01984Z" fill="#E02C33"/>
</g>
</g>
<defs>
<clipPath id="clip0_16_2095">
<rect width="157.018" height="47.9648" fill="white"/>
</clipPath>
</defs>
</svg>
