<svg width="31" height="31" viewBox="0 0 31 31" fill="none" xmlns="http://www.w3.org/2000/svg">
<path id="Vector" d="M13.0545 17.7545C13.7378 18.4045 13.7378 19.4712 13.0545 20.1212C12.4045 20.7712 11.3378 20.7712 10.6878 20.1212C9.12678 18.5578 8.25 16.4388 8.25 14.2295C8.25 12.0202 9.12678 9.9012 10.6878 8.33782L16.5878 2.43782C18.1512 0.876783 20.2702 0 22.4795 0C24.6888 0 26.8078 0.876783 28.3712 2.43782C29.9322 4.0012 30.809 6.12019 30.809 8.32949C30.809 10.5388 29.9322 12.6578 28.3712 14.2212L25.8878 16.7045C25.9045 15.3378 25.6878 13.9712 25.2211 12.6712L26.0045 11.8712C26.4717 11.409 26.8426 10.8587 27.0958 10.2522C27.3489 9.64571 27.4793 8.99503 27.4793 8.33782C27.4793 7.68061 27.3489 7.02993 27.0958 6.42344C26.8426 5.81694 26.4717 5.26667 26.0045 4.80449C25.5423 4.33726 24.992 3.96633 24.3855 3.71318C23.779 3.46004 23.1284 3.32969 22.4712 3.32969C21.8139 3.32969 21.1633 3.46004 20.5568 3.71318C19.9503 3.96633 19.4 4.33726 18.9378 4.80449L13.0545 10.6878C12.5873 11.15 12.2163 11.7003 11.9632 12.3068C11.71 12.9133 11.5797 13.5639 11.5797 14.2212C11.5797 14.8784 11.71 15.529 11.9632 16.1355C12.2163 16.742 12.5873 17.2923 13.0545 17.7545ZM17.7545 10.6878C18.4045 10.0378 19.4712 10.0378 20.1212 10.6878C21.6822 12.2512 22.559 14.3702 22.559 16.5795C22.559 18.7888 21.6822 20.9078 20.1212 22.4712L14.2212 28.3712C12.6578 29.9322 10.5388 30.809 8.32949 30.809C6.12019 30.809 4.0012 29.9322 2.43782 28.3712C0.876783 26.8078 0 24.6888 0 22.4795C0 20.2702 0.876783 18.1512 2.43782 16.5878L4.92115 14.1045C4.90449 15.4712 5.12115 16.8378 5.58782 18.1545L4.80449 18.9378C4.33726 19.4 3.96633 19.9503 3.71318 20.5568C3.46004 21.1633 3.32969 21.8139 3.32969 22.4712C3.32969 23.1284 3.46004 23.779 3.71318 24.3855C3.96633 24.992 4.33726 25.5423 4.80449 26.0045C5.26667 26.4717 5.81694 26.8426 6.42344 27.0958C7.02993 27.3489 7.68061 27.4793 8.33782 27.4793C8.99503 27.4793 9.64571 27.3489 10.2522 27.0958C10.8587 26.8426 11.409 26.4717 11.8712 26.0045L17.7545 20.1212C18.2217 19.659 18.5926 19.1087 18.8458 18.5022C19.0989 17.8957 19.2293 17.245 19.2293 16.5878C19.2293 15.9306 19.0989 15.2799 18.8458 14.6734C18.5926 14.0669 18.2217 13.5167 17.7545 13.0545C17.5926 12.9028 17.4636 12.7195 17.3754 12.516C17.2872 12.3125 17.2417 12.093 17.2417 11.8712C17.2417 11.6493 17.2872 11.4299 17.3754 11.2263C17.4636 11.0228 17.5926 10.8395 17.7545 10.6878Z" fill="#4ECB71"/>
</svg>
