<svg width="259" height="48" viewBox="0 0 259 48" fill="none" xmlns="http://www.w3.org/2000/svg">
<g clip-path="url(#clip0_16_1879)">
<path fill-rule="evenodd" clip-rule="evenodd" d="M63.9416 32.8394H68.4345V14.5953H63.9416V32.8394Z" fill="#47304D"/>
<path fill-rule="evenodd" clip-rule="evenodd" d="M96.2378 32.8394H92.5263L83.2801 22.2188V32.8394H78.7873V14.5953H82.4987L91.7449 25.4766V14.5953H96.2378V32.8394Z" fill="#47304D"/>
<path fill-rule="evenodd" clip-rule="evenodd" d="M125.54 25.9976C125.149 28.213 124.042 30.0374 122.415 31.3405C120.787 32.6437 118.703 33.2953 116.294 33.2953C113.559 33.2953 111.28 32.383 109.392 30.5586C107.504 28.7342 106.527 26.4537 106.527 23.7823C106.527 21.1108 107.438 18.8303 109.392 17.0059C111.28 15.1815 113.559 14.2693 116.294 14.2693C118.573 14.2693 120.591 14.9208 122.284 16.224C123.977 17.462 125.019 19.2212 125.475 21.3063L121.047 22.3488C120.787 21.0456 120.201 20.0683 119.354 19.4167C118.508 18.7651 117.466 18.4393 116.294 18.4393C114.861 18.4393 113.624 18.9606 112.582 20.0031C111.606 21.0456 111.085 22.3488 111.085 23.9126C111.085 25.4764 111.606 26.7795 112.582 27.822C113.559 28.8645 114.796 29.3858 116.294 29.3858C117.466 29.3858 118.508 29.06 119.354 28.3433C120.201 27.6917 120.787 26.6492 121.112 25.346L125.54 25.9976Z" fill="#47304D"/>
<path fill-rule="evenodd" clip-rule="evenodd" d="M149.371 27.5615C150.348 26.519 150.868 25.2158 150.868 23.7172C150.868 22.2186 150.348 20.8503 149.371 19.8078C148.394 18.7653 147.157 18.244 145.594 18.244C144.032 18.244 142.859 18.7653 141.818 19.8078C140.776 20.8503 140.32 22.1534 140.32 23.7172C140.32 25.281 140.841 26.5842 141.818 27.5615C142.794 28.604 144.032 29.1253 145.594 29.1253C147.157 29.1253 148.329 28.604 149.371 27.5615ZM152.561 16.9408C154.45 18.7653 155.426 21.0458 155.426 23.7172C155.426 26.3887 154.515 28.604 152.561 30.4284C150.673 32.2529 148.394 33.1651 145.659 33.1651C142.925 33.1651 140.646 32.2529 138.757 30.4284C136.869 28.604 135.892 26.3235 135.892 23.7172C135.892 21.1109 136.804 18.7653 138.757 16.9408C140.646 15.1164 142.925 14.1391 145.659 14.1391C148.329 14.1391 150.673 15.0513 152.561 16.9408Z" fill="#47304D"/>
<path fill-rule="evenodd" clip-rule="evenodd" d="M184.923 22.0231C184.988 22.6095 185.054 23.196 185.054 23.6521C185.054 26.3887 184.142 28.6692 182.384 30.4936C180.626 32.318 178.347 33.1651 175.612 33.1651C172.877 33.1651 170.533 32.2529 168.58 30.4284C166.691 28.604 165.715 26.3235 165.715 23.6521C165.715 20.9806 166.626 18.7001 168.58 16.8757C170.468 15.0513 172.747 14.1391 175.547 14.1391C177.631 14.1391 179.519 14.5952 181.147 15.5725C182.775 16.5499 183.882 17.9182 184.468 19.6123L180.105 20.8503C179.193 19.091 177.696 18.244 175.547 18.244C174.049 18.244 172.812 18.7653 171.77 19.8078C170.729 20.8503 170.273 22.1534 170.273 23.6521C170.273 25.1507 170.794 26.519 171.835 27.5615C172.877 28.604 174.18 29.1253 175.677 29.1253C176.849 29.1253 177.891 28.8647 178.738 28.2783C179.584 27.6918 180.17 26.9099 180.496 25.8674H174.896V22.0231H184.923Z" fill="#47304D"/>
<path fill-rule="evenodd" clip-rule="evenodd" d="M212.857 32.8394H209.146L199.9 22.2188V32.8394H195.407V14.5953H199.118L208.364 25.4766V14.5953H212.857V32.8394Z" fill="#47304D"/>
<path fill-rule="evenodd" clip-rule="evenodd" d="M223.211 32.8394H227.703V14.5953H223.211V32.8394Z" fill="#47304D"/>
<path fill-rule="evenodd" clip-rule="evenodd" d="M248.019 19.6774L245.675 25.6719H250.363L248.019 19.6774ZM253.163 32.8393L251.86 29.5162H244.177L242.875 32.8393H238.056L245.675 14.53H250.298L257.916 32.8393H253.163Z" fill="#47304D"/>
<path d="M24.4826 -3.05176e-05C11.3296 -3.05176e-05 0.585846 10.751 0.585846 23.9128C0.585846 37.0746 11.3296 47.8256 24.4826 47.8256C37.6356 47.8256 48.4445 37.1398 48.4445 23.9128C48.4445 10.6858 37.7007 -3.05176e-05 24.4826 -3.05176e-05ZM24.4826 44.8284C12.9575 44.8284 3.6462 35.4457 3.6462 23.9779C3.6462 12.5102 13.0226 3.12753 24.4826 3.12753C35.9427 3.12753 45.3191 12.5102 45.3191 23.9779C45.3191 35.4457 36.0078 44.8284 24.4826 44.8284Z" fill="#47304D"/>
<path d="M24.483 6.71118C14.9763 6.71118 7.29291 14.3998 7.29291 23.9128C7.29291 29.386 9.89746 34.338 13.9345 37.4655C14.3903 36.5533 14.9763 35.6411 15.5624 34.8592C12.3718 32.2529 10.3533 28.3435 10.3533 23.9128C10.3533 16.0939 16.6693 9.77359 24.483 9.77359C32.2966 9.77359 38.6127 16.0939 38.6127 23.9128C38.6127 28.2783 36.5941 32.2529 33.4687 34.8592C34.1198 35.6411 34.6407 36.4882 35.0965 37.4655C39.0685 34.338 41.673 29.4512 41.673 23.9128C41.7381 14.4649 33.9896 6.71118 24.483 6.71118Z" fill="#47304D"/>
<path d="M24.4833 13.4874C18.7533 13.4874 14.0651 18.1788 14.0651 23.9126C14.0651 27.366 15.6929 30.3632 18.2323 32.2528C19.2742 31.5361 20.3811 31.0148 21.5532 30.6239C18.9486 29.451 17.1254 26.9099 17.1254 23.9126C17.1254 19.8729 20.4462 16.5498 24.4833 16.5498C28.5203 16.5498 31.8411 19.8729 31.8411 23.9126C31.8411 26.9099 30.018 29.5162 27.4134 30.6239C28.5855 30.9496 29.6924 31.5361 30.7342 32.2528C33.2736 30.3632 34.9015 27.3008 34.9015 23.9126C34.9015 18.1788 30.2784 13.5526 24.4833 13.4874Z" fill="#47304D"/>
</g>
<defs>
<clipPath id="clip0_16_1879">
<rect width="258.706" height="47.8964" fill="white"/>
</clipPath>
</defs>
</svg>
