<svg width="189" height="64" viewBox="0 0 189 64" fill="none" xmlns="http://www.w3.org/2000/svg">
<path d="M16.7676 32.2146C16.7349 32.2632 16.6761 32.349 16.6033 32.4554C13.9123 36.3668 10.084 40.2083 10.2874 41.5724C10.2948 41.6219 10.3378 41.8505 10.4553 42.1313C11.1243 43.725 13.0315 44.1076 13.4589 44.1934C13.8536 44.2727 14.099 44.2336 14.3033 44.1309C14.4545 44.0553 14.5907 43.9359 14.7064 43.7642C14.7269 43.7334 14.8062 43.6401 14.8818 43.5114C15.1972 42.9711 16.539 40.0375 16.5996 38.2367C16.6034 38.1257 16.6024 38.0239 16.6024 38.0239C16.4961 37.5341 16.4242 37.0396 16.3794 36.5413C16.2936 35.5952 16.3271 34.6537 16.469 33.715C16.5446 33.2102 16.6556 32.7129 16.7666 32.2165L16.7676 32.2146Z" fill="#469C57"/>
<path d="M13.1584 44.5293C11.8913 44.2261 10.7987 43.6719 10.1474 42.4869C10.1054 42.4094 10.0653 42.4085 10.0075 42.4654C9.90575 42.5662 9.83578 42.6772 9.80778 42.8013C9.80498 42.8153 9.78259 42.9319 9.80592 43.0616C9.97853 44.0059 10.6606 44.5676 10.6606 44.5676C10.6606 44.5676 11.3464 45.133 12.8403 45.0892C12.9047 45.0873 12.9896 45.0771 13.0679 45.0248C13.1706 44.9567 13.2144 44.8569 13.2583 44.7038C13.2928 44.5807 13.276 44.5564 13.1584 44.5284V44.5293Z" fill="#469C57"/>
<path d="M29.6039 46.0101C28.3993 45.2637 27.1023 45.0304 25.7129 45.3495C25.0253 45.5081 24.3805 45.7685 23.8636 46.263C23.4941 46.6166 23.5137 46.9124 23.9093 47.2408C24.1388 47.4312 24.3917 47.5898 24.6427 47.7503C25.4368 48.2607 26.284 48.6059 27.2143 48.5854C27.4401 48.5957 27.6267 48.5798 27.8114 48.5509C28.7184 48.4091 29.5022 48.0116 30.1824 47.4153C30.4632 47.169 30.4688 46.9143 30.2561 46.6092C30.0835 46.3619 29.8605 46.1678 29.6039 46.0092V46.0101Z" fill="#469C57"/>
<path d="M39.6848 45.9318C38.3776 45.2077 37.0078 45.0733 35.5849 45.5352C34.9308 45.747 34.3364 46.0699 33.8587 46.5709C33.4696 46.9796 33.5116 47.3081 33.9818 47.6206C34.2832 47.8212 34.6098 47.9752 34.9345 48.1329C35.5756 48.4436 36.2427 48.6479 36.9724 48.6311C37.3241 48.6442 37.6759 48.5976 38.0221 48.5071C38.8926 48.2785 39.612 47.8063 40.2185 47.1625C40.435 46.9329 40.4471 46.7099 40.2773 46.4571C40.1271 46.2331 39.9218 46.0633 39.6839 45.9318H39.6848Z" fill="#469C57"/>
<path d="M17.9899 20.8694C18.0254 20.9039 18.0608 20.9394 18.0944 20.9748C18.2866 21.1792 18.2894 21.1838 18.5134 21.0187C19.1031 20.582 19.6312 20.0744 20.163 19.5733C20.6184 19.1441 21.0644 18.7047 21.4665 18.2241C21.5216 18.1588 21.5841 18.0963 21.6037 18.0188C21.6037 17.9591 21.5701 17.9311 21.5393 17.9003C21.461 17.821 21.3807 17.7436 21.3014 17.6652C21.0886 17.4543 21.0821 17.4469 20.8498 17.6325C19.8103 18.463 18.8502 19.3765 17.9619 20.3627C17.7342 20.6156 17.7436 20.623 17.9899 20.8684V20.8694Z" fill="#469C57"/>
<path d="M17.9031 27.9542C18.4023 28.8593 19.1749 29.4742 20.0912 29.9305C21.3145 30.5398 22.6338 30.8318 23.9756 31.038C25.7419 31.3095 27.5259 31.3963 29.31 31.4383C30.2654 31.4616 31.2218 31.442 32.1773 31.442C34.0453 31.4616 35.9115 31.4476 37.7757 31.3096C38.8525 31.2302 39.9255 31.1201 40.9874 30.9251C42.15 30.7114 43.2865 30.4129 44.3455 29.8717C46.1575 28.9451 47.0832 27.4895 47.0552 25.4676C47.0365 24.0652 46.5979 22.7869 45.8571 21.6009C45.8244 21.5487 45.7843 21.5039 45.7339 21.4647C45.3812 21.1894 45.0434 20.8974 44.7159 20.5941C44.0544 19.9839 43.3994 19.369 42.8162 18.6832C42.7686 18.6272 42.693 18.5675 42.7108 18.4966C42.735 18.3967 42.679 18.3687 42.6175 18.3267C42.2582 18.0814 41.8906 17.8481 41.5099 17.6363C38.9766 16.2273 36.2352 15.5369 33.3474 15.3932C31.0744 15.2793 28.836 15.5098 26.647 16.1527C25.0458 16.623 23.5361 17.2873 22.1412 18.1971C22.0964 18.226 22.0338 18.2437 22.0189 18.3044C21.9844 18.4499 21.879 18.5498 21.7866 18.6561C21.098 19.4464 20.3394 20.1686 19.5565 20.8675C19.3158 21.0821 19.0769 21.3005 18.7998 21.4694C18.7224 21.5169 18.6626 21.5701 18.6151 21.6448C17.7725 22.9697 17.2976 24.3983 17.3722 25.9761C17.4049 26.6712 17.5654 27.3384 17.9059 27.9552L17.9031 27.9542ZM39.5234 24.1435C39.5402 23.3626 39.5682 22.5825 39.8192 21.8304C39.8518 21.7315 39.891 21.6336 39.9358 21.5393C40.2857 20.8041 40.8922 20.6062 41.6135 21.0065C42.4 21.4423 42.8955 22.1244 43.2174 22.9371C43.7773 24.3507 43.3593 26.1879 42.248 27.191C41.8962 27.5082 41.4931 27.7181 40.9893 27.6127C40.6645 27.5455 40.4322 27.3449 40.2437 27.0902C39.8537 26.563 39.6979 25.9509 39.6008 25.3211C39.5402 24.932 39.5113 24.5392 39.5225 24.1445L39.5234 24.1435ZM22.7281 21.3201C22.9875 21.1521 23.2795 21.0532 23.5968 21.0859C24.0549 21.1334 24.3068 21.4395 24.4841 21.8193C24.6791 22.2373 24.7696 22.6842 24.8181 23.1367C24.9021 23.9271 24.9376 24.7183 24.8237 25.5096C24.737 26.116 24.5979 26.7086 24.2602 27.233C23.984 27.6612 23.6201 27.9607 23.0621 27.9029C22.6851 27.8637 22.3791 27.6715 22.115 27.4196C21.4749 26.8103 21.1493 26.0442 21 25.1942C20.9618 24.9758 20.9505 24.7547 20.944 24.528C21.0149 23.1778 21.5561 22.0768 22.7281 21.3191V21.3201Z" fill="#469C57"/>
<path d="M45.9793 20.9916C46.3218 21.2725 46.3274 21.2659 46.6409 20.9562C46.8132 20.7863 46.8175 20.6081 46.6539 20.4215C46.0493 19.731 45.3775 19.104 44.7001 18.4854C44.3978 18.2092 44.0908 17.9386 43.7586 17.6979C43.6933 17.6503 43.6233 17.6111 43.5664 17.5738C43.5002 17.57 43.475 17.6102 43.4442 17.6391C43.3462 17.7333 43.2594 17.8425 43.1502 17.9237C42.9935 18.0412 43.0196 18.1392 43.1334 18.2689C44.0021 19.257 44.9585 20.1565 45.9784 20.9916H45.9793Z" fill="#469C57"/>
<path d="M47.2324 32.2146C47.3435 32.711 47.4545 33.2084 47.5301 33.7132C47.671 34.6518 47.7055 35.5933 47.6197 36.5394C47.574 37.0386 47.503 37.5332 47.3967 38.0221C47.3967 38.0221 47.3967 38.1247 47.3995 38.2348C47.4601 40.0357 48.8019 42.9702 49.1173 43.5095C49.1928 43.6383 49.2721 43.7316 49.2927 43.7624C49.4084 43.934 49.5446 44.0535 49.6958 44.129C49.8992 44.2308 50.1446 44.2709 50.5402 44.1916C50.9685 44.1057 52.8757 43.7232 53.5438 42.1295C53.6623 41.8477 53.7043 41.6191 53.7117 41.5706C53.9151 40.2073 50.0867 36.365 47.3957 32.4535C47.3229 32.3481 47.2651 32.2622 47.2315 32.2128L47.2324 32.2146Z" fill="#469C57"/>
<path d="M50.8416 44.5294C50.724 44.5573 50.7072 44.5816 50.7417 44.7048C50.7847 44.8578 50.8295 44.9576 50.9321 45.0258C51.0105 45.078 51.0954 45.0883 51.1598 45.0901C52.6536 45.133 53.3394 44.5685 53.3394 44.5685C53.3394 44.5685 54.0206 44.0068 54.1941 43.0626C54.2174 42.9329 54.196 42.8153 54.1922 42.8022C54.1633 42.6781 54.0943 42.5671 53.9926 42.4663C53.9347 42.4094 53.8955 42.4113 53.8526 42.4878C53.2013 43.6719 52.1087 44.227 50.8416 44.5303V44.5294Z" fill="#469C57"/>
<path d="M46.3973 30.801C46.2854 30.4231 46.1892 30.0415 46.0185 29.6832C45.9532 29.5461 45.8795 29.5218 45.7666 29.6356C45.6611 29.7411 45.5548 29.8456 45.44 29.9398C44.5993 30.6312 43.6177 31.0455 42.5773 31.3422C40.9314 31.8115 39.2407 31.9935 37.5397 32.1129C36.3621 32.195 35.1827 32.2342 34.0024 32.251C32.3033 32.2743 30.6041 32.2538 28.9059 32.2016C27.5324 32.1596 26.1617 32.0915 24.7976 31.9282C23.7376 31.8013 22.6879 31.6231 21.6653 31.3124C20.4196 30.9335 19.2626 30.4063 18.3958 29.3977C18.2848 29.2689 18.2101 29.2885 18.1373 29.4527C18.002 29.7578 17.8956 30.0723 17.8023 30.3914C17.5196 31.3599 17.2266 32.3266 17.1035 33.3306C16.9551 34.5436 16.9663 35.7631 17.0615 36.978C17.1707 38.3748 17.5569 39.7081 18.1037 40.9976C18.7802 42.5923 19.7263 44.0152 20.9114 45.287C21.3807 45.7899 21.8416 46.3097 22.5825 46.43C22.6497 46.4412 22.715 46.4655 22.7812 46.4832C23.0742 46.5653 23.0714 46.5634 23.1983 46.3022C23.2412 46.2145 23.2972 46.1305 23.3597 46.0549C23.5575 45.8114 23.8067 45.6238 24.0763 45.4671C25.4377 44.6786 26.8849 44.5415 28.3909 44.9595C29.1756 45.1769 29.8996 45.5193 30.4688 46.1156C30.7189 46.3768 30.9027 46.6773 30.8663 47.057C30.8532 47.1942 30.9027 47.2213 31.0305 47.2213C31.6305 47.2185 32.2305 47.2175 32.8295 47.2315C33.0264 47.2362 33.1458 47.2203 33.1253 46.9777C33.1159 46.8611 33.185 46.7417 33.241 46.6306C33.3996 46.3199 33.6422 46.0792 33.9193 45.8776C35.1547 44.98 36.5366 44.6367 38.0556 44.869C38.8096 44.9847 39.5224 45.2254 40.1485 45.6677C40.4499 45.8814 40.7233 46.1305 40.8278 46.5009C40.8623 46.6232 40.9109 46.6456 41.0247 46.6101C41.2925 46.5271 41.5612 46.4459 41.8327 46.3759C42.0697 46.3143 42.261 46.1884 42.4355 46.0232C43.1465 45.3542 43.8006 44.6348 44.366 43.8426C46.179 41.3037 47.1279 38.4923 47.1037 35.3759C47.1009 34.8282 47.0981 34.2805 47.0374 33.7346C46.9264 32.7353 46.6819 31.764 46.3973 30.801ZM39.1781 38.9076C38.8348 38.8992 38.4914 38.901 38.149 38.8861C37.9978 38.8796 37.9129 38.9104 37.9073 39.0811C37.8877 39.6475 37.7571 40.2008 37.6899 40.7616C37.6675 40.9464 37.4697 41.1031 37.2429 41.1199C36.6831 41.1619 36.1233 41.2001 35.5625 41.2328C34.4913 41.2953 33.4201 41.3728 32.3471 41.4035C31.7126 41.4222 31.0744 41.369 30.439 41.3392C29.8903 41.314 29.3426 41.2776 28.7949 41.2431C28.222 41.2067 27.6491 41.1684 27.0771 41.1274C26.8587 41.1115 26.758 41.0163 26.6973 40.7831C26.5658 40.2764 26.4762 39.7623 26.3997 39.2454C26.3605 38.9822 26.3586 38.9673 26.117 39.0195C25.9378 39.0587 25.866 38.9981 25.8482 38.8115C25.8118 38.4205 25.8007 38.4205 26.2065 38.386C26.6171 38.3515 27.0276 38.3197 27.4373 38.2815C27.5576 38.2703 27.5996 38.3058 27.6108 38.4289C27.6481 38.8721 27.6528 38.8712 27.2208 38.9244C26.9931 38.9524 26.9912 38.9524 27.0314 39.1866C27.0986 39.5738 27.1695 39.961 27.2376 40.3482C27.2572 40.4621 27.2964 40.533 27.4373 40.5405C28.765 40.6095 30.0919 40.6963 31.4196 40.7551C32.4684 40.8017 33.5163 40.7308 34.5632 40.6599C35.2723 40.6114 35.9833 40.5759 36.6934 40.5339C36.768 40.5292 36.8427 40.5171 36.9173 40.5181C37.0386 40.5181 37.0946 40.463 37.1114 40.3454C37.1748 39.92 37.2448 39.4954 37.2803 39.0662C37.2924 38.9197 37.2439 38.873 37.0936 38.8768C36.7381 38.8861 36.3817 38.8758 36.0253 38.8824C35.8937 38.8842 35.8517 38.8376 35.8545 38.7107C35.8676 38.1593 35.7901 38.26 36.3005 38.2544C36.7316 38.2498 37.1618 38.2535 37.5928 38.2535V38.2796C38.1051 38.2796 38.6174 38.2824 39.1296 38.2777C39.278 38.2759 39.3545 38.3095 39.3218 38.4774C39.305 38.5661 39.32 38.6613 39.3284 38.7527C39.3377 38.8628 39.2948 38.9122 39.18 38.9094L39.1781 38.9076ZM38.9346 37.7347C38.0165 37.7347 37.0974 37.7319 36.1792 37.7375C36.0169 37.7384 35.946 37.7095 35.9525 37.5266C35.9674 37.1086 35.9581 37.1086 36.3827 37.1086C36.6766 37.1086 36.9696 37.103 37.2635 37.1105C37.396 37.1142 37.437 37.0666 37.4324 36.9388C37.423 36.7242 37.423 36.5077 37.4324 36.2931C37.4389 36.1494 37.3941 36.1018 37.2429 36.0999C36.5123 36.0934 35.7818 36.0766 35.0512 36.0617C34.8198 36.057 34.5893 36.0412 34.3579 36.0402C34.2384 36.0402 34.1852 36.0029 34.1955 35.8798C34.2002 35.8322 34.23 35.7547 34.1498 35.7417C34.0733 35.7295 34.0406 35.8004 34.0266 35.8583C33.98 36.0617 33.9361 36.266 33.9025 36.4722C33.8848 36.5786 33.854 36.6234 33.7327 36.5935C33.6441 36.5721 33.5368 36.5581 33.4556 36.588C33.2531 36.6617 33.2242 36.5422 33.1953 36.3985C33.1598 36.2194 33.1365 36.0365 33.0534 35.8256C32.9741 36.0729 32.9032 36.2819 32.8398 36.4928C32.8062 36.6057 32.7595 36.6654 32.6298 36.6066C32.53 36.5609 32.418 36.5656 32.3172 36.5982C32.1969 36.6374 32.1586 36.5842 32.1362 36.4844C32.0905 36.2819 32.0429 36.0804 31.9851 35.8359C31.8712 36.0757 31.8209 36.2875 31.7602 36.4956C31.7275 36.6057 31.6799 36.6505 31.5586 36.6038C31.4588 36.5656 31.3469 36.5637 31.2461 36.6038C31.1201 36.6542 31.079 36.5954 31.0492 36.4891C30.9941 36.2903 30.9316 36.0934 30.8728 35.8956C30.8589 35.8984 30.8439 35.9012 30.8299 35.9031C30.7842 36.0944 30.7366 36.2847 30.6927 36.476C30.6704 36.573 30.634 36.6281 30.5136 36.5954C30.4063 36.5656 30.2897 36.5637 30.1814 36.6066C30.0667 36.6523 30.0247 36.5982 29.9976 36.4984C29.9482 36.3211 29.8922 36.1447 29.8343 35.9693C29.8091 35.8928 29.7746 35.8023 29.6748 35.8182C29.5731 35.834 29.6235 35.9301 29.6244 35.987C29.6263 36.1466 29.5003 36.1233 29.4126 36.1307C29.0272 36.1643 28.6409 36.1867 28.2556 36.2147C27.8142 36.2465 27.3729 36.2856 26.9306 36.3118C26.7953 36.3202 26.7627 36.3799 26.772 36.4993C26.7897 36.726 26.8056 36.9528 26.8084 37.1805C26.8102 37.3046 26.8597 37.341 26.9782 37.3316C27.4447 37.2962 27.9131 37.2775 28.3787 37.2308C28.8761 37.1814 28.8714 37.1711 28.933 37.6479C28.9488 37.7758 28.9134 37.8299 28.7809 37.8383C28.2453 37.8719 27.7097 37.9101 27.1751 37.9474C26.3222 38.0062 25.4694 38.0641 24.6166 38.1257C24.5055 38.1341 24.4608 38.1005 24.4514 37.9876C24.4113 37.5014 24.4076 37.4958 24.8984 37.4483C25.2585 37.4137 25.6206 37.3895 25.9807 37.3736C26.1123 37.3671 26.1533 37.3204 26.1459 37.1954C26.1272 36.8949 26.1151 36.5935 26.1067 36.2931C26.1039 36.2017 26.116 36.1084 26.1319 36.0178C26.1664 35.8191 26.2831 35.7099 26.4818 35.695C27.3346 35.6316 28.1874 35.569 29.0393 35.5093C29.3165 35.4897 29.3221 35.4907 29.3678 35.2163C29.3883 35.095 29.4172 34.9747 29.434 34.8534C29.4508 34.7302 29.5087 34.6733 29.6356 34.7125C29.7429 34.7461 29.8511 34.7339 29.9491 34.6957C30.0909 34.6406 30.1413 34.7003 30.173 34.8235C30.2029 34.9392 30.244 35.053 30.3186 35.1678C30.3615 34.9924 30.41 34.8188 30.4436 34.6425C30.4651 34.5324 30.522 34.4951 30.6265 34.5175C30.7506 34.5445 30.8766 34.5473 30.9969 34.5091C31.1173 34.4717 31.1546 34.5343 31.1826 34.6257C31.2526 34.8618 31.3226 35.0969 31.4084 35.388C31.4971 35.109 31.5764 34.8804 31.6398 34.649C31.6744 34.524 31.7238 34.468 31.8628 34.5147C31.9627 34.5482 32.07 34.5632 32.1763 34.5249C32.3172 34.4745 32.3667 34.5501 32.3919 34.6714C32.4302 34.8506 32.474 35.0279 32.5235 35.2462C32.6345 35.0353 32.6765 34.844 32.7297 34.6583C32.7698 34.5165 32.8379 34.4605 32.9853 34.5184C33.0357 34.538 33.1001 34.5538 33.1495 34.5408C33.3725 34.4801 33.5274 34.5109 33.5153 34.8188C33.5769 34.7078 33.6478 34.6957 33.729 34.7041C33.854 34.7171 33.9809 34.7255 34.1013 34.6882C34.2198 34.6509 34.2599 34.7087 34.286 34.8049C34.3224 34.9355 34.3747 35.0624 34.3999 35.1949C34.4307 35.3563 34.5277 35.4039 34.6779 35.402C34.8841 35.3983 35.0903 35.4001 35.2965 35.4048C36.1764 35.4263 37.0573 35.4524 37.9371 35.4711C38.065 35.4739 38.1098 35.5121 38.107 35.6446C38.0967 36.0626 38.106 36.4816 38.0958 36.8996C38.092 37.0414 38.1443 37.0806 38.2796 37.0778C38.5987 37.0713 38.9169 37.0797 39.235 37.0741C39.3657 37.0722 39.4077 37.1189 39.4095 37.2467C39.4189 37.7375 39.4226 37.7375 38.9318 37.7375L38.9346 37.7347Z" fill="#469C57"/>
<path d="M39.32 38.4756C39.3526 38.3076 39.2771 38.274 39.1278 38.2759C38.6155 38.2815 38.1033 38.2777 37.591 38.2777V38.2516C37.1599 38.2516 36.7298 38.2479 36.2987 38.2525C35.7874 38.2581 35.8657 38.1564 35.8527 38.7088C35.8499 38.8367 35.8928 38.8833 36.0234 38.8805C36.3799 38.874 36.7363 38.8852 37.0918 38.8749C37.242 38.8712 37.2905 38.9178 37.2784 39.0643C37.243 39.4935 37.173 39.9181 37.1095 40.3436C37.0927 40.4611 37.0368 40.5171 36.9155 40.5162C36.8408 40.5162 36.7661 40.5283 36.6915 40.532C35.9814 40.574 35.2704 40.6095 34.5613 40.658C33.5144 40.7289 32.4665 40.7998 31.4178 40.7532C30.09 40.6944 28.7632 40.6076 27.4354 40.5386C27.2945 40.5311 27.2553 40.4602 27.2357 40.3464C27.1686 39.9591 27.0967 39.5719 27.0295 39.1847C26.9894 38.9505 26.9913 38.9505 27.2189 38.9225C27.6519 38.8693 27.6463 38.8702 27.609 38.427C27.5987 38.3039 27.5558 38.2684 27.4354 38.2796C27.0258 38.3179 26.6152 38.3496 26.2047 38.3841C25.7988 38.4186 25.8091 38.4177 25.8464 38.8096C25.8641 38.9962 25.936 39.0568 26.1151 39.0177C26.3568 38.9654 26.3587 38.9804 26.3978 39.2435C26.4744 39.7604 26.5639 40.2755 26.6955 40.7812C26.7561 41.0135 26.8579 41.1096 27.0753 41.1255C27.6472 41.1675 28.2201 41.2048 28.793 41.2412C29.3417 41.2757 29.8894 41.3121 30.4371 41.3373C31.0725 41.3671 31.7108 41.4203 32.3453 41.4017C33.4183 41.3709 34.4895 41.2934 35.5606 41.2309C36.1214 41.1982 36.6813 41.16 37.2411 41.118C37.4678 41.1012 37.6656 40.9445 37.688 40.7597C37.7552 40.1989 37.8858 39.6456 37.9054 39.0793C37.911 38.9094 37.9959 38.8786 38.1471 38.8842C38.4895 38.8982 38.8339 38.8973 39.1763 38.9057C39.2911 38.9085 39.3349 38.859 39.3246 38.7489C39.3162 38.6575 39.3004 38.5623 39.3181 38.4737L39.32 38.4756Z" fill="white"/>
<path d="M40.2446 27.0902C40.4331 27.3449 40.6655 27.5455 40.9902 27.6127C41.494 27.7181 41.8971 27.5082 42.2489 27.191C43.3602 26.1879 43.7782 24.3507 43.2184 22.9371C42.8965 22.1253 42.4019 21.4432 41.6144 21.0065C40.8922 20.6063 40.2866 20.8041 39.9367 21.5393C39.8919 21.6336 39.8527 21.7315 39.8201 21.8305C39.5682 22.5825 39.5411 23.3626 39.5243 24.1435C39.5131 24.5382 39.5421 24.9311 39.6027 25.3202C39.6997 25.9509 39.8556 26.563 40.2456 27.0893L40.2446 27.0902Z" fill="white"/>
<path d="M39.2379 37.0713C38.9197 37.0778 38.6006 37.0685 38.2824 37.075C38.1471 37.0778 38.0949 37.0386 38.0986 36.8968C38.1079 36.4788 38.0986 36.0598 38.1098 35.6418C38.1126 35.5093 38.0678 35.472 37.94 35.4683C37.0591 35.4496 36.1792 35.4235 35.2994 35.402C35.0932 35.3973 34.887 35.3955 34.6807 35.3992C34.5296 35.4011 34.4325 35.3535 34.4027 35.1921C34.3775 35.0596 34.3262 34.9327 34.2888 34.8021C34.2618 34.7059 34.2226 34.649 34.1041 34.6854C33.9837 34.7227 33.8568 34.7143 33.7318 34.7013C33.6497 34.6929 33.5797 34.705 33.5181 34.816C33.5302 34.5072 33.3754 34.4773 33.1524 34.538C33.1029 34.551 33.0385 34.5352 32.9881 34.5156C32.8398 34.4577 32.7726 34.5128 32.7325 34.6556C32.6802 34.8412 32.6373 35.0325 32.5263 35.2434C32.4759 35.0251 32.432 34.8478 32.3947 34.6686C32.3695 34.5483 32.3191 34.4717 32.1792 34.5221C32.0728 34.5604 31.9655 34.5455 31.8656 34.5119C31.7266 34.4662 31.6772 34.5212 31.6427 34.6462C31.5783 34.8786 31.4999 35.1062 31.4112 35.3852C31.3254 35.0941 31.2545 34.859 31.1854 34.6229C31.1584 34.5305 31.1201 34.469 30.9998 34.5063C30.8803 34.5436 30.7544 34.5408 30.6293 34.5147C30.5239 34.4923 30.4679 34.5296 30.4464 34.6397C30.4119 34.816 30.3643 34.9905 30.3214 35.165C30.2468 35.0503 30.2057 34.9364 30.1759 34.8207C30.1441 34.6985 30.0937 34.6378 29.9519 34.6929C29.8549 34.7302 29.7457 34.7433 29.6384 34.7097C29.5106 34.6705 29.4536 34.7274 29.4369 34.8506C29.4201 34.9719 29.3911 35.0922 29.3706 35.2135C29.324 35.4879 29.3193 35.4869 29.0422 35.5065C28.1893 35.5653 27.3365 35.6278 26.4846 35.6922C26.2859 35.7071 26.1692 35.8163 26.1347 36.015C26.1188 36.1056 26.1067 36.1989 26.1095 36.2903C26.1179 36.5917 26.1291 36.8921 26.1487 37.1926C26.1562 37.3186 26.116 37.3643 25.9835 37.3708C25.6224 37.3876 25.2614 37.4109 24.9012 37.4455C24.4104 37.493 24.4141 37.4977 24.4542 37.9848C24.4636 38.0986 24.5084 38.1313 24.6194 38.1229C25.4722 38.0613 26.3251 38.0034 27.1779 37.9446C27.7135 37.9073 28.249 37.8691 28.7837 37.8355C28.9162 37.8271 28.9517 37.773 28.9358 37.6451C28.8742 37.1683 28.8789 37.1786 28.3816 37.228C27.916 37.2738 27.4476 37.2934 26.981 37.3288C26.8625 37.3382 26.8131 37.3018 26.8112 37.1777C26.8084 36.95 26.7925 36.7232 26.7748 36.4965C26.7655 36.3771 26.7981 36.3164 26.9334 36.309C27.3757 36.2828 27.817 36.2446 28.2584 36.2119C28.6447 36.1839 29.031 36.1615 29.4154 36.1279C29.5031 36.1205 29.6291 36.1438 29.6272 35.9842C29.6272 35.9264 29.5759 35.8312 29.6776 35.8154C29.7774 35.7995 29.812 35.89 29.8371 35.9665C29.8941 36.1419 29.95 36.3183 30.0004 36.4956C30.0284 36.5954 30.0695 36.6505 30.1842 36.6038C30.2915 36.5609 30.4082 36.5628 30.5164 36.5926C30.6377 36.6262 30.6732 36.5712 30.6956 36.4732C30.7394 36.2819 30.787 36.0916 30.8327 35.9003C30.8467 35.8975 30.8617 35.8947 30.8757 35.8928C30.9354 36.0906 30.997 36.2875 31.052 36.4863C31.0819 36.5926 31.1229 36.6514 31.2489 36.601C31.3497 36.56 31.4607 36.5618 31.5615 36.601C31.6818 36.6477 31.7304 36.6038 31.763 36.4928C31.8237 36.2856 31.8741 36.0729 31.9879 35.8331C32.0448 36.0776 32.0933 36.28 32.139 36.4816C32.1614 36.5814 32.1997 36.6346 32.3201 36.5954C32.4208 36.5628 32.5328 36.5581 32.6326 36.6038C32.7623 36.6626 32.809 36.6038 32.8426 36.49C32.906 36.2791 32.9769 36.0701 33.0562 35.8228C33.1393 36.0337 33.1626 36.2166 33.1981 36.3957C33.227 36.5394 33.255 36.6589 33.4584 36.5852C33.5405 36.5562 33.6478 36.5693 33.7355 36.5907C33.8568 36.6206 33.8886 36.5758 33.9054 36.4695C33.9399 36.2633 33.9828 36.0589 34.0294 35.8555C34.0425 35.7967 34.0761 35.7267 34.1526 35.7389C34.2329 35.751 34.203 35.8294 34.1983 35.877C34.1871 36.0011 34.2403 36.0374 34.3607 36.0374C34.5921 36.0374 34.8226 36.0533 35.054 36.0589C35.7846 36.0738 36.5152 36.0906 37.2458 36.0972C37.396 36.099 37.4417 36.1466 37.4352 36.2903C37.4249 36.5049 37.4258 36.7214 37.4352 36.936C37.4408 37.0638 37.3988 37.1105 37.2663 37.1077C36.9724 37.1002 36.6794 37.1058 36.3855 37.1058C35.9609 37.1058 35.9712 37.1058 35.9553 37.5238C35.9488 37.7067 36.0197 37.7366 36.182 37.7347C37.1002 37.7291 38.0193 37.7319 38.9374 37.7319C39.4282 37.7319 39.4245 37.7319 39.4152 37.2411C39.4133 37.1133 39.3713 37.0666 39.2407 37.0685L39.2379 37.0713Z" fill="white"/>
<path d="M22.115 27.4205C22.3791 27.6724 22.6851 27.8647 23.0621 27.9038C23.621 27.9617 23.9849 27.6622 24.2602 27.2339C24.5979 26.7095 24.737 26.117 24.8237 25.5105C24.9376 24.7192 24.9012 23.9271 24.8181 23.1377C24.7705 22.6842 24.68 22.2373 24.4841 21.8202C24.3068 21.4404 24.0549 21.1353 23.5968 21.0868C23.2795 21.0541 22.9874 21.153 22.7281 21.321C21.5552 22.0777 21.0149 23.1787 20.944 24.5298C20.9505 24.7566 20.9617 24.9768 21 25.1961C21.1493 26.0461 21.4749 26.8131 22.115 27.4214V27.4205Z" fill="white"/>
<path d="M32 1.81134C15.3269 1.81134 1.81134 15.3269 1.81134 32C1.81134 48.6731 15.3269 62.1887 32 62.1887C48.6731 62.1887 62.1887 48.6731 62.1887 32C62.1887 15.3269 48.6731 1.81134 32 1.81134ZM43.1502 17.9246C43.2585 17.8434 43.3453 17.7343 43.4442 17.64C43.474 17.6111 43.5001 17.571 43.5664 17.5747C43.6233 17.6111 43.6942 17.6512 43.7586 17.6988C44.0908 17.9395 44.3987 18.2111 44.7001 18.4863C45.3775 19.1059 46.0493 19.732 46.6539 20.4225C46.8169 20.6091 46.8126 20.7873 46.6409 20.9571C46.3274 21.2669 46.3218 21.2725 45.9793 20.9925C44.9595 20.1574 44.0031 19.258 43.1344 18.2698C43.0205 18.1401 42.9935 18.0422 43.1512 17.9246H43.1502ZM17.9619 20.3646C18.8493 19.3783 19.8094 18.4649 20.8498 17.6344C21.0821 17.4487 21.0886 17.4553 21.3014 17.6671C21.3807 17.7455 21.46 17.8238 21.5393 17.9022C21.5701 17.933 21.6046 17.961 21.6037 18.0207C21.5841 18.0981 21.5216 18.1607 21.4665 18.226C21.0644 18.7056 20.6193 19.146 20.163 19.5752C19.6312 20.0763 19.1031 20.5829 18.5134 21.0205C18.2904 21.1857 18.2876 21.182 18.0944 20.9767C18.0608 20.9403 18.0254 20.9058 17.9899 20.8712C17.7436 20.6258 17.7342 20.6184 17.9619 20.3655V20.3646ZM18.6123 21.6448C18.6598 21.5701 18.7196 21.5169 18.797 21.4694C19.0741 21.2995 19.313 21.0821 19.5537 20.8675C20.3366 20.1686 21.0952 19.4464 21.7838 18.6561C21.8761 18.5498 21.9806 18.4499 22.0161 18.3044C22.031 18.2437 22.0926 18.226 22.1383 18.1971C23.5342 17.2873 25.043 16.6239 26.6442 16.1527C28.8332 15.5098 31.0716 15.2793 33.3446 15.3932C36.2334 15.5378 38.9738 16.2283 41.5071 17.6363C41.8878 17.8481 42.2554 18.0814 42.6146 18.3267C42.6762 18.3687 42.7322 18.3977 42.708 18.4966C42.6912 18.5675 42.7658 18.6281 42.8134 18.6832C43.3966 19.369 44.0516 19.9848 44.7131 20.5941C45.0416 20.8974 45.3784 21.1904 45.7311 21.4647C45.7815 21.5039 45.8216 21.5487 45.8543 21.6009C46.5952 22.7869 47.0337 24.0661 47.0524 25.4676C47.0803 27.4895 46.1547 28.9451 44.3427 29.8717C43.2846 30.4129 42.1472 30.7114 40.9846 30.9251C39.9227 31.1201 38.8506 31.2302 37.7729 31.3096C35.9087 31.4467 34.0425 31.4616 32.1745 31.442C31.219 31.442 30.2626 31.4607 29.3072 31.4383C27.5231 31.3954 25.74 31.3086 23.9728 31.038C22.631 30.8318 21.3126 30.5398 20.0884 29.9305C19.1721 29.4742 18.4005 28.8593 17.9003 27.9542C17.5598 27.3375 17.3993 26.6703 17.3666 25.9752C17.292 24.3964 17.7669 22.9679 18.6095 21.6438L18.6123 21.6448ZM13.2583 44.7066C13.2154 44.8596 13.1706 44.9595 13.0679 45.0276C12.9896 45.0799 12.9047 45.0901 12.8403 45.092C11.3464 45.1349 10.6606 44.5704 10.6606 44.5704C10.6606 44.5704 9.97946 44.0087 9.80591 43.0644C9.78259 42.9347 9.80405 42.8172 9.80778 42.8041C9.83671 42.68 9.90574 42.5689 10.0074 42.4682C10.0653 42.4113 10.1045 42.4131 10.1474 42.4897C10.7987 43.6737 11.8913 44.2289 13.1584 44.5321C13.276 44.5601 13.2928 44.5844 13.2583 44.7076V44.7066ZM16.3803 36.5404C16.4261 37.0396 16.497 37.5341 16.6033 38.023C16.6033 38.023 16.6034 38.1257 16.6006 38.2358C16.5399 40.0366 15.1981 42.9711 14.8828 43.5104C14.8072 43.6392 14.7279 43.7325 14.7074 43.7633C14.5917 43.935 14.4554 44.0544 14.3043 44.13C14.1008 44.2317 13.8554 44.2718 13.4598 44.1925C13.0315 44.1067 11.1243 43.7241 10.4563 42.1304C10.3378 41.8486 10.2958 41.62 10.2883 41.5715C10.0849 40.2083 13.9133 36.3659 16.6043 32.4544C16.6771 32.349 16.7349 32.2631 16.7685 32.2137C16.6575 32.7101 16.5464 33.2074 16.4709 33.7122C16.33 34.6509 16.2954 35.5924 16.3813 36.5385L16.3803 36.5404ZM30.1805 47.4172C29.5012 48.0134 28.7165 48.4109 27.8096 48.5528C27.6248 48.5817 27.4382 48.5975 27.2124 48.5873C26.2821 48.6087 25.4349 48.2626 24.6409 47.7522C24.3899 47.5908 24.137 47.4331 23.9074 47.2427C23.5128 46.9143 23.4932 46.6185 23.8617 46.2649C24.3787 45.7703 25.0234 45.5091 25.7111 45.3514C27.0995 45.0323 28.3965 45.2655 29.602 46.012C29.8586 46.1706 30.0816 46.3647 30.2542 46.612C30.467 46.9171 30.4604 47.1718 30.1805 47.4181V47.4172ZM40.2176 47.1643C39.6111 47.8082 38.8917 48.2812 38.0211 48.5089C37.6759 48.5994 37.3241 48.6461 36.9714 48.633C36.2418 48.6498 35.5737 48.4455 34.9336 48.1348C34.6089 47.9771 34.2823 47.8231 33.9809 47.6225C33.5116 47.3099 33.4687 46.9814 33.8578 46.5728C34.3355 46.0708 34.9299 45.7489 35.584 45.5371C37.0069 45.0752 38.3766 45.2096 39.6839 45.9336C39.9218 46.0652 40.1271 46.235 40.2773 46.4589C40.4471 46.7118 40.435 46.9348 40.2185 47.1643H40.2176ZM44.3642 43.8426C43.7978 44.6348 43.1437 45.3532 42.4336 46.0232C42.2592 46.1874 42.0679 46.3143 41.8309 46.3759C41.5593 46.4459 41.2906 46.5271 41.0228 46.6101C40.909 46.6456 40.8605 46.6241 40.826 46.5009C40.7224 46.1305 40.4481 45.8814 40.1467 45.6677C39.5206 45.2245 38.8077 44.9838 38.0538 44.869C36.5357 44.6367 35.1538 44.9809 33.9175 45.8776C33.6394 46.0792 33.3968 46.3199 33.2391 46.6306C33.1831 46.7417 33.1132 46.8611 33.1234 46.9777C33.1439 47.2194 33.0245 47.2362 32.8276 47.2315C32.2277 47.2175 31.6286 47.2185 31.0287 47.2213C30.9008 47.2213 30.8514 47.1942 30.8645 47.057C30.9008 46.6773 30.717 46.3759 30.467 46.1156C29.8978 45.5193 29.1737 45.1778 28.389 44.9595C26.883 44.5415 25.4358 44.6786 24.0745 45.4671C23.8048 45.6229 23.5557 45.8114 23.3579 46.0549C23.2963 46.1314 23.2394 46.2145 23.1965 46.3022C23.0686 46.5644 23.0724 46.5653 22.7794 46.4832C22.7131 46.4645 22.6478 46.4403 22.5806 46.43C21.8398 46.3106 21.3788 45.7899 20.9095 45.287C19.7245 44.0162 18.7783 42.5923 18.1019 40.9976C17.5551 39.7081 17.1679 38.3748 17.0596 36.978C16.9645 35.7631 16.9542 34.5436 17.1016 33.3306C17.2238 32.3266 17.5168 31.3599 17.8005 30.3914C17.8938 30.0723 18.0011 29.7569 18.1355 29.4527C18.2082 29.2885 18.2829 29.2689 18.3939 29.3977C19.2608 30.4063 20.4178 30.9335 21.6634 31.3124C22.6861 31.6231 23.7358 31.8013 24.7957 31.9282C26.1608 32.0915 27.5315 32.1596 28.9041 32.2016C30.6023 32.2529 32.3014 32.2743 34.0005 32.251C35.1809 32.2342 36.3603 32.195 37.5378 32.1129C39.2388 31.9944 40.9295 31.8115 42.5755 31.3422C43.6149 31.0455 44.5974 30.6312 45.4381 29.9398C45.5529 29.8456 45.6593 29.7411 45.7647 29.6356C45.8776 29.5218 45.9513 29.5461 46.0167 29.6832C46.1874 30.0415 46.2835 30.4231 46.3955 30.801C46.68 31.764 46.9236 32.7353 47.0356 33.7346C47.0962 34.2795 47.099 34.8272 47.1018 35.3759C47.1261 38.4914 46.1771 41.3037 44.3642 43.8426ZM53.9907 42.4663C54.0924 42.5671 54.1624 42.6781 54.1904 42.8022C54.1932 42.8162 54.2156 42.9328 54.1922 43.0625C54.0196 44.0068 53.3375 44.5685 53.3375 44.5685C53.3375 44.5685 52.6517 45.134 51.1579 45.0901C51.0935 45.0883 51.0086 45.078 50.9302 45.0257C50.8276 44.9576 50.7837 44.8578 50.7399 44.7048C50.7053 44.5816 50.7221 44.5573 50.8397 44.5293C52.1068 44.2261 53.1995 43.6719 53.8507 42.4869C53.8927 42.4094 53.9328 42.4085 53.9907 42.4654V42.4663ZM53.7098 41.5724C53.7024 41.6219 53.6595 41.8505 53.5419 42.1313C52.8729 43.725 50.9657 44.1076 50.5383 44.1934C50.1436 44.2727 49.8982 44.2336 49.6939 44.1309C49.5427 44.0553 49.4065 43.9359 49.2908 43.7642C49.2703 43.7334 49.191 43.6401 49.1154 43.5114C48.8 42.9711 47.4582 40.0375 47.3976 38.2367C47.3939 38.1257 47.3948 38.0239 47.3948 38.0239C47.5012 37.5341 47.573 37.0396 47.6178 36.5413C47.7036 35.5952 47.6701 34.6537 47.5282 33.715C47.4527 33.2102 47.3416 32.7129 47.2306 32.2165C47.2632 32.265 47.322 32.3509 47.3948 32.4572C50.0858 36.3687 53.9142 40.2101 53.7108 41.5743L53.7098 41.5724Z" fill="white"/>
<path d="M68.2264 43.1622V22.0128H76.9652C77.1709 22.0128 77.4352 22.0226 77.7583 22.0422C78.0815 22.052 78.3801 22.0813 78.6543 22.1303C79.8782 22.3163 80.8867 22.7227 81.6798 23.3493C82.4827 23.976 83.0751 24.7691 83.4569 25.7286C83.8486 26.6784 84.0444 27.7359 84.0444 28.901C84.0444 30.6243 83.6087 32.1077 82.7373 33.3512C81.8658 34.5849 80.5293 35.3487 78.7277 35.6424L77.2149 35.7746H71.766V43.1622H68.2264ZM80.3726 43.1622L76.2015 34.5556L79.7998 33.7625L84.3822 43.1622H80.3726ZM71.766 32.47H76.8184C77.0142 32.47 77.2345 32.4602 77.4793 32.4406C77.7241 32.4211 77.9493 32.3819 78.1549 32.3231C78.7424 32.1763 79.2026 31.9168 79.5355 31.5447C79.8782 31.1726 80.1181 30.7516 80.2551 30.2816C80.402 29.8116 80.4754 29.3514 80.4754 28.901C80.4754 28.4506 80.402 27.9904 80.2551 27.5205C80.1181 27.0407 79.8782 26.6148 79.5355 26.2427C79.2026 25.8706 78.7424 25.6111 78.1549 25.4643C77.9493 25.4055 77.7241 25.3712 77.4793 25.3615C77.2345 25.3419 77.0142 25.3321 76.8184 25.3321H71.766V32.47Z" fill="white"/>
<path d="M94.6237 43.6028C93.0375 43.6028 91.652 43.2454 90.4673 42.5307C89.2825 41.8159 88.3621 40.8319 87.7061 39.5786C87.0599 38.3155 86.7367 36.8663 86.7367 35.2312C86.7367 33.5666 87.0696 32.1077 87.7355 30.8544C88.4013 29.6011 89.3266 28.622 90.5113 27.917C91.6961 27.212 93.0669 26.8595 94.6237 26.8595C96.2197 26.8595 97.6101 27.2169 98.7948 27.9317C99.9796 28.6465 100.9 29.6354 101.556 30.8985C102.212 32.1518 102.54 33.596 102.54 35.2312C102.54 36.8761 102.207 38.3302 101.541 39.5932C100.885 40.8465 99.9649 41.8306 98.7802 42.5454C97.5954 43.2503 96.2099 43.6028 94.6237 43.6028ZM94.6237 40.2835C96.0337 40.2835 97.0813 39.8136 97.7667 38.8736C98.4521 37.9336 98.7948 36.7195 98.7948 35.2312C98.7948 33.6939 98.4472 32.47 97.7521 31.5594C97.0569 30.639 96.0141 30.1788 94.6237 30.1788C93.674 30.1788 92.8906 30.3942 92.2738 30.8251C91.6667 31.2461 91.2163 31.8385 90.9226 32.6022C90.6288 33.3561 90.4819 34.2325 90.4819 35.2312C90.4819 36.7684 90.8295 37.9972 91.5247 38.9176C92.2297 39.8282 93.2627 40.2835 94.6237 40.2835Z" fill="white"/>
<path d="M113.399 43.6028C111.852 43.6028 110.554 43.2356 109.507 42.5013C108.459 41.7669 107.671 40.7682 107.142 39.5051C106.613 38.2322 106.349 36.8076 106.349 35.2312C106.349 33.6352 106.613 32.2056 107.142 30.9426C107.671 29.6795 108.444 28.6856 109.462 27.9611C110.491 27.2267 111.759 26.8595 113.266 26.8595C114.765 26.8595 116.062 27.2267 117.159 27.9611C118.265 28.6856 119.122 29.6795 119.729 30.9426C120.336 32.1958 120.639 33.6254 120.639 35.2312C120.639 36.8174 120.341 38.242 119.743 39.5051C119.146 40.7682 118.304 41.7669 117.217 42.5013C116.13 43.2356 114.858 43.6028 113.399 43.6028ZM105.747 43.1622V22.0128H109.316V32.0294H108.875V43.1622H105.747ZM112.855 40.4304C113.776 40.4304 114.534 40.2003 115.132 39.7401C115.729 39.2799 116.17 38.6582 116.454 37.8749C116.747 37.0818 116.894 36.2005 116.894 35.2312C116.894 34.2716 116.747 33.4002 116.454 32.6169C116.16 31.8238 115.705 31.1971 115.088 30.7369C114.471 30.2669 113.687 30.0319 112.738 30.0319C111.837 30.0319 111.103 30.2523 110.535 30.6929C109.967 31.1237 109.546 31.7308 109.272 32.5141C109.007 33.2876 108.875 34.1933 108.875 35.2312C108.875 36.2593 109.007 37.165 109.272 37.9483C109.546 38.7316 109.972 39.3436 110.549 39.7842C111.137 40.215 111.905 40.4304 112.855 40.4304Z" fill="white"/>
<path d="M125.36 25.0237L129.384 20.3972H132.351L136.361 25.0237H133.056L130.868 22.4093L128.665 25.0237H125.36ZM130.882 43.6028C129.296 43.6028 127.911 43.2454 126.726 42.5307C125.541 41.8159 124.621 40.8319 123.965 39.5786C123.319 38.3155 122.995 36.8663 122.995 35.2312C122.995 33.5666 123.328 32.1077 123.994 30.8544C124.66 29.6011 125.585 28.622 126.77 27.917C127.955 27.212 129.326 26.8595 130.882 26.8595C132.478 26.8595 133.869 27.2169 135.054 27.9317C136.238 28.6465 137.159 29.6354 137.815 30.8985C138.471 32.1518 138.799 33.596 138.799 35.2312C138.799 36.8761 138.466 38.3302 137.8 39.5932C137.144 40.8465 136.224 41.8306 135.039 42.5454C133.854 43.2503 132.469 43.6028 130.882 43.6028ZM130.882 40.2835C132.292 40.2835 133.34 39.8136 134.025 38.8736C134.711 37.9336 135.054 36.7195 135.054 35.2312C135.054 33.6939 134.706 32.47 134.011 31.5594C133.316 30.639 132.273 30.1788 130.882 30.1788C129.933 30.1788 129.149 30.3942 128.533 30.8251C127.925 31.2461 127.475 31.8385 127.181 32.6022C126.888 33.3561 126.741 34.2325 126.741 35.2312C126.741 36.7684 127.088 37.9972 127.783 38.9176C128.488 39.8282 129.521 40.2835 130.882 40.2835Z" fill="white"/>
<path d="M150.979 43.6028C148.864 43.6028 147.053 43.1426 145.545 42.2222C144.037 41.2921 142.877 39.9996 142.064 38.3448C141.261 36.6901 140.86 34.771 140.86 32.5875C140.86 30.404 141.261 28.4849 142.064 26.8302C142.877 25.1754 144.037 23.8878 145.545 22.9675C147.053 22.0373 148.864 21.5722 150.979 21.5722C153.417 21.5722 155.449 22.1841 157.074 23.4081C158.7 24.6222 159.84 26.2623 160.496 28.3282L156.928 29.3123C156.516 27.9317 155.816 26.8546 154.827 26.0811C153.838 25.2978 152.556 24.9062 150.979 24.9062C149.559 24.9062 148.375 25.2244 147.425 25.8608C146.485 26.4973 145.775 27.3932 145.295 28.5486C144.825 29.6941 144.585 31.0405 144.576 32.5875C144.576 34.1345 144.811 35.4858 145.281 36.6411C145.76 37.7867 146.475 38.6778 147.425 39.3142C148.375 39.9506 149.559 40.2689 150.979 40.2689C152.556 40.2689 153.838 39.8772 154.827 39.0939C155.816 38.3106 156.516 37.2335 156.928 35.8627L160.496 36.8468C159.84 38.9127 158.7 40.5577 157.074 41.7816C155.449 42.9958 153.417 43.6028 150.979 43.6028Z" fill="white"/>
<path d="M164.015 43.1622V22.0128H167.555V43.1622H164.015Z" fill="white"/>
<path d="M182.925 43.1622V35.5249C182.925 35.0256 182.891 34.4723 182.822 33.8653C182.754 33.2582 182.592 32.6756 182.338 32.1175C182.093 31.5496 181.721 31.0845 181.222 30.7222C180.732 30.36 180.066 30.1788 179.224 30.1788C178.774 30.1788 178.328 30.2523 177.888 30.3991C177.447 30.546 177.046 30.8006 176.683 31.1629C176.331 31.5153 176.047 32.0049 175.831 32.6316C175.616 33.2484 175.508 34.0415 175.508 35.0109L173.408 34.115C173.408 32.7637 173.667 31.5398 174.186 30.4432C174.715 29.3465 175.489 28.4751 176.507 27.8289C177.525 27.1729 178.779 26.8449 180.267 26.8449C181.442 26.8449 182.411 27.0407 183.175 27.4323C183.939 27.824 184.546 28.3234 184.996 28.9304C185.447 29.5375 185.779 30.1837 185.995 30.8691C186.21 31.5545 186.347 32.2056 186.406 32.8225C186.475 33.4296 186.509 33.924 186.509 34.3059V43.1622H182.925ZM171.925 43.1622V27.3001H175.082V32.2203H175.508V43.1622H171.925Z" fill="white"/>
<path d="M16.7676 32.2146C16.7349 32.2632 16.6761 32.349 16.6033 32.4554C13.9123 36.3668 10.084 40.2083 10.2874 41.5724C10.2948 41.6219 10.3378 41.8505 10.4553 42.1313C11.1243 43.725 13.0315 44.1076 13.4589 44.1934C13.8536 44.2727 14.099 44.2336 14.3033 44.1309C14.4545 44.0553 14.5907 43.9359 14.7064 43.7642C14.7269 43.7334 14.8062 43.6401 14.8818 43.5114C15.1972 42.9711 16.539 40.0375 16.5996 38.2367C16.6034 38.1257 16.6024 38.0239 16.6024 38.0239C16.4961 37.5341 16.4242 37.0396 16.3794 36.5413C16.2936 35.5952 16.3271 34.6537 16.469 33.715C16.5446 33.2102 16.6556 32.7129 16.7666 32.2165L16.7676 32.2146Z" stroke="white" stroke-width="0.123219" stroke-miterlimit="10"/>
<path d="M13.1584 44.5293C11.8913 44.2261 10.7987 43.6719 10.1474 42.4869C10.1054 42.4094 10.0653 42.4085 10.0075 42.4654C9.90575 42.5662 9.83578 42.6772 9.80778 42.8013C9.80498 42.8153 9.78259 42.9319 9.80592 43.0616C9.97853 44.0059 10.6606 44.5676 10.6606 44.5676C10.6606 44.5676 11.3464 45.133 12.8403 45.0892C12.9047 45.0873 12.9896 45.0771 13.0679 45.0248C13.1706 44.9567 13.2144 44.8569 13.2583 44.7038C13.2928 44.5807 13.276 44.5564 13.1584 44.5284V44.5293Z" stroke="white" stroke-width="0.123219" stroke-miterlimit="10"/>
<path d="M29.6039 46.0101C28.3993 45.2637 27.1023 45.0304 25.7129 45.3495C25.0253 45.5081 24.3805 45.7685 23.8636 46.263C23.4941 46.6166 23.5137 46.9124 23.9093 47.2408C24.1388 47.4312 24.3917 47.5898 24.6427 47.7503C25.4368 48.2607 26.284 48.6059 27.2143 48.5854C27.4401 48.5957 27.6267 48.5798 27.8114 48.5509C28.7184 48.4091 29.5022 48.0116 30.1824 47.4153C30.4632 47.169 30.4688 46.9143 30.2561 46.6092C30.0835 46.3619 29.8605 46.1678 29.6039 46.0092V46.0101Z" stroke="white" stroke-width="0.123219" stroke-miterlimit="10"/>
<path d="M39.6848 45.9318C38.3776 45.2077 37.0078 45.0733 35.5849 45.5352C34.9308 45.747 34.3364 46.0699 33.8587 46.5709C33.4696 46.9796 33.5116 47.3081 33.9818 47.6206C34.2832 47.8212 34.6098 47.9752 34.9345 48.1329C35.5756 48.4436 36.2427 48.6479 36.9724 48.6311C37.3241 48.6442 37.6759 48.5976 38.0221 48.5071C38.8926 48.2785 39.612 47.8063 40.2185 47.1625C40.435 46.9329 40.4471 46.7099 40.2773 46.4571C40.1271 46.2331 39.9218 46.0633 39.6839 45.9318H39.6848Z" stroke="white" stroke-width="0.123219" stroke-miterlimit="10"/>
<path d="M17.9899 20.8694C18.0254 20.9039 18.0608 20.9394 18.0944 20.9748C18.2866 21.1792 18.2894 21.1838 18.5134 21.0187C19.1031 20.582 19.6312 20.0744 20.163 19.5733C20.6184 19.1441 21.0644 18.7047 21.4665 18.2241C21.5216 18.1588 21.5841 18.0963 21.6037 18.0188C21.6037 17.9591 21.5701 17.9311 21.5393 17.9003C21.461 17.821 21.3807 17.7436 21.3014 17.6652C21.0886 17.4543 21.0821 17.4469 20.8498 17.6325C19.8103 18.463 18.8502 19.3765 17.9619 20.3627C17.7342 20.6156 17.7436 20.623 17.9899 20.8684V20.8694Z" stroke="white" stroke-width="0.123219" stroke-miterlimit="10"/>
<path d="M17.9031 27.9542C18.4023 28.8593 19.1749 29.4742 20.0912 29.9305C21.3145 30.5398 22.6338 30.8318 23.9756 31.038C25.7419 31.3095 27.5259 31.3963 29.31 31.4383C30.2654 31.4616 31.2218 31.442 32.1773 31.442C34.0453 31.4616 35.9115 31.4476 37.7757 31.3096C38.8525 31.2302 39.9255 31.1201 40.9874 30.9251C42.15 30.7114 43.2865 30.4129 44.3455 29.8717C46.1575 28.9451 47.0832 27.4895 47.0552 25.4676C47.0365 24.0652 46.5979 22.7869 45.8571 21.6009C45.8244 21.5487 45.7843 21.5039 45.7339 21.4647C45.3812 21.1894 45.0434 20.8974 44.7159 20.5941C44.0544 19.9839 43.3994 19.369 42.8162 18.6832C42.7686 18.6272 42.693 18.5675 42.7108 18.4966C42.735 18.3967 42.679 18.3687 42.6175 18.3267C42.2582 18.0814 41.8906 17.8481 41.5099 17.6363C38.9766 16.2273 36.2352 15.5369 33.3474 15.3932C31.0744 15.2793 28.836 15.5098 26.647 16.1527C25.0458 16.623 23.5361 17.2873 22.1412 18.1971C22.0964 18.226 22.0338 18.2437 22.0189 18.3044C21.9844 18.4499 21.879 18.5498 21.7866 18.6561C21.098 19.4464 20.3394 20.1686 19.5565 20.8675C19.3158 21.0821 19.0769 21.3005 18.7998 21.4694C18.7224 21.5169 18.6626 21.5701 18.6151 21.6448C17.7725 22.9697 17.2976 24.3983 17.3722 25.9761C17.4049 26.6712 17.5654 27.3384 17.9059 27.9552L17.9031 27.9542ZM39.5234 24.1435C39.5402 23.3626 39.5682 22.5825 39.8192 21.8304C39.8518 21.7315 39.891 21.6336 39.9358 21.5393C40.2857 20.8041 40.8922 20.6062 41.6135 21.0065C42.4 21.4423 42.8955 22.1244 43.2174 22.9371C43.7773 24.3507 43.3593 26.1879 42.248 27.191C41.8962 27.5082 41.4931 27.7181 40.9893 27.6127C40.6645 27.5455 40.4322 27.3449 40.2437 27.0902C39.8537 26.563 39.6979 25.9509 39.6008 25.3211C39.5402 24.932 39.5113 24.5392 39.5225 24.1445L39.5234 24.1435ZM22.7281 21.3201C22.9875 21.1521 23.2795 21.0532 23.5968 21.0859C24.0549 21.1334 24.3068 21.4395 24.4841 21.8193C24.6791 22.2373 24.7696 22.6842 24.8181 23.1367C24.9021 23.9271 24.9376 24.7183 24.8237 25.5096C24.737 26.116 24.5979 26.7086 24.2602 27.233C23.984 27.6612 23.6201 27.9607 23.0621 27.9029C22.6851 27.8637 22.3791 27.6715 22.115 27.4196C21.4749 26.8103 21.1493 26.0442 21 25.1942C20.9618 24.9758 20.9505 24.7547 20.944 24.528C21.0149 23.1778 21.5561 22.0768 22.7281 21.3191V21.3201Z" stroke="white" stroke-width="0.123219" stroke-miterlimit="10"/>
<path d="M45.9793 20.9916C46.3218 21.2725 46.3274 21.2659 46.6409 20.9562C46.8132 20.7863 46.8175 20.6081 46.6539 20.4215C46.0493 19.731 45.3775 19.104 44.7001 18.4854C44.3978 18.2092 44.0908 17.9386 43.7586 17.6979C43.6933 17.6503 43.6233 17.6111 43.5664 17.5738C43.5002 17.57 43.475 17.6102 43.4442 17.6391C43.3462 17.7333 43.2594 17.8425 43.1502 17.9237C42.9935 18.0412 43.0196 18.1392 43.1334 18.2689C44.0021 19.257 44.9585 20.1565 45.9784 20.9916H45.9793Z" stroke="white" stroke-width="0.123219" stroke-miterlimit="10"/>
<path d="M47.2324 32.2146C47.3435 32.711 47.4545 33.2084 47.5301 33.7132C47.671 34.6518 47.7055 35.5933 47.6197 36.5394C47.574 37.0386 47.503 37.5332 47.3967 38.0221C47.3967 38.0221 47.3967 38.1247 47.3995 38.2348C47.4601 40.0357 48.8019 42.9702 49.1173 43.5095C49.1928 43.6383 49.2721 43.7316 49.2927 43.7624C49.4084 43.934 49.5446 44.0535 49.6958 44.129C49.8992 44.2308 50.1446 44.2709 50.5402 44.1916C50.9685 44.1057 52.8757 43.7232 53.5438 42.1295C53.6623 41.8477 53.7043 41.6191 53.7117 41.5706C53.9151 40.2073 50.0867 36.365 47.3957 32.4535C47.3229 32.3481 47.2651 32.2622 47.2315 32.2128L47.2324 32.2146Z" stroke="white" stroke-width="0.123219" stroke-miterlimit="10"/>
<path d="M50.8416 44.5294C50.724 44.5573 50.7072 44.5816 50.7417 44.7048C50.7847 44.8578 50.8295 44.9576 50.9321 45.0258C51.0105 45.078 51.0954 45.0883 51.1598 45.0901C52.6536 45.133 53.3394 44.5685 53.3394 44.5685C53.3394 44.5685 54.0206 44.0068 54.1941 43.0626C54.2174 42.9329 54.196 42.8153 54.1922 42.8022C54.1633 42.6781 54.0943 42.5671 53.9926 42.4663C53.9347 42.4094 53.8955 42.4113 53.8526 42.4878C53.2013 43.6719 52.1087 44.227 50.8416 44.5303V44.5294Z" stroke="white" stroke-width="0.123219" stroke-miterlimit="10"/>
<path d="M46.3973 30.801C46.2854 30.4231 46.1892 30.0415 46.0185 29.6832C45.9532 29.5461 45.8795 29.5218 45.7666 29.6356C45.6611 29.7411 45.5548 29.8456 45.44 29.9398C44.5993 30.6312 43.6177 31.0455 42.5773 31.3422C40.9314 31.8115 39.2407 31.9935 37.5397 32.1129C36.3621 32.195 35.1827 32.2342 34.0024 32.251C32.3033 32.2743 30.6041 32.2538 28.9059 32.2016C27.5324 32.1596 26.1617 32.0915 24.7976 31.9282C23.7376 31.8013 22.6879 31.6231 21.6653 31.3124C20.4196 30.9335 19.2626 30.4063 18.3958 29.3977C18.2848 29.2689 18.2101 29.2885 18.1373 29.4527C18.002 29.7578 17.8956 30.0723 17.8023 30.3914C17.5196 31.3599 17.2266 32.3266 17.1035 33.3306C16.9551 34.5436 16.9663 35.7631 17.0615 36.978C17.1707 38.3748 17.5569 39.7081 18.1037 40.9976C18.7802 42.5923 19.7263 44.0152 20.9114 45.287C21.3807 45.7899 21.8416 46.3097 22.5825 46.43C22.6497 46.4412 22.715 46.4655 22.7812 46.4832C23.0742 46.5653 23.0714 46.5634 23.1983 46.3022C23.2412 46.2145 23.2972 46.1305 23.3597 46.0549C23.5575 45.8114 23.8067 45.6238 24.0763 45.4671C25.4377 44.6786 26.8849 44.5415 28.3909 44.9595C29.1756 45.1769 29.8996 45.5193 30.4688 46.1156C30.7189 46.3768 30.9027 46.6773 30.8663 47.057C30.8532 47.1942 30.9027 47.2213 31.0305 47.2213C31.6305 47.2185 32.2305 47.2175 32.8295 47.2315C33.0264 47.2362 33.1458 47.2203 33.1253 46.9777C33.1159 46.8611 33.185 46.7417 33.241 46.6306C33.3996 46.3199 33.6422 46.0792 33.9193 45.8776C35.1547 44.98 36.5366 44.6367 38.0556 44.869C38.8096 44.9847 39.5224 45.2254 40.1485 45.6677C40.4499 45.8814 40.7233 46.1305 40.8278 46.5009C40.8623 46.6232 40.9109 46.6456 41.0247 46.6101C41.2925 46.5271 41.5612 46.4459 41.8327 46.3759C42.0697 46.3143 42.261 46.1884 42.4355 46.0232C43.1465 45.3542 43.8006 44.6348 44.366 43.8426C46.179 41.3037 47.1279 38.4923 47.1037 35.3759C47.1009 34.8282 47.0981 34.2805 47.0374 33.7346C46.9264 32.7353 46.6819 31.764 46.3973 30.801ZM39.1781 38.9076C38.8348 38.8992 38.4914 38.901 38.149 38.8861C37.9978 38.8796 37.9129 38.9104 37.9073 39.0811C37.8877 39.6475 37.7571 40.2008 37.6899 40.7616C37.6675 40.9464 37.4697 41.1031 37.2429 41.1199C36.6831 41.1619 36.1233 41.2001 35.5625 41.2328C34.4913 41.2953 33.4201 41.3728 32.3471 41.4035C31.7126 41.4222 31.0744 41.369 30.439 41.3392C29.8903 41.314 29.3426 41.2776 28.7949 41.2431C28.222 41.2067 27.6491 41.1684 27.0771 41.1274C26.8587 41.1115 26.758 41.0163 26.6973 40.7831C26.5658 40.2764 26.4762 39.7623 26.3997 39.2454C26.3605 38.9822 26.3586 38.9673 26.117 39.0195C25.9378 39.0587 25.866 38.9981 25.8482 38.8115C25.8118 38.4205 25.8007 38.4205 26.2065 38.386C26.6171 38.3515 27.0276 38.3197 27.4373 38.2815C27.5576 38.2703 27.5996 38.3058 27.6108 38.4289C27.6481 38.8721 27.6528 38.8712 27.2208 38.9244C26.9931 38.9524 26.9912 38.9524 27.0314 39.1866C27.0986 39.5738 27.1695 39.961 27.2376 40.3482C27.2572 40.4621 27.2964 40.533 27.4373 40.5405C28.765 40.6095 30.0919 40.6963 31.4196 40.7551C32.4684 40.8017 33.5163 40.7308 34.5632 40.6599C35.2723 40.6114 35.9833 40.5759 36.6934 40.5339C36.768 40.5292 36.8427 40.5171 36.9173 40.5181C37.0386 40.5181 37.0946 40.463 37.1114 40.3454C37.1748 39.92 37.2448 39.4954 37.2803 39.0662C37.2924 38.9197 37.2439 38.873 37.0936 38.8768C36.7381 38.8861 36.3817 38.8758 36.0253 38.8824C35.8937 38.8842 35.8517 38.8376 35.8545 38.7107C35.8676 38.1593 35.7901 38.26 36.3005 38.2544C36.7316 38.2498 37.1618 38.2535 37.5928 38.2535V38.2796C38.1051 38.2796 38.6174 38.2824 39.1296 38.2777C39.278 38.2759 39.3545 38.3095 39.3218 38.4774C39.305 38.5661 39.32 38.6613 39.3284 38.7527C39.3377 38.8628 39.2948 38.9122 39.18 38.9094L39.1781 38.9076ZM38.9346 37.7347C38.0165 37.7347 37.0974 37.7319 36.1792 37.7375C36.0169 37.7384 35.946 37.7095 35.9525 37.5266C35.9674 37.1086 35.9581 37.1086 36.3827 37.1086C36.6766 37.1086 36.9696 37.103 37.2635 37.1105C37.396 37.1142 37.437 37.0666 37.4324 36.9388C37.423 36.7242 37.423 36.5077 37.4324 36.2931C37.4389 36.1494 37.3941 36.1018 37.2429 36.0999C36.5123 36.0934 35.7818 36.0766 35.0512 36.0617C34.8198 36.057 34.5893 36.0412 34.3579 36.0402C34.2384 36.0402 34.1852 36.0029 34.1955 35.8798C34.2002 35.8322 34.23 35.7547 34.1498 35.7417C34.0733 35.7295 34.0406 35.8004 34.0266 35.8583C33.98 36.0617 33.9361 36.266 33.9025 36.4722C33.8848 36.5786 33.854 36.6234 33.7327 36.5935C33.6441 36.5721 33.5368 36.5581 33.4556 36.588C33.2531 36.6617 33.2242 36.5422 33.1953 36.3985C33.1598 36.2194 33.1365 36.0365 33.0534 35.8256C32.9741 36.0729 32.9032 36.2819 32.8398 36.4928C32.8062 36.6057 32.7595 36.6654 32.6298 36.6066C32.53 36.5609 32.418 36.5656 32.3172 36.5982C32.1969 36.6374 32.1586 36.5842 32.1362 36.4844C32.0905 36.2819 32.0429 36.0804 31.9851 35.8359C31.8712 36.0757 31.8209 36.2875 31.7602 36.4956C31.7275 36.6057 31.6799 36.6505 31.5586 36.6038C31.4588 36.5656 31.3469 36.5637 31.2461 36.6038C31.1201 36.6542 31.079 36.5954 31.0492 36.4891C30.9941 36.2903 30.9316 36.0934 30.8728 35.8956C30.8589 35.8984 30.8439 35.9012 30.8299 35.9031C30.7842 36.0944 30.7366 36.2847 30.6927 36.476C30.6704 36.573 30.634 36.6281 30.5136 36.5954C30.4063 36.5656 30.2897 36.5637 30.1814 36.6066C30.0667 36.6523 30.0247 36.5982 29.9976 36.4984C29.9482 36.3211 29.8922 36.1447 29.8343 35.9693C29.8091 35.8928 29.7746 35.8023 29.6748 35.8182C29.5731 35.834 29.6235 35.9301 29.6244 35.987C29.6263 36.1466 29.5003 36.1233 29.4126 36.1307C29.0272 36.1643 28.6409 36.1867 28.2556 36.2147C27.8142 36.2465 27.3729 36.2856 26.9306 36.3118C26.7953 36.3202 26.7627 36.3799 26.772 36.4993C26.7897 36.726 26.8056 36.9528 26.8084 37.1805C26.8102 37.3046 26.8597 37.341 26.9782 37.3316C27.4447 37.2962 27.9131 37.2775 28.3787 37.2308C28.8761 37.1814 28.8714 37.1711 28.933 37.6479C28.9488 37.7758 28.9134 37.8299 28.7809 37.8383C28.2453 37.8719 27.7097 37.9101 27.1751 37.9474C26.3222 38.0062 25.4694 38.0641 24.6166 38.1257C24.5055 38.1341 24.4608 38.1005 24.4514 37.9876C24.4113 37.5014 24.4076 37.4958 24.8984 37.4483C25.2585 37.4137 25.6206 37.3895 25.9807 37.3736C26.1123 37.3671 26.1533 37.3204 26.1459 37.1954C26.1272 36.8949 26.1151 36.5935 26.1067 36.2931C26.1039 36.2017 26.116 36.1084 26.1319 36.0178C26.1664 35.8191 26.2831 35.7099 26.4818 35.695C27.3346 35.6316 28.1874 35.569 29.0393 35.5093C29.3165 35.4897 29.3221 35.4907 29.3678 35.2163C29.3883 35.095 29.4172 34.9747 29.434 34.8534C29.4508 34.7302 29.5087 34.6733 29.6356 34.7125C29.7429 34.7461 29.8511 34.7339 29.9491 34.6957C30.0909 34.6406 30.1413 34.7003 30.173 34.8235C30.2029 34.9392 30.244 35.053 30.3186 35.1678C30.3615 34.9924 30.41 34.8188 30.4436 34.6425C30.4651 34.5324 30.522 34.4951 30.6265 34.5175C30.7506 34.5445 30.8766 34.5473 30.9969 34.5091C31.1173 34.4717 31.1546 34.5343 31.1826 34.6257C31.2526 34.8618 31.3226 35.0969 31.4084 35.388C31.4971 35.109 31.5764 34.8804 31.6398 34.649C31.6744 34.524 31.7238 34.468 31.8628 34.5147C31.9627 34.5482 32.07 34.5632 32.1763 34.5249C32.3172 34.4745 32.3667 34.5501 32.3919 34.6714C32.4302 34.8506 32.474 35.0279 32.5235 35.2462C32.6345 35.0353 32.6765 34.844 32.7297 34.6583C32.7698 34.5165 32.8379 34.4605 32.9853 34.5184C33.0357 34.538 33.1001 34.5538 33.1495 34.5408C33.3725 34.4801 33.5274 34.5109 33.5153 34.8188C33.5769 34.7078 33.6478 34.6957 33.729 34.7041C33.854 34.7171 33.9809 34.7255 34.1013 34.6882C34.2198 34.6509 34.2599 34.7087 34.286 34.8049C34.3224 34.9355 34.3747 35.0624 34.3999 35.1949C34.4307 35.3563 34.5277 35.4039 34.6779 35.402C34.8841 35.3983 35.0903 35.4001 35.2965 35.4048C36.1764 35.4263 37.0573 35.4524 37.9371 35.4711C38.065 35.4739 38.1098 35.5121 38.107 35.6446C38.0967 36.0626 38.106 36.4816 38.0958 36.8996C38.092 37.0414 38.1443 37.0806 38.2796 37.0778C38.5987 37.0713 38.9169 37.0797 39.235 37.0741C39.3657 37.0722 39.4077 37.1189 39.4095 37.2467C39.4189 37.7375 39.4226 37.7375 38.9318 37.7375L38.9346 37.7347Z" stroke="white" stroke-width="0.123219" stroke-miterlimit="10"/>
<path d="M39.32 38.4756C39.3526 38.3076 39.2771 38.274 39.1278 38.2759C38.6155 38.2815 38.1033 38.2777 37.591 38.2777V38.2516C37.1599 38.2516 36.7298 38.2479 36.2987 38.2525C35.7874 38.2581 35.8657 38.1564 35.8527 38.7088C35.8499 38.8367 35.8928 38.8833 36.0234 38.8805C36.3799 38.874 36.7363 38.8852 37.0918 38.8749C37.242 38.8712 37.2905 38.9178 37.2784 39.0643C37.243 39.4935 37.173 39.9181 37.1095 40.3436C37.0927 40.4611 37.0368 40.5171 36.9155 40.5162C36.8408 40.5162 36.7661 40.5283 36.6915 40.532C35.9814 40.574 35.2704 40.6095 34.5613 40.658C33.5144 40.7289 32.4665 40.7998 31.4178 40.7532C30.09 40.6944 28.7632 40.6076 27.4354 40.5386C27.2945 40.5311 27.2553 40.4602 27.2357 40.3464C27.1686 39.9591 27.0967 39.5719 27.0295 39.1847C26.9894 38.9505 26.9913 38.9505 27.2189 38.9225C27.6519 38.8693 27.6463 38.8702 27.609 38.427C27.5987 38.3039 27.5558 38.2684 27.4354 38.2796C27.0258 38.3179 26.6152 38.3496 26.2047 38.3841C25.7988 38.4186 25.8091 38.4177 25.8464 38.8096C25.8641 38.9962 25.936 39.0568 26.1151 39.0177C26.3568 38.9654 26.3587 38.9804 26.3978 39.2435C26.4744 39.7604 26.5639 40.2755 26.6955 40.7812C26.7561 41.0135 26.8579 41.1096 27.0753 41.1255C27.6472 41.1675 28.2201 41.2048 28.793 41.2412C29.3417 41.2757 29.8894 41.3121 30.4371 41.3373C31.0725 41.3671 31.7108 41.4203 32.3453 41.4017C33.4183 41.3709 34.4895 41.2934 35.5606 41.2309C36.1214 41.1982 36.6813 41.16 37.2411 41.118C37.4678 41.1012 37.6656 40.9445 37.688 40.7597C37.7552 40.1989 37.8858 39.6456 37.9054 39.0793C37.911 38.9094 37.9959 38.8786 38.1471 38.8842C38.4895 38.8982 38.8339 38.8973 39.1763 38.9057C39.2911 38.9085 39.3349 38.859 39.3246 38.7489C39.3162 38.6575 39.3004 38.5623 39.3181 38.4737L39.32 38.4756Z" stroke="white" stroke-width="0.123219" stroke-miterlimit="10"/>
<path d="M40.2446 27.0902C40.4331 27.3449 40.6655 27.5455 40.9902 27.6127C41.494 27.7181 41.8971 27.5082 42.2489 27.191C43.3602 26.1879 43.7782 24.3507 43.2184 22.9371C42.8965 22.1253 42.4019 21.4432 41.6144 21.0065C40.8922 20.6063 40.2866 20.8041 39.9367 21.5393C39.8919 21.6336 39.8527 21.7315 39.8201 21.8305C39.5682 22.5825 39.5411 23.3626 39.5243 24.1435C39.5131 24.5382 39.5421 24.9311 39.6027 25.3202C39.6997 25.9509 39.8556 26.563 40.2456 27.0893L40.2446 27.0902Z" stroke="white" stroke-width="0.123219" stroke-miterlimit="10"/>
<path d="M39.2379 37.0713C38.9197 37.0778 38.6006 37.0685 38.2824 37.075C38.1471 37.0778 38.0949 37.0386 38.0986 36.8968C38.1079 36.4788 38.0986 36.0598 38.1098 35.6418C38.1126 35.5093 38.0678 35.472 37.94 35.4683C37.0591 35.4496 36.1792 35.4235 35.2994 35.402C35.0932 35.3973 34.887 35.3955 34.6807 35.3992C34.5296 35.4011 34.4325 35.3535 34.4027 35.1921C34.3775 35.0596 34.3262 34.9327 34.2888 34.8021C34.2618 34.7059 34.2226 34.649 34.1041 34.6854C33.9837 34.7227 33.8568 34.7143 33.7318 34.7013C33.6497 34.6929 33.5797 34.705 33.5181 34.816C33.5302 34.5072 33.3754 34.4773 33.1524 34.538C33.1029 34.551 33.0385 34.5352 32.9881 34.5156C32.8398 34.4577 32.7726 34.5128 32.7325 34.6556C32.6802 34.8412 32.6373 35.0325 32.5263 35.2434C32.4759 35.0251 32.432 34.8478 32.3947 34.6686C32.3695 34.5483 32.3191 34.4717 32.1792 34.5221C32.0728 34.5604 31.9655 34.5455 31.8656 34.5119C31.7266 34.4662 31.6772 34.5212 31.6427 34.6462C31.5783 34.8786 31.4999 35.1062 31.4112 35.3852C31.3254 35.0941 31.2545 34.859 31.1854 34.6229C31.1584 34.5305 31.1201 34.469 30.9998 34.5063C30.8803 34.5436 30.7544 34.5408 30.6293 34.5147C30.5239 34.4923 30.4679 34.5296 30.4464 34.6397C30.4119 34.816 30.3643 34.9905 30.3214 35.165C30.2468 35.0503 30.2057 34.9364 30.1759 34.8207C30.1441 34.6985 30.0937 34.6378 29.9519 34.6929C29.8549 34.7302 29.7457 34.7433 29.6384 34.7097C29.5106 34.6705 29.4536 34.7274 29.4369 34.8506C29.4201 34.9719 29.3911 35.0922 29.3706 35.2135C29.324 35.4879 29.3193 35.4869 29.0422 35.5065C28.1893 35.5653 27.3365 35.6278 26.4846 35.6922C26.2859 35.7071 26.1692 35.8163 26.1347 36.015C26.1188 36.1056 26.1067 36.1989 26.1095 36.2903C26.1179 36.5917 26.1291 36.8921 26.1487 37.1926C26.1562 37.3186 26.116 37.3643 25.9835 37.3708C25.6224 37.3876 25.2614 37.4109 24.9012 37.4455C24.4104 37.493 24.4141 37.4977 24.4542 37.9848C24.4636 38.0986 24.5084 38.1313 24.6194 38.1229C25.4722 38.0613 26.3251 38.0034 27.1779 37.9446C27.7135 37.9073 28.249 37.8691 28.7837 37.8355C28.9162 37.8271 28.9517 37.773 28.9358 37.6451C28.8742 37.1683 28.8789 37.1786 28.3816 37.228C27.916 37.2738 27.4476 37.2934 26.981 37.3288C26.8625 37.3382 26.8131 37.3018 26.8112 37.1777C26.8084 36.95 26.7925 36.7232 26.7748 36.4965C26.7655 36.3771 26.7981 36.3164 26.9334 36.309C27.3757 36.2828 27.817 36.2446 28.2584 36.2119C28.6447 36.1839 29.031 36.1615 29.4154 36.1279C29.5031 36.1205 29.6291 36.1438 29.6272 35.9842C29.6272 35.9264 29.5759 35.8312 29.6776 35.8154C29.7774 35.7995 29.812 35.89 29.8371 35.9665C29.8941 36.1419 29.95 36.3183 30.0004 36.4956C30.0284 36.5954 30.0695 36.6505 30.1842 36.6038C30.2915 36.5609 30.4082 36.5628 30.5164 36.5926C30.6377 36.6262 30.6732 36.5712 30.6956 36.4732C30.7394 36.2819 30.787 36.0916 30.8327 35.9003C30.8467 35.8975 30.8617 35.8947 30.8757 35.8928C30.9354 36.0906 30.997 36.2875 31.052 36.4863C31.0819 36.5926 31.1229 36.6514 31.2489 36.601C31.3497 36.56 31.4607 36.5618 31.5615 36.601C31.6818 36.6477 31.7304 36.6038 31.763 36.4928C31.8237 36.2856 31.8741 36.0729 31.9879 35.8331C32.0448 36.0776 32.0933 36.28 32.139 36.4816C32.1614 36.5814 32.1997 36.6346 32.3201 36.5954C32.4208 36.5628 32.5328 36.5581 32.6326 36.6038C32.7623 36.6626 32.809 36.6038 32.8426 36.49C32.906 36.2791 32.9769 36.0701 33.0562 35.8228C33.1393 36.0337 33.1626 36.2166 33.1981 36.3957C33.227 36.5394 33.255 36.6589 33.4584 36.5852C33.5405 36.5562 33.6478 36.5693 33.7355 36.5907C33.8568 36.6206 33.8886 36.5758 33.9054 36.4695C33.9399 36.2633 33.9828 36.0589 34.0294 35.8555C34.0425 35.7967 34.0761 35.7267 34.1526 35.7389C34.2329 35.751 34.203 35.8294 34.1983 35.877C34.1871 36.0011 34.2403 36.0374 34.3607 36.0374C34.5921 36.0374 34.8226 36.0533 35.054 36.0589C35.7846 36.0738 36.5152 36.0906 37.2458 36.0972C37.396 36.099 37.4417 36.1466 37.4352 36.2903C37.4249 36.5049 37.4258 36.7214 37.4352 36.936C37.4408 37.0638 37.3988 37.1105 37.2663 37.1077C36.9724 37.1002 36.6794 37.1058 36.3855 37.1058C35.9609 37.1058 35.9712 37.1058 35.9553 37.5238C35.9488 37.7067 36.0197 37.7366 36.182 37.7347C37.1002 37.7291 38.0193 37.7319 38.9374 37.7319C39.4282 37.7319 39.4245 37.7319 39.4152 37.2411C39.4133 37.1133 39.3713 37.0666 39.2407 37.0685L39.2379 37.0713Z" stroke="white" stroke-width="0.123219" stroke-miterlimit="10"/>
<path d="M22.115 27.4205C22.3791 27.6724 22.6851 27.8647 23.0621 27.9038C23.621 27.9617 23.9849 27.6622 24.2602 27.2339C24.5979 26.7095 24.737 26.117 24.8237 25.5105C24.9376 24.7192 24.9012 23.9271 24.8181 23.1377C24.7705 22.6842 24.68 22.2373 24.4841 21.8202C24.3068 21.4404 24.0549 21.1353 23.5968 21.0868C23.2795 21.0541 22.9874 21.153 22.7281 21.321C21.5552 22.0777 21.0149 23.1787 20.944 24.5298C20.9505 24.7566 20.9617 24.9768 21 25.1961C21.1493 26.0461 21.4749 26.8131 22.115 27.4214V27.4205Z" stroke="white" stroke-width="0.123219" stroke-miterlimit="10"/>
<path d="M32 1.81134C15.3269 1.81134 1.81134 15.3269 1.81134 32C1.81134 48.6731 15.3269 62.1887 32 62.1887C48.6731 62.1887 62.1887 48.6731 62.1887 32C62.1887 15.3269 48.6731 1.81134 32 1.81134ZM43.1502 17.9246C43.2585 17.8434 43.3453 17.7343 43.4442 17.64C43.474 17.6111 43.5001 17.571 43.5664 17.5747C43.6233 17.6111 43.6942 17.6512 43.7586 17.6988C44.0908 17.9395 44.3987 18.2111 44.7001 18.4863C45.3775 19.1059 46.0493 19.732 46.6539 20.4225C46.8169 20.6091 46.8126 20.7873 46.6409 20.9571C46.3274 21.2669 46.3218 21.2725 45.9793 20.9925C44.9595 20.1574 44.0031 19.258 43.1344 18.2698C43.0205 18.1401 42.9935 18.0422 43.1512 17.9246H43.1502ZM17.9619 20.3646C18.8493 19.3783 19.8094 18.4649 20.8498 17.6344C21.0821 17.4487 21.0886 17.4553 21.3014 17.6671C21.3807 17.7455 21.46 17.8238 21.5393 17.9022C21.5701 17.933 21.6046 17.961 21.6037 18.0207C21.5841 18.0981 21.5216 18.1607 21.4665 18.226C21.0644 18.7056 20.6193 19.146 20.163 19.5752C19.6312 20.0763 19.1031 20.5829 18.5134 21.0205C18.2904 21.1857 18.2876 21.182 18.0944 20.9767C18.0608 20.9403 18.0254 20.9058 17.9899 20.8712C17.7436 20.6258 17.7342 20.6184 17.9619 20.3655V20.3646ZM18.6123 21.6448C18.6598 21.5701 18.7196 21.5169 18.797 21.4694C19.0741 21.2995 19.313 21.0821 19.5537 20.8675C20.3366 20.1686 21.0952 19.4464 21.7838 18.6561C21.8761 18.5498 21.9806 18.4499 22.0161 18.3044C22.031 18.2437 22.0926 18.226 22.1383 18.1971C23.5342 17.2873 25.043 16.6239 26.6442 16.1527C28.8332 15.5098 31.0716 15.2793 33.3446 15.3932C36.2334 15.5378 38.9738 16.2283 41.5071 17.6363C41.8878 17.8481 42.2554 18.0814 42.6146 18.3267C42.6762 18.3687 42.7322 18.3977 42.708 18.4966C42.6912 18.5675 42.7658 18.6281 42.8134 18.6832C43.3966 19.369 44.0516 19.9848 44.7131 20.5941C45.0416 20.8974 45.3784 21.1904 45.7311 21.4647C45.7815 21.5039 45.8216 21.5487 45.8543 21.6009C46.5952 22.7869 47.0337 24.0661 47.0524 25.4676C47.0803 27.4895 46.1547 28.9451 44.3427 29.8717C43.2846 30.4129 42.1472 30.7114 40.9846 30.9251C39.9227 31.1201 38.8506 31.2302 37.7729 31.3096C35.9087 31.4467 34.0425 31.4616 32.1745 31.442C31.219 31.442 30.2626 31.4607 29.3072 31.4383C27.5231 31.3954 25.74 31.3086 23.9728 31.038C22.631 30.8318 21.3126 30.5398 20.0884 29.9305C19.1721 29.4742 18.4005 28.8593 17.9003 27.9542C17.5598 27.3375 17.3993 26.6703 17.3666 25.9752C17.292 24.3964 17.7669 22.9679 18.6095 21.6438L18.6123 21.6448ZM13.2583 44.7066C13.2154 44.8596 13.1706 44.9595 13.0679 45.0276C12.9896 45.0799 12.9047 45.0901 12.8403 45.092C11.3464 45.1349 10.6606 44.5704 10.6606 44.5704C10.6606 44.5704 9.97946 44.0087 9.80591 43.0644C9.78259 42.9347 9.80405 42.8172 9.80778 42.8041C9.83671 42.68 9.90574 42.5689 10.0074 42.4682C10.0653 42.4113 10.1045 42.4131 10.1474 42.4897C10.7987 43.6737 11.8913 44.2289 13.1584 44.5321C13.276 44.5601 13.2928 44.5844 13.2583 44.7076V44.7066ZM16.3803 36.5404C16.4261 37.0396 16.497 37.5341 16.6033 38.023C16.6033 38.023 16.6034 38.1257 16.6006 38.2358C16.5399 40.0366 15.1981 42.9711 14.8828 43.5104C14.8072 43.6392 14.7279 43.7325 14.7074 43.7633C14.5917 43.935 14.4554 44.0544 14.3043 44.13C14.1008 44.2317 13.8554 44.2718 13.4598 44.1925C13.0315 44.1067 11.1243 43.7241 10.4563 42.1304C10.3378 41.8486 10.2958 41.62 10.2883 41.5715C10.0849 40.2083 13.9133 36.3659 16.6043 32.4544C16.6771 32.349 16.7349 32.2631 16.7685 32.2137C16.6575 32.7101 16.5464 33.2074 16.4709 33.7122C16.33 34.6509 16.2954 35.5924 16.3813 36.5385L16.3803 36.5404ZM30.1805 47.4172C29.5012 48.0134 28.7165 48.4109 27.8096 48.5528C27.6248 48.5817 27.4382 48.5975 27.2124 48.5873C26.2821 48.6087 25.4349 48.2626 24.6409 47.7522C24.3899 47.5908 24.137 47.4331 23.9074 47.2427C23.5128 46.9143 23.4932 46.6185 23.8617 46.2649C24.3787 45.7703 25.0234 45.5091 25.7111 45.3514C27.0995 45.0323 28.3965 45.2655 29.602 46.012C29.8586 46.1706 30.0816 46.3647 30.2542 46.612C30.467 46.9171 30.4604 47.1718 30.1805 47.4181V47.4172ZM40.2176 47.1643C39.6111 47.8082 38.8917 48.2812 38.0211 48.5089C37.6759 48.5994 37.3241 48.6461 36.9714 48.633C36.2418 48.6498 35.5737 48.4455 34.9336 48.1348C34.6089 47.9771 34.2823 47.8231 33.9809 47.6225C33.5116 47.3099 33.4687 46.9814 33.8578 46.5728C34.3355 46.0708 34.9299 45.7489 35.584 45.5371C37.0069 45.0752 38.3766 45.2096 39.6839 45.9336C39.9218 46.0652 40.1271 46.235 40.2773 46.4589C40.4471 46.7118 40.435 46.9348 40.2185 47.1643H40.2176ZM44.3642 43.8426C43.7978 44.6348 43.1437 45.3532 42.4336 46.0232C42.2592 46.1874 42.0679 46.3143 41.8309 46.3759C41.5593 46.4459 41.2906 46.5271 41.0228 46.6101C40.909 46.6456 40.8605 46.6241 40.826 46.5009C40.7224 46.1305 40.4481 45.8814 40.1467 45.6677C39.5206 45.2245 38.8077 44.9838 38.0538 44.869C36.5357 44.6367 35.1538 44.9809 33.9175 45.8776C33.6394 46.0792 33.3968 46.3199 33.2391 46.6306C33.1831 46.7417 33.1132 46.8611 33.1234 46.9777C33.1439 47.2194 33.0245 47.2362 32.8276 47.2315C32.2277 47.2175 31.6286 47.2185 31.0287 47.2213C30.9008 47.2213 30.8514 47.1942 30.8645 47.057C30.9008 46.6773 30.717 46.3759 30.467 46.1156C29.8978 45.5193 29.1737 45.1778 28.389 44.9595C26.883 44.5415 25.4358 44.6786 24.0745 45.4671C23.8048 45.6229 23.5557 45.8114 23.3579 46.0549C23.2963 46.1314 23.2394 46.2145 23.1965 46.3022C23.0686 46.5644 23.0724 46.5653 22.7794 46.4832C22.7131 46.4645 22.6478 46.4403 22.5806 46.43C21.8398 46.3106 21.3788 45.7899 20.9095 45.287C19.7245 44.0162 18.7783 42.5923 18.1019 40.9976C17.5551 39.7081 17.1679 38.3748 17.0596 36.978C16.9645 35.7631 16.9542 34.5436 17.1016 33.3306C17.2238 32.3266 17.5168 31.3599 17.8005 30.3914C17.8938 30.0723 18.0011 29.7569 18.1355 29.4527C18.2082 29.2885 18.2829 29.2689 18.3939 29.3977C19.2608 30.4063 20.4178 30.9335 21.6634 31.3124C22.6861 31.6231 23.7358 31.8013 24.7957 31.9282C26.1608 32.0915 27.5315 32.1596 28.9041 32.2016C30.6023 32.2529 32.3014 32.2743 34.0005 32.251C35.1809 32.2342 36.3603 32.195 37.5378 32.1129C39.2388 31.9944 40.9295 31.8115 42.5755 31.3422C43.6149 31.0455 44.5974 30.6312 45.4381 29.9398C45.5529 29.8456 45.6593 29.7411 45.7647 29.6356C45.8776 29.5218 45.9513 29.5461 46.0167 29.6832C46.1874 30.0415 46.2835 30.4231 46.3955 30.801C46.68 31.764 46.9236 32.7353 47.0356 33.7346C47.0962 34.2795 47.099 34.8272 47.1018 35.3759C47.1261 38.4914 46.1771 41.3037 44.3642 43.8426ZM53.9907 42.4663C54.0924 42.5671 54.1624 42.6781 54.1904 42.8022C54.1932 42.8162 54.2156 42.9328 54.1922 43.0625C54.0196 44.0068 53.3375 44.5685 53.3375 44.5685C53.3375 44.5685 52.6517 45.134 51.1579 45.0901C51.0935 45.0883 51.0086 45.078 50.9302 45.0257C50.8276 44.9576 50.7837 44.8578 50.7399 44.7048C50.7053 44.5816 50.7221 44.5573 50.8397 44.5293C52.1068 44.2261 53.1995 43.6719 53.8507 42.4869C53.8927 42.4094 53.9328 42.4085 53.9907 42.4654V42.4663ZM53.7098 41.5724C53.7024 41.6219 53.6595 41.8505 53.5419 42.1313C52.8729 43.725 50.9657 44.1076 50.5383 44.1934C50.1436 44.2727 49.8982 44.2336 49.6939 44.1309C49.5427 44.0553 49.4065 43.9359 49.2908 43.7642C49.2703 43.7334 49.191 43.6401 49.1154 43.5114C48.8 42.9711 47.4582 40.0375 47.3976 38.2367C47.3939 38.1257 47.3948 38.0239 47.3948 38.0239C47.5012 37.5341 47.573 37.0396 47.6178 36.5413C47.7036 35.5952 47.6701 34.6537 47.5282 33.715C47.4527 33.2102 47.3416 32.7129 47.2306 32.2165C47.2632 32.265 47.322 32.3509 47.3948 32.4572C50.0858 36.3687 53.9142 40.2101 53.7108 41.5743L53.7098 41.5724Z" stroke="white" stroke-width="0.123219" stroke-miterlimit="10"/>
<path d="M68.2264 43.1622V22.0128H76.9652C77.1709 22.0128 77.4352 22.0226 77.7583 22.0422C78.0815 22.052 78.3801 22.0813 78.6543 22.1303C79.8782 22.3163 80.8867 22.7227 81.6798 23.3493C82.4827 23.976 83.0751 24.7691 83.4569 25.7286C83.8486 26.6784 84.0444 27.7359 84.0444 28.901C84.0444 30.6243 83.6087 32.1077 82.7373 33.3512C81.8658 34.5849 80.5293 35.3487 78.7277 35.6424L77.2149 35.7746H71.766V43.1622H68.2264ZM80.3726 43.1622L76.2015 34.5556L79.7998 33.7625L84.3822 43.1622H80.3726ZM71.766 32.47H76.8184C77.0142 32.47 77.2345 32.4602 77.4793 32.4406C77.7241 32.4211 77.9493 32.3819 78.1549 32.3231C78.7424 32.1763 79.2026 31.9168 79.5355 31.5447C79.8782 31.1726 80.1181 30.7516 80.2551 30.2816C80.402 29.8116 80.4754 29.3514 80.4754 28.901C80.4754 28.4506 80.402 27.9904 80.2551 27.5205C80.1181 27.0407 79.8782 26.6148 79.5355 26.2427C79.2026 25.8706 78.7424 25.6111 78.1549 25.4643C77.9493 25.4055 77.7241 25.3712 77.4793 25.3615C77.2345 25.3419 77.0142 25.3321 76.8184 25.3321H71.766V32.47Z" stroke="white" stroke-width="0.123219" stroke-miterlimit="10"/>
<path d="M94.6237 43.6028C93.0375 43.6028 91.652 43.2454 90.4673 42.5307C89.2825 41.8159 88.3621 40.8319 87.7061 39.5786C87.0599 38.3155 86.7367 36.8663 86.7367 35.2312C86.7367 33.5666 87.0696 32.1077 87.7355 30.8544C88.4013 29.6011 89.3266 28.622 90.5113 27.917C91.6961 27.212 93.0669 26.8595 94.6237 26.8595C96.2197 26.8595 97.6101 27.2169 98.7948 27.9317C99.9796 28.6465 100.9 29.6354 101.556 30.8985C102.212 32.1518 102.54 33.596 102.54 35.2312C102.54 36.8761 102.207 38.3302 101.541 39.5932C100.885 40.8465 99.9649 41.8306 98.7802 42.5454C97.5954 43.2503 96.2099 43.6028 94.6237 43.6028ZM94.6237 40.2835C96.0337 40.2835 97.0813 39.8136 97.7667 38.8736C98.4521 37.9336 98.7948 36.7195 98.7948 35.2312C98.7948 33.6939 98.4472 32.47 97.7521 31.5594C97.0569 30.639 96.0141 30.1788 94.6237 30.1788C93.674 30.1788 92.8906 30.3942 92.2738 30.8251C91.6667 31.2461 91.2163 31.8385 90.9226 32.6022C90.6288 33.3561 90.4819 34.2325 90.4819 35.2312C90.4819 36.7684 90.8295 37.9972 91.5247 38.9176C92.2297 39.8282 93.2627 40.2835 94.6237 40.2835Z" stroke="white" stroke-width="0.123219" stroke-miterlimit="10"/>
<path d="M113.399 43.6028C111.852 43.6028 110.554 43.2356 109.507 42.5013C108.459 41.7669 107.671 40.7682 107.142 39.5051C106.613 38.2322 106.349 36.8076 106.349 35.2312C106.349 33.6352 106.613 32.2056 107.142 30.9426C107.671 29.6795 108.444 28.6856 109.462 27.9611C110.491 27.2267 111.759 26.8595 113.266 26.8595C114.765 26.8595 116.062 27.2267 117.159 27.9611C118.265 28.6856 119.122 29.6795 119.729 30.9426C120.336 32.1958 120.639 33.6254 120.639 35.2312C120.639 36.8174 120.341 38.242 119.743 39.5051C119.146 40.7682 118.304 41.7669 117.217 42.5013C116.13 43.2356 114.858 43.6028 113.399 43.6028ZM105.747 43.1622V22.0128H109.316V32.0294H108.875V43.1622H105.747ZM112.855 40.4304C113.776 40.4304 114.534 40.2003 115.132 39.7401C115.729 39.2799 116.17 38.6582 116.454 37.8749C116.747 37.0818 116.894 36.2005 116.894 35.2312C116.894 34.2716 116.747 33.4002 116.454 32.6169C116.16 31.8238 115.705 31.1971 115.088 30.7369C114.471 30.2669 113.687 30.0319 112.738 30.0319C111.837 30.0319 111.103 30.2523 110.535 30.6929C109.967 31.1237 109.546 31.7308 109.272 32.5141C109.007 33.2876 108.875 34.1933 108.875 35.2312C108.875 36.2593 109.007 37.165 109.272 37.9483C109.546 38.7316 109.972 39.3436 110.549 39.7842C111.137 40.215 111.905 40.4304 112.855 40.4304Z" stroke="white" stroke-width="0.123219" stroke-miterlimit="10"/>
<path d="M125.36 25.0237L129.384 20.3972H132.351L136.361 25.0237H133.056L130.868 22.4093L128.665 25.0237H125.36ZM130.882 43.6028C129.296 43.6028 127.911 43.2454 126.726 42.5307C125.541 41.8159 124.621 40.8319 123.965 39.5786C123.319 38.3155 122.995 36.8663 122.995 35.2312C122.995 33.5666 123.328 32.1077 123.994 30.8544C124.66 29.6011 125.585 28.622 126.77 27.917C127.955 27.212 129.326 26.8595 130.882 26.8595C132.478 26.8595 133.869 27.2169 135.054 27.9317C136.238 28.6465 137.159 29.6354 137.815 30.8985C138.471 32.1518 138.799 33.596 138.799 35.2312C138.799 36.8761 138.466 38.3302 137.8 39.5932C137.144 40.8465 136.224 41.8306 135.039 42.5454C133.854 43.2503 132.469 43.6028 130.882 43.6028ZM130.882 40.2835C132.292 40.2835 133.34 39.8136 134.025 38.8736C134.711 37.9336 135.054 36.7195 135.054 35.2312C135.054 33.6939 134.706 32.47 134.011 31.5594C133.316 30.639 132.273 30.1788 130.882 30.1788C129.933 30.1788 129.149 30.3942 128.533 30.8251C127.925 31.2461 127.475 31.8385 127.181 32.6022C126.888 33.3561 126.741 34.2325 126.741 35.2312C126.741 36.7684 127.088 37.9972 127.783 38.9176C128.488 39.8282 129.521 40.2835 130.882 40.2835Z" stroke="white" stroke-width="0.123219" stroke-miterlimit="10"/>
<path d="M150.979 43.6028C148.864 43.6028 147.053 43.1426 145.545 42.2222C144.037 41.2921 142.877 39.9996 142.064 38.3448C141.261 36.6901 140.86 34.771 140.86 32.5875C140.86 30.404 141.261 28.4849 142.064 26.8302C142.877 25.1754 144.037 23.8878 145.545 22.9675C147.053 22.0373 148.864 21.5722 150.979 21.5722C153.417 21.5722 155.449 22.1841 157.074 23.4081C158.7 24.6222 159.84 26.2623 160.496 28.3282L156.928 29.3123C156.516 27.9317 155.816 26.8546 154.827 26.0811C153.838 25.2978 152.556 24.9062 150.979 24.9062C149.559 24.9062 148.375 25.2244 147.425 25.8608C146.485 26.4973 145.775 27.3932 145.295 28.5486C144.825 29.6941 144.585 31.0405 144.576 32.5875C144.576 34.1345 144.811 35.4858 145.281 36.6411C145.76 37.7867 146.475 38.6778 147.425 39.3142C148.375 39.9506 149.559 40.2689 150.979 40.2689C152.556 40.2689 153.838 39.8772 154.827 39.0939C155.816 38.3106 156.516 37.2335 156.928 35.8627L160.496 36.8468C159.84 38.9127 158.7 40.5577 157.074 41.7816C155.449 42.9958 153.417 43.6028 150.979 43.6028Z" stroke="white" stroke-width="0.123219" stroke-miterlimit="10"/>
<path d="M164.015 43.1622V22.0128H167.555V43.1622H164.015Z" stroke="white" stroke-width="0.123219" stroke-miterlimit="10"/>
<path d="M182.925 43.1622V35.5249C182.925 35.0256 182.891 34.4723 182.822 33.8653C182.754 33.2582 182.592 32.6756 182.338 32.1175C182.093 31.5496 181.721 31.0845 181.222 30.7222C180.732 30.36 180.066 30.1788 179.224 30.1788C178.774 30.1788 178.328 30.2523 177.888 30.3991C177.447 30.546 177.046 30.8006 176.683 31.1629C176.331 31.5153 176.047 32.0049 175.831 32.6316C175.616 33.2484 175.508 34.0415 175.508 35.0109L173.408 34.115C173.408 32.7637 173.667 31.5398 174.186 30.4432C174.715 29.3465 175.489 28.4751 176.507 27.8289C177.525 27.1729 178.779 26.8449 180.267 26.8449C181.442 26.8449 182.411 27.0407 183.175 27.4323C183.939 27.824 184.546 28.3234 184.996 28.9304C185.447 29.5375 185.779 30.1837 185.995 30.8691C186.21 31.5545 186.347 32.2056 186.406 32.8225C186.475 33.4296 186.509 33.924 186.509 34.3059V43.1622H182.925ZM171.925 43.1622V27.3001H175.082V32.2203H175.508V43.1622H171.925Z" stroke="white" stroke-width="0.123219" stroke-miterlimit="10"/>
</svg>
