<svg width="153" height="52" viewBox="0 0 153 52" fill="none" xmlns="http://www.w3.org/2000/svg">
<path d="M13.6227 26.1726C13.5962 26.212 13.5484 26.2818 13.4893 26.3682C11.303 29.546 8.19267 32.667 8.35793 33.7753C8.36399 33.8155 8.39887 34.0012 8.49438 34.2294C9.03792 35.5242 10.5874 35.835 10.9346 35.9047C11.2553 35.9692 11.4547 35.9373 11.6207 35.8539C11.7435 35.7925 11.8542 35.6955 11.9482 35.556C11.9648 35.531 12.0293 35.4552 12.0907 35.3506C12.3469 34.9117 13.437 32.5283 13.4863 31.0652C13.4893 30.975 13.4886 30.8923 13.4886 30.8923C13.4022 30.4944 13.3438 30.0926 13.3074 29.6878C13.2376 28.9191 13.2649 28.1542 13.3802 27.3916C13.4416 26.9815 13.5318 26.5774 13.622 26.1741L13.6227 26.1726Z" fill="#F6F6F6"/>
<path d="M10.6905 36.1776C9.66107 35.9313 8.77336 35.481 8.24423 34.5182C8.21011 34.4553 8.17752 34.4545 8.13052 34.5008C8.04789 34.5827 7.99104 34.6729 7.9683 34.7737C7.96602 34.7851 7.94783 34.8798 7.96678 34.9852C8.10702 35.7524 8.66117 36.2087 8.66117 36.2087C8.66117 36.2087 9.21836 36.6681 10.432 36.6325C10.4843 36.631 10.5533 36.6226 10.617 36.5802C10.7004 36.5248 10.736 36.4437 10.7716 36.3194C10.7997 36.2193 10.786 36.1996 10.6905 36.1769V36.1776Z" fill="#F6F6F6"/>
<path d="M24.0515 37.3807C23.0729 36.7742 22.0192 36.5847 20.8904 36.844C20.3317 36.9728 19.8079 37.1843 19.3879 37.5861C19.0877 37.8734 19.1036 38.1137 19.425 38.3806C19.6115 38.5352 19.817 38.6641 20.0209 38.7945C20.666 39.2092 21.3543 39.4896 22.1101 39.473C22.2936 39.4813 22.4452 39.4684 22.5953 39.4449C23.3321 39.3297 23.9689 39.0067 24.5215 38.5223C24.7497 38.3222 24.7543 38.1153 24.5814 37.8674C24.4412 37.6665 24.26 37.5088 24.0515 37.3799V37.3807Z" fill="#F6F6F6"/>
<path d="M32.2418 37.317C31.1797 36.7288 30.0669 36.6196 28.9108 36.9948C28.3794 37.1669 27.8965 37.4292 27.5084 37.8363C27.1923 38.1683 27.2264 38.4352 27.6084 38.6891C27.8533 38.8521 28.1186 38.9772 28.3824 39.1053C28.9032 39.3578 29.4452 39.5238 30.038 39.5101C30.3238 39.5207 30.6096 39.4828 30.8909 39.4093C31.5982 39.2236 32.1826 38.84 32.6754 38.3169C32.8513 38.1304 32.8611 37.9492 32.7231 37.7438C32.6011 37.5619 32.4343 37.4239 32.241 37.317H32.2418Z" fill="#F6F6F6"/>
<path d="M14.6158 16.9552C14.6446 16.9832 14.6735 17.012 14.7007 17.0409C14.8569 17.2069 14.8592 17.2107 15.0411 17.0765C15.5202 16.7217 15.9493 16.3093 16.3814 15.9022C16.7513 15.5535 17.1137 15.1965 17.4404 14.8061C17.4851 14.753 17.5359 14.7022 17.5518 14.6393C17.5518 14.5908 17.5246 14.568 17.4995 14.543C17.4359 14.4786 17.3707 14.4156 17.3062 14.352C17.1334 14.1806 17.1281 14.1746 16.9393 14.3254C16.0948 15.0001 15.3148 15.7423 14.5931 16.5435C14.4081 16.749 14.4157 16.755 14.6158 16.9544V16.9552Z" fill="#F6F6F6"/>
<path d="M14.5453 22.7112C14.9509 23.4466 15.5786 23.9461 16.323 24.3168C17.3168 24.8119 18.3888 25.0491 19.4789 25.2167C20.9139 25.4373 22.3633 25.5078 23.8128 25.5419C24.589 25.5608 25.3661 25.5449 26.1423 25.5449C27.66 25.5608 29.1761 25.5495 30.6908 25.4373C31.5656 25.3728 32.4373 25.2834 33.3 25.1249C34.2446 24.9513 35.1679 24.7087 36.0283 24.2691C37.5005 23.5163 38.2525 22.3337 38.2298 20.691C38.2146 19.5516 37.8583 18.513 37.2564 17.5495C37.2299 17.5071 37.1973 17.4707 37.1564 17.4388C36.8698 17.2152 36.5954 16.9779 36.3293 16.7316C35.7918 16.2358 35.2597 15.7362 34.7859 15.179C34.7472 15.1335 34.6858 15.085 34.7002 15.0274C34.7199 14.9463 34.6744 14.9235 34.6244 14.8894C34.3325 14.6901 34.0339 14.5006 33.7246 14.3285C31.6664 13.1838 29.4392 12.6228 27.0929 12.5061C25.2463 12.4136 23.4277 12.6008 21.6492 13.1231C20.3484 13.5052 19.1218 14.045 17.9885 14.7841C17.9521 14.8076 17.9013 14.822 17.8892 14.8712C17.8611 14.9895 17.7755 15.0706 17.7004 15.157C17.141 15.7991 16.5247 16.3859 15.8886 16.9537C15.6931 17.128 15.499 17.3054 15.2738 17.4426C15.2109 17.4813 15.1624 17.5245 15.1237 17.5851C14.4392 18.6616 14.0534 19.8222 14.114 21.1041C14.1405 21.6689 14.2709 22.2109 14.5476 22.712L14.5453 22.7112ZM32.1106 19.6153C32.1243 18.9808 32.147 18.347 32.3509 17.736C32.3775 17.6556 32.4093 17.5761 32.4457 17.4995C32.73 16.9021 33.2227 16.7414 33.8087 17.0666C34.4478 17.4206 34.8503 17.9748 35.1118 18.6351C35.5667 19.7836 35.2271 21.2762 34.3242 22.0911C34.0384 22.3489 33.7109 22.5194 33.3016 22.4338C33.0377 22.3792 32.849 22.2162 32.6959 22.0093C32.379 21.581 32.2524 21.0837 32.1736 20.572C32.1243 20.2558 32.1008 19.9367 32.1099 19.616L32.1106 19.6153ZM18.4653 17.3213C18.6761 17.1849 18.9133 17.1045 19.1711 17.1311C19.5433 17.1697 19.748 17.4184 19.892 17.7269C20.0505 18.0665 20.124 18.4296 20.1634 18.7973C20.2316 19.4394 20.2604 20.0822 20.168 20.7251C20.0975 21.2178 19.9845 21.6992 19.7101 22.1252C19.4857 22.4732 19.19 22.7165 18.7367 22.6695C18.4305 22.6377 18.1818 22.4815 17.9673 22.2769C17.4472 21.7818 17.1827 21.1595 17.0614 20.4689C17.0303 20.2915 17.0212 20.1118 17.0159 19.9276C17.0735 18.8307 17.5132 17.9361 18.4653 17.3206V17.3213Z" fill="#F6F6F6"/>
<path d="M37.3557 17.0545C37.6339 17.2827 37.6385 17.2774 37.8932 17.0257C38.0332 16.8877 38.0367 16.7429 37.9038 16.5913C37.4126 16.0303 36.8668 15.5209 36.3164 15.0183C36.0708 14.7939 35.8214 14.5741 35.5515 14.3785C35.4984 14.3398 35.4416 14.308 35.3954 14.2777C35.3415 14.2746 35.3211 14.3072 35.296 14.3307C35.2164 14.4073 35.1459 14.496 35.0572 14.562C34.9299 14.6575 34.9511 14.7371 35.0436 14.8424C35.7494 15.6452 36.5264 16.376 37.355 17.0545H37.3557Z" fill="#F6F6F6"/>
<path d="M38.3738 26.1726C38.464 26.5759 38.5542 26.9799 38.6156 27.3901C38.7301 28.1527 38.7582 28.9176 38.6884 29.6863C38.6513 30.0918 38.5936 30.4936 38.5072 30.8908C38.5072 30.8908 38.5072 30.9742 38.5095 31.0637C38.5588 32.5268 39.6489 34.9109 39.9051 35.3491C39.9665 35.4537 40.031 35.5295 40.0476 35.5545C40.1416 35.694 40.2523 35.791 40.3751 35.8524C40.5404 35.935 40.7398 35.9676 41.0612 35.9032C41.4091 35.8335 42.9586 35.5227 43.5014 34.2279C43.5977 33.9989 43.6318 33.8132 43.6379 33.7738C43.8031 32.6662 40.6927 29.5445 38.5065 26.3667C38.4473 26.281 38.4003 26.2113 38.373 26.1711L38.3738 26.1726Z" fill="#F6F6F6"/>
<path d="M41.306 36.1776C41.2105 36.2004 41.1969 36.2201 41.2249 36.3202C41.2598 36.4445 41.2962 36.5256 41.3796 36.5809C41.4433 36.6234 41.5122 36.6317 41.5645 36.6332C42.7782 36.6681 43.3354 36.2095 43.3354 36.2095C43.3354 36.2095 43.8888 35.7531 44.0298 34.9859C44.0487 34.8806 44.0313 34.7851 44.0283 34.7744C44.0048 34.6736 43.9487 34.5834 43.8661 34.5015C43.8191 34.4553 43.7872 34.4568 43.7523 34.519C43.2232 35.481 42.3355 35.932 41.306 36.1784V36.1776Z" fill="#F6F6F6"/>
<path d="M37.6953 25.0241C37.6044 24.7171 37.5263 24.4071 37.3875 24.116C37.3345 24.0045 37.2746 23.9848 37.1829 24.0773C37.0972 24.163 37.0108 24.2479 36.9175 24.3244C36.2345 24.8862 35.437 25.2227 34.5918 25.4638C33.2545 25.8451 31.8809 25.9929 30.4989 26.09C29.5423 26.1567 28.5841 26.1885 27.6251 26.2022C26.2447 26.2211 24.8642 26.2044 23.4845 26.162C22.3686 26.1279 21.255 26.0725 20.1467 25.9399C19.2855 25.8368 18.4327 25.692 17.6019 25.4395C16.5898 25.1318 15.6498 24.7035 14.9456 23.884C14.8554 23.7794 14.7947 23.7953 14.7356 23.9287C14.6257 24.1766 14.5393 24.4321 14.4634 24.6913C14.2337 25.4782 13.9957 26.2636 13.8956 27.0792C13.7751 28.0647 13.7842 29.0555 13.8615 30.0426C13.9502 31.1774 14.2641 32.2607 14.7083 33.3083C15.2579 34.6039 16.0266 35.7599 16.9893 36.7932C17.3707 37.2018 17.7451 37.624 18.347 37.7218C18.4016 37.7309 18.4547 37.7506 18.5085 37.765C18.7466 37.8317 18.7443 37.8302 18.8474 37.618C18.8823 37.5467 18.9277 37.4785 18.9785 37.4171C19.1392 37.2192 19.3416 37.0669 19.5607 36.9395C20.6667 36.2989 21.8425 36.1875 23.066 36.5271C23.7036 36.7037 24.2918 36.9819 24.7543 37.4664C24.9574 37.6786 25.1068 37.9227 25.0772 38.2313C25.0666 38.3427 25.1068 38.3647 25.2106 38.3647C25.6981 38.3624 26.1855 38.3616 26.6722 38.373C26.8322 38.3768 26.9292 38.3639 26.9125 38.1668C26.9049 38.0721 26.961 37.975 27.0065 37.8848C27.1354 37.6324 27.3325 37.4368 27.5576 37.273C28.5613 36.5438 29.684 36.2648 30.9182 36.4536C31.5307 36.5476 32.1098 36.7431 32.6185 37.1025C32.8634 37.2761 33.0855 37.4785 33.1704 37.7794C33.1984 37.8788 33.2379 37.8969 33.3304 37.8681C33.5479 37.8007 33.7662 37.7347 33.9868 37.6779C34.1794 37.6278 34.3348 37.5255 34.4766 37.3913C35.0542 36.8478 35.5856 36.2633 36.045 35.6197C37.5179 33.557 38.2889 31.2729 38.2692 28.7409C38.2669 28.2959 38.2646 27.851 38.2154 27.4075C38.1252 26.5956 37.9265 25.8064 37.6953 25.0241ZM31.8301 31.6102C31.5512 31.6034 31.2722 31.6049 30.994 31.5928C30.8712 31.5875 30.8022 31.6125 30.7976 31.7513C30.7817 32.2114 30.6756 32.6609 30.621 33.1165C30.6028 33.2666 30.4421 33.394 30.2579 33.4076C29.803 33.4417 29.3482 33.4728 28.8926 33.4994C28.0223 33.5501 27.1521 33.6131 26.2803 33.6381C25.7648 33.6532 25.2463 33.61 24.73 33.5858C24.2843 33.5653 23.8393 33.5357 23.3943 33.5077C22.9288 33.4781 22.4634 33.4471 21.9987 33.4137C21.8213 33.4008 21.7394 33.3235 21.6902 33.134C21.5833 32.7223 21.5105 32.3046 21.4483 31.8847C21.4165 31.6709 21.415 31.6588 21.2186 31.7012C21.0731 31.733 21.0147 31.6838 21.0003 31.5322C20.9707 31.2145 20.9616 31.2145 21.2914 31.1865C21.625 31.1584 21.9585 31.1327 22.2913 31.1016C22.3891 31.0925 22.4232 31.1213 22.4323 31.2214C22.4626 31.5814 22.4664 31.5807 22.1154 31.6239C21.9305 31.6466 21.9289 31.6466 21.9615 31.8369C22.0161 32.1515 22.0737 32.4661 22.1291 32.7807C22.145 32.8732 22.1768 32.9308 22.2913 32.9369C23.37 32.993 24.448 33.0635 25.5267 33.1112C26.3788 33.1491 27.2301 33.0915 28.0807 33.0339C28.6568 32.9945 29.2345 32.9657 29.8114 32.9316C29.872 32.9278 29.9327 32.9179 29.9933 32.9187C30.0919 32.9187 30.1373 32.8739 30.151 32.7784C30.2025 32.4327 30.2594 32.0878 30.2882 31.7391C30.2981 31.6201 30.2586 31.5822 30.1366 31.5852C29.8478 31.5928 29.5582 31.5845 29.2686 31.5898C29.1617 31.5913 29.1276 31.5534 29.1299 31.4503C29.1405 31.0023 29.0776 31.0841 29.4922 31.0796C29.8425 31.0758 30.1919 31.0788 30.5422 31.0788V31.1001C30.9583 31.1001 31.3745 31.1023 31.7907 31.0985C31.9112 31.097 31.9734 31.1243 31.9469 31.2608C31.9332 31.3328 31.9453 31.4101 31.9522 31.4844C31.9597 31.5739 31.9249 31.614 31.8316 31.6118L31.8301 31.6102ZM31.6323 30.6573C30.8863 30.6573 30.1396 30.6551 29.3937 30.6596C29.2618 30.6604 29.2042 30.6369 29.2095 30.4883C29.2216 30.1487 29.214 30.1487 29.5589 30.1487C29.7977 30.1487 30.0358 30.1441 30.2746 30.1502C30.3822 30.1532 30.4156 30.1146 30.4118 30.0107C30.4042 29.8363 30.4042 29.6605 30.4118 29.4861C30.4171 29.3694 30.3807 29.3307 30.2579 29.3292C29.6643 29.3239 29.0707 29.3103 28.4772 29.2981C28.2892 29.2943 28.1019 29.2814 27.9139 29.2807C27.8169 29.2807 27.7737 29.2504 27.782 29.1503C27.7858 29.1116 27.8101 29.0487 27.7449 29.0381C27.6827 29.0283 27.6562 29.0859 27.6448 29.1329C27.6069 29.2981 27.5713 29.4641 27.544 29.6317C27.5296 29.7181 27.5046 29.7545 27.406 29.7302C27.334 29.7128 27.2468 29.7014 27.1809 29.7257C27.0164 29.7856 26.9929 29.6885 26.9694 29.5718C26.9406 29.4262 26.9216 29.2777 26.8541 29.1063C26.7897 29.3072 26.7321 29.477 26.6805 29.6484C26.6532 29.7401 26.6153 29.7886 26.51 29.7408C26.4288 29.7037 26.3379 29.7075 26.256 29.734C26.1582 29.7659 26.1272 29.7226 26.109 29.6415C26.0718 29.477 26.0331 29.3133 25.9861 29.1147C25.8937 29.3095 25.8527 29.4816 25.8035 29.6506C25.7769 29.7401 25.7382 29.7765 25.6397 29.7386C25.5586 29.7075 25.4676 29.706 25.3858 29.7386C25.2834 29.7795 25.25 29.7317 25.2258 29.6453C25.1811 29.4839 25.1303 29.3239 25.0825 29.1632C25.0712 29.1655 25.059 29.1677 25.0477 29.1693C25.0105 29.3247 24.9718 29.4793 24.9362 29.6347C24.918 29.7135 24.8885 29.7583 24.7907 29.7317C24.7035 29.7075 24.6087 29.706 24.5208 29.7408C24.4275 29.778 24.3934 29.734 24.3714 29.6529C24.3313 29.5089 24.2858 29.3656 24.2388 29.2231C24.2183 29.1609 24.1903 29.0874 24.1092 29.1003C24.0265 29.1132 24.0675 29.1912 24.0682 29.2375C24.0697 29.3671 23.9674 29.3482 23.8961 29.3542C23.583 29.3815 23.2692 29.3997 22.9561 29.4225C22.5976 29.4482 22.239 29.4801 21.8797 29.5013C21.7698 29.5081 21.7432 29.5566 21.7508 29.6537C21.7652 29.8379 21.7781 30.0221 21.7804 30.2071C21.7819 30.3079 21.8221 30.3374 21.9183 30.3299C22.2974 30.3011 22.6779 30.2859 23.0562 30.248C23.4603 30.2078 23.4565 30.1995 23.5065 30.5868C23.5194 30.6907 23.4906 30.7347 23.3829 30.7415C22.9478 30.7688 22.5126 30.7999 22.0783 30.8302C21.3854 30.8779 20.6925 30.925 19.9996 30.975C19.9094 30.9818 19.873 30.9545 19.8655 30.8628C19.8329 30.4678 19.8298 30.4633 20.2286 30.4246C20.5212 30.3966 20.8153 30.3769 21.1079 30.364C21.2148 30.3587 21.2482 30.3208 21.2421 30.2192C21.227 29.9751 21.2171 29.7302 21.2103 29.4861C21.208 29.4118 21.2179 29.336 21.2308 29.2625C21.2588 29.101 21.3536 29.0123 21.515 29.0002C22.2079 28.9487 22.9008 28.8979 23.5929 28.8493C23.8181 28.8334 23.8226 28.8342 23.8597 28.6113C23.8764 28.5128 23.8999 28.415 23.9136 28.3164C23.9272 28.2164 23.9742 28.1701 24.0773 28.202C24.1645 28.2292 24.2524 28.2194 24.332 28.1883C24.4472 28.1436 24.4882 28.1921 24.514 28.2922C24.5382 28.3862 24.5716 28.4786 24.6322 28.5719C24.6671 28.4294 24.7065 28.2884 24.7338 28.1451C24.7512 28.0556 24.7975 28.0253 24.8824 28.0435C24.9832 28.0655 25.0855 28.0678 25.1833 28.0367C25.2811 28.0064 25.3114 28.0572 25.3342 28.1315C25.391 28.3232 25.4479 28.5143 25.5177 28.7508C25.5897 28.5241 25.6541 28.3384 25.7057 28.1504C25.7337 28.0488 25.7739 28.0033 25.8868 28.0412C25.9679 28.0685 26.0551 28.0807 26.1415 28.0496C26.256 28.0086 26.2962 28.0701 26.3167 28.1686C26.3477 28.3142 26.3834 28.4582 26.4235 28.6356C26.5138 28.4642 26.5479 28.3088 26.5911 28.158C26.6237 28.0428 26.679 27.9973 26.7988 28.0443C26.8397 28.0602 26.892 28.0731 26.9322 28.0625C27.1134 28.0132 27.2392 28.0382 27.2294 28.2884C27.2794 28.1982 27.337 28.1883 27.403 28.1951C27.5046 28.2057 27.6077 28.2126 27.7054 28.1822C27.8017 28.1519 27.8343 28.1989 27.8555 28.277C27.8851 28.3831 27.9276 28.4862 27.948 28.5939C27.9731 28.725 28.0519 28.7637 28.1739 28.7622C28.3415 28.7591 28.509 28.7606 28.6765 28.7644C29.3914 28.7819 30.107 28.8031 30.8219 28.8183C30.9257 28.8205 30.9621 28.8516 30.9599 28.9593C30.9515 29.2989 30.9591 29.6393 30.9508 29.9789C30.9477 30.0941 30.9902 30.1259 31.1001 30.1237C31.3594 30.1184 31.6179 30.1252 31.8764 30.1206C31.9825 30.1191 32.0166 30.157 32.0181 30.2609C32.0257 30.6596 32.0287 30.6596 31.63 30.6596L31.6323 30.6573Z" fill="#F6F6F6"/>
<path d="M31.9454 31.2593C31.9719 31.1228 31.9105 31.0955 31.7892 31.097C31.373 31.1016 30.9568 31.0985 30.5407 31.0985V31.0773C30.1904 31.0773 29.841 31.0743 29.4907 31.0781C29.0753 31.0826 29.139 31 29.1284 31.4488C29.1261 31.5526 29.161 31.5905 29.2671 31.5882C29.5567 31.5829 29.8463 31.592 30.1351 31.5837C30.2571 31.5807 30.2966 31.6186 30.2867 31.7376C30.2579 32.0863 30.201 32.4312 30.1495 32.7769C30.1358 32.8724 30.0904 32.9179 29.9918 32.9171C29.9312 32.9171 29.8705 32.927 29.8099 32.93C29.233 32.9641 28.6553 32.993 28.0792 33.0324C27.2286 33.09 26.3773 33.1476 25.5252 33.1097C24.4465 33.0619 23.3685 32.9914 22.2898 32.9353C22.1753 32.9293 22.1435 32.8717 22.1276 32.7792C22.073 32.4646 22.0146 32.15 21.96 31.8354C21.9274 31.6451 21.9289 31.6451 22.1139 31.6224C22.4657 31.5791 22.4611 31.5799 22.4308 31.2198C22.4225 31.1198 22.3876 31.091 22.2898 31.1001C21.957 31.1311 21.6235 31.1569 21.2899 31.185C20.9601 31.213 20.9685 31.2122 20.9988 31.5306C21.0132 31.6822 21.0716 31.7315 21.2171 31.6997C21.4135 31.6572 21.415 31.6694 21.4468 31.8831C21.509 32.3031 21.5818 32.7216 21.6886 33.1325C21.7379 33.3212 21.8206 33.3993 21.9972 33.4122C22.4619 33.4463 22.9273 33.4766 23.3928 33.5062C23.8385 33.5342 24.2835 33.5638 24.7285 33.5843C25.2448 33.6085 25.7633 33.6517 26.2788 33.6366C27.1506 33.6115 28.0208 33.5486 28.8911 33.4978C29.3467 33.4713 29.8015 33.4402 30.2564 33.4061C30.4406 33.3925 30.6013 33.2651 30.6195 33.115C30.6741 32.6594 30.7802 32.2099 30.7961 31.7497C30.8007 31.6118 30.8697 31.5867 30.9925 31.5913C31.2707 31.6027 31.5504 31.6019 31.8286 31.6087C31.9219 31.611 31.9575 31.5708 31.9491 31.4814C31.9423 31.4071 31.9294 31.3298 31.9438 31.2577L31.9454 31.2593Z" fill="#469C57"/>
<path d="M32.6966 22.0093C32.8497 22.2162 33.0385 22.3792 33.3023 22.4338C33.7117 22.5194 34.0392 22.3489 34.3249 22.0911C35.2278 21.2762 35.5674 19.7836 35.1126 18.6351C34.8511 17.9756 34.4493 17.4214 33.8094 17.0666C33.2227 16.7414 32.7307 16.9021 32.4464 17.4995C32.41 17.5761 32.3782 17.6557 32.3517 17.736C32.147 18.347 32.125 18.9808 32.1114 19.6153C32.1023 19.9359 32.1258 20.2551 32.1751 20.5712C32.2539 21.0837 32.3805 21.581 32.6974 22.0085L32.6966 22.0093Z" fill="#469C57"/>
<path d="M31.8786 30.1184C31.6201 30.1237 31.3609 30.1161 31.1024 30.1214C30.9925 30.1237 30.95 30.0918 30.953 29.9766C30.9606 29.637 30.9531 29.2966 30.9622 28.957C30.9644 28.8493 30.928 28.819 30.8242 28.816C30.1086 28.8008 29.3937 28.7796 28.6788 28.7622C28.5113 28.7584 28.3438 28.7569 28.1762 28.7599C28.0534 28.7614 27.9746 28.7227 27.9503 28.5916C27.9298 28.484 27.8882 28.3809 27.8578 28.2747C27.8358 28.1966 27.804 28.1504 27.7077 28.18C27.6099 28.2103 27.5068 28.2035 27.4053 28.1929C27.3386 28.186 27.2817 28.1959 27.2317 28.2861C27.2415 28.0352 27.1157 28.0109 26.9345 28.0602C26.8943 28.0708 26.842 28.0579 26.8011 28.042C26.6805 27.995 26.626 28.0397 26.5934 28.1557C26.5509 28.3066 26.5161 28.462 26.4258 28.6333C26.3849 28.4559 26.3493 28.3119 26.319 28.1663C26.2985 28.0685 26.2575 28.0064 26.1438 28.0473C26.0574 28.0784 25.9702 28.0663 25.8891 28.039C25.7762 28.0018 25.736 28.0466 25.7079 28.1481C25.6556 28.3369 25.592 28.5219 25.5199 28.7485C25.4502 28.512 25.3926 28.321 25.3365 28.1292C25.3145 28.0541 25.2834 28.0041 25.1856 28.0344C25.0886 28.0648 24.9863 28.0625 24.8847 28.0412C24.799 28.023 24.7535 28.0534 24.7361 28.1428C24.708 28.2861 24.6694 28.4279 24.6345 28.5696C24.5739 28.4764 24.5405 28.3839 24.5163 28.2899C24.4905 28.1906 24.4495 28.1413 24.3343 28.186C24.2555 28.2164 24.1668 28.227 24.0796 28.1997C23.9758 28.1678 23.9295 28.2141 23.9159 28.3141C23.9022 28.4127 23.8787 28.5105 23.862 28.609C23.8241 28.8319 23.8203 28.8312 23.5952 28.8471C22.9023 28.8948 22.2094 28.9456 21.5173 28.9979C21.3559 29.0101 21.2611 29.0988 21.233 29.2602C21.2202 29.3338 21.2103 29.4096 21.2126 29.4839C21.2194 29.7287 21.2285 29.9728 21.2444 30.2169C21.2505 30.3193 21.2179 30.3564 21.1102 30.3617C20.8169 30.3753 20.5235 30.3943 20.2309 30.4224C19.8321 30.461 19.8352 30.4648 19.8678 30.8605C19.8753 30.953 19.9117 30.9795 20.0019 30.9727C20.6948 30.9227 21.3877 30.8757 22.0806 30.8279C22.5157 30.7976 22.9508 30.7665 23.3852 30.7392C23.4929 30.7324 23.5217 30.6884 23.5088 30.5846C23.4587 30.1972 23.4625 30.2055 23.0585 30.2457C22.6802 30.2829 22.2997 30.2988 21.9206 30.3276C21.8243 30.3352 21.7842 30.3056 21.7826 30.2048C21.7804 30.0198 21.7675 29.8356 21.7531 29.6514C21.7455 29.5543 21.772 29.5051 21.882 29.499C22.2413 29.4778 22.5998 29.4467 22.9584 29.4202C23.2723 29.3974 23.5861 29.3792 23.8984 29.3519C23.9697 29.3459 24.072 29.3648 24.0705 29.2352C24.0705 29.1882 24.0288 29.1109 24.1114 29.098C24.1926 29.0851 24.2206 29.1586 24.2411 29.2208C24.2873 29.3633 24.3328 29.5066 24.3737 29.6506C24.3965 29.7317 24.4298 29.7765 24.5231 29.7386C24.6103 29.7037 24.705 29.7052 24.7929 29.7295C24.8915 29.7568 24.9203 29.712 24.9385 29.6324C24.9741 29.477 25.0128 29.3224 25.0499 29.167C25.0613 29.1647 25.0734 29.1624 25.0848 29.1609C25.1333 29.3216 25.1834 29.4816 25.2281 29.6431C25.2523 29.7295 25.2857 29.7772 25.388 29.7363C25.4699 29.7029 25.5601 29.7045 25.642 29.7363C25.7398 29.7742 25.7792 29.7386 25.8057 29.6484C25.855 29.4801 25.8959 29.3072 25.9884 29.1124C26.0347 29.311 26.0741 29.4755 26.1112 29.6393C26.1294 29.7204 26.1605 29.7636 26.2583 29.7317C26.3402 29.7052 26.4311 29.7014 26.5123 29.7386C26.6176 29.7863 26.6555 29.7386 26.6828 29.6461C26.7344 29.4748 26.792 29.3049 26.8564 29.1041C26.9239 29.2754 26.9428 29.424 26.9716 29.5695C26.9951 29.6863 27.0179 29.7833 27.1832 29.7234C27.2499 29.6999 27.337 29.7105 27.4083 29.7279C27.5068 29.7522 27.5326 29.7158 27.5463 29.6294C27.5743 29.4619 27.6092 29.2959 27.6471 29.1306C27.6577 29.0828 27.685 29.026 27.7472 29.0358C27.8123 29.0457 27.7881 29.1094 27.7843 29.148C27.7752 29.2489 27.8184 29.2784 27.9162 29.2784C28.1042 29.2784 28.2915 29.2913 28.4795 29.2959C29.073 29.308 29.6666 29.3216 30.2602 29.3269C30.3822 29.3285 30.4194 29.3671 30.414 29.4839C30.4057 29.6582 30.4065 29.8341 30.414 30.0084C30.4186 30.1123 30.3845 30.1502 30.2768 30.1479C30.0381 30.1419 29.8 30.1464 29.5612 30.1464C29.2163 30.1464 29.2246 30.1464 29.2118 30.486C29.2064 30.6346 29.2641 30.6589 29.396 30.6573C30.1419 30.6528 30.8886 30.6551 31.6346 30.6551C32.0333 30.6551 32.0303 30.6551 32.0227 30.2563C32.0212 30.1525 31.9871 30.1146 31.8809 30.1161L31.8786 30.1184Z" fill="#469C57"/>
<path d="M17.9673 22.2776C18.1818 22.4823 18.4305 22.6385 18.7367 22.6703C19.1908 22.7173 19.4864 22.474 19.7101 22.126C19.9845 21.7 20.0974 21.2186 20.1679 20.7258C20.2604 20.083 20.2309 19.4394 20.1634 18.7981C20.1247 18.4296 20.0512 18.0665 19.892 17.7277C19.748 17.4191 19.5433 17.1712 19.1711 17.1318C18.9133 17.1053 18.6761 17.1857 18.4653 17.3221C17.5124 17.9369 17.0735 18.8314 17.0159 19.9291C17.0212 20.1133 17.0303 20.2922 17.0614 20.4704C17.1827 21.161 17.4472 21.7841 17.9673 22.2784V22.2776Z" fill="#469C57"/>
<path d="M25.9983 1.47156C12.4523 1.47156 1.47162 12.4522 1.47162 25.9982C1.47162 39.5442 12.4523 50.5249 25.9983 50.5249C39.5443 50.5249 50.5249 39.5442 50.5249 25.9982C50.5249 12.4522 39.5443 1.47156 25.9983 1.47156ZM35.0572 14.5627C35.1452 14.4968 35.2157 14.4081 35.296 14.3315C35.3203 14.308 35.3415 14.2754 35.3953 14.2784C35.4416 14.308 35.4992 14.3406 35.5515 14.3793C35.8214 14.5748 36.0715 14.7955 36.3164 15.0191C36.8668 15.5224 37.4126 16.0311 37.9038 16.5921C38.0362 16.7437 38.0327 16.8885 37.8932 17.0265C37.6385 17.2781 37.6339 17.2827 37.3557 17.0553C36.5271 16.3768 35.7501 15.646 35.0444 14.8432C34.9519 14.7378 34.9299 14.6582 35.058 14.5627H35.0572ZM14.5931 16.5451C15.314 15.7438 16.0941 15.0016 16.9393 14.327C17.1281 14.1761 17.1334 14.1814 17.3062 14.3535C17.3707 14.4172 17.4351 14.4809 17.4995 14.5445C17.5246 14.5695 17.5526 14.5923 17.5518 14.6408C17.5359 14.7037 17.4851 14.7545 17.4404 14.8076C17.1137 15.1972 16.7521 15.555 16.3814 15.9037C15.9493 16.3108 15.5202 16.7225 15.0411 17.078C14.8599 17.2122 14.8577 17.2091 14.7007 17.0424C14.6734 17.0128 14.6446 16.9847 14.6158 16.9567C14.4157 16.7573 14.4081 16.7513 14.5931 16.5458V16.5451ZM15.1215 17.5851C15.1601 17.5245 15.2086 17.4813 15.2715 17.4426C15.4967 17.3047 15.6908 17.128 15.8864 16.9537C16.5224 16.3859 17.1387 15.7991 17.6981 15.157C17.7732 15.0706 17.8581 14.9895 17.8869 14.8712C17.899 14.822 17.9491 14.8076 17.9862 14.7841C19.1203 14.045 20.3461 13.506 21.6469 13.1231C23.4254 12.6008 25.244 12.4136 27.0907 12.5061C29.4377 12.6236 31.6641 13.1845 33.7223 14.3285C34.0316 14.5006 34.3302 14.6901 34.6221 14.8894C34.6721 14.9235 34.7176 14.9471 34.6979 15.0274C34.6843 15.085 34.7449 15.1343 34.7836 15.179C35.2574 15.7362 35.7895 16.2365 36.327 16.7316C36.5938 16.9779 36.8675 17.216 37.1541 17.4388C37.195 17.4707 37.2276 17.5071 37.2541 17.5495C37.8561 18.513 38.2123 19.5523 38.2275 20.691C38.2502 22.3337 37.4982 23.5163 36.0261 24.2691C35.1664 24.7087 34.2423 24.9513 33.2978 25.1249C32.4351 25.2834 31.564 25.3728 30.6885 25.4373C29.1738 25.5487 27.6577 25.5608 26.14 25.5449C25.3638 25.5449 24.5868 25.5601 23.8105 25.5419C22.3611 25.507 20.9124 25.4365 19.4766 25.2167C18.3865 25.0491 17.3153 24.8119 16.3207 24.3168C15.5763 23.9461 14.9494 23.4466 14.5431 22.7112C14.2664 22.2102 14.136 21.6681 14.1094 21.1034C14.0488 19.8207 14.4346 18.6601 15.1192 17.5844L15.1215 17.5851ZM10.7716 36.3217C10.7368 36.446 10.7004 36.5271 10.617 36.5824C10.5533 36.6249 10.4843 36.6332 10.432 36.6347C9.21835 36.6696 8.66116 36.211 8.66116 36.211C8.66116 36.211 8.10778 35.7546 7.96678 34.9875C7.94782 34.8821 7.96526 34.7866 7.96829 34.776C7.99179 34.6751 8.04788 34.5849 8.13051 34.503C8.17751 34.4568 8.20935 34.4583 8.24422 34.5205C8.77336 35.4825 9.66106 35.9335 10.6905 36.1799C10.786 36.2026 10.7997 36.2223 10.7716 36.3224V36.3217ZM13.3082 29.687C13.3453 30.0926 13.4029 30.4944 13.4893 30.8916C13.4893 30.8916 13.4893 30.975 13.4871 31.0644C13.4378 32.5275 12.3477 34.9117 12.0914 35.3498C12.03 35.4544 11.9656 35.5302 11.9489 35.5553C11.8549 35.6947 11.7442 35.7918 11.6214 35.8532C11.4562 35.9358 11.2568 35.9684 10.9354 35.904C10.5874 35.8342 9.03793 35.5234 8.49515 34.2286C8.39888 33.9997 8.36476 33.814 8.35869 33.7745C8.19343 32.667 11.3038 29.5453 13.4901 26.3674C13.5492 26.2818 13.5962 26.212 13.6235 26.1718C13.5333 26.5751 13.4431 26.9792 13.3817 27.3893C13.2672 28.1519 13.2392 28.9168 13.3089 29.6855L13.3082 29.687ZM24.52 38.5239C23.9682 39.0083 23.3306 39.3312 22.5938 39.4464C22.4437 39.4699 22.2921 39.4828 22.1086 39.4745C21.3528 39.4919 20.6645 39.2107 20.0194 38.796C19.8154 38.6649 19.61 38.5368 19.4235 38.3821C19.1028 38.1153 19.0869 37.875 19.3864 37.5876C19.8063 37.1859 20.3302 36.9736 20.8889 36.8455C22.0169 36.5862 23.0706 36.7758 24.05 37.3822C24.2585 37.5111 24.4397 37.6688 24.5799 37.8696C24.7528 38.1175 24.7475 38.3245 24.52 38.5246V38.5239ZM32.6746 38.3184C32.1819 38.8415 31.5974 39.2258 30.8901 39.4108C30.6096 39.4843 30.3238 39.5222 30.0373 39.5116C29.4445 39.5253 28.9017 39.3593 28.3817 39.1068C28.1179 38.9787 27.8525 38.8536 27.6077 38.6906C27.2264 38.4367 27.1915 38.1698 27.5076 37.8378C27.8957 37.43 28.3786 37.1684 28.91 36.9963C30.0661 36.6211 31.1789 36.7303 32.241 37.3185C32.4343 37.4254 32.6011 37.5634 32.7231 37.7453C32.8611 37.9508 32.8512 38.1319 32.6754 38.3184H32.6746ZM36.0435 35.6197C35.5833 36.2633 35.0519 36.847 34.475 37.3913C34.3333 37.5247 34.1779 37.6278 33.9853 37.6779C33.7647 37.7347 33.5464 37.8007 33.3288 37.8681C33.2364 37.8969 33.1969 37.8795 33.1689 37.7794C33.0847 37.4785 32.8619 37.2761 32.617 37.1025C32.1083 36.7424 31.5292 36.5468 30.9167 36.4536C29.6833 36.2648 28.5606 36.5445 27.5561 37.273C27.3302 37.4368 27.1331 37.6324 27.005 37.8848C26.9595 37.975 26.9027 38.072 26.911 38.1668C26.9277 38.3631 26.8306 38.3768 26.6707 38.373C26.1833 38.3616 25.6966 38.3624 25.2091 38.3647C25.1053 38.3647 25.0651 38.3427 25.0757 38.2312C25.1053 37.9227 24.9559 37.6778 24.7528 37.4663C24.2903 36.9819 23.7021 36.7045 23.0645 36.5271C21.841 36.1875 20.6652 36.2989 19.5592 36.9395C19.3401 37.0661 19.1377 37.2192 18.977 37.4171C18.927 37.4792 18.8807 37.5467 18.8459 37.618C18.742 37.831 18.7451 37.8317 18.507 37.765C18.4532 37.7499 18.4001 37.7302 18.3455 37.7218C17.7436 37.6248 17.3691 37.2018 16.9878 36.7932C16.0251 35.7607 15.2564 34.6039 14.7068 33.3083C14.2626 32.2607 13.948 31.1774 13.86 30.0426C13.7827 29.0555 13.7744 28.0647 13.8941 27.0792C13.9934 26.2636 14.2315 25.4782 14.4619 24.6913C14.5377 24.4321 14.6249 24.1758 14.7341 23.9287C14.7932 23.7953 14.8539 23.7794 14.9441 23.884C15.6483 24.7034 16.5883 25.1318 17.6004 25.4395C18.4312 25.692 19.284 25.8368 20.1452 25.9399C21.2543 26.0725 22.3679 26.1279 23.483 26.162C24.8627 26.2037 26.2431 26.2211 27.6236 26.2021C28.5826 26.1885 29.5408 26.1567 30.4974 26.09C31.8794 25.9937 33.253 25.8451 34.5903 25.4638C35.4348 25.2227 36.233 24.8861 36.916 24.3244C37.0093 24.2479 37.0957 24.1629 37.1814 24.0773C37.2731 23.9848 37.333 24.0045 37.386 24.1159C37.5248 24.407 37.6028 24.7171 37.6938 25.0241C37.925 25.8064 38.1229 26.5956 38.2139 27.4075C38.2631 27.8502 38.2654 28.2952 38.2677 28.7409C38.2874 31.2721 37.5164 33.557 36.0435 35.6197ZM43.8645 34.5015C43.9472 34.5834 44.004 34.6736 44.0267 34.7744C44.029 34.7858 44.0472 34.8806 44.0283 34.9859C43.888 35.7531 43.3339 36.2095 43.3339 36.2095C43.3339 36.2095 42.7767 36.6689 41.563 36.6332C41.5107 36.6317 41.4417 36.6234 41.3781 36.5809C41.2947 36.5256 41.259 36.4445 41.2234 36.3202C41.1954 36.2201 41.209 36.2004 41.3045 36.1776C42.334 35.9313 43.2217 35.481 43.7508 34.5182C43.7849 34.4553 43.8175 34.4545 43.8645 34.5008V34.5015ZM43.6363 33.7753C43.6303 33.8155 43.5954 34.0012 43.4999 34.2294C42.9564 35.5242 41.4069 35.835 41.0597 35.9047C40.739 35.9692 40.5396 35.9373 40.3736 35.8539C40.2508 35.7925 40.1401 35.6955 40.0461 35.556C40.0294 35.531 39.965 35.4552 39.9036 35.3506C39.6474 34.9117 38.5573 32.5283 38.508 31.0652C38.505 30.975 38.5057 30.8923 38.5057 30.8923C38.5921 30.4944 38.6505 30.0926 38.6869 29.6878C38.7566 28.9191 38.7294 28.1542 38.6141 27.3916C38.5527 26.9815 38.4625 26.5774 38.3723 26.1741C38.3988 26.2135 38.4466 26.2833 38.5057 26.3697C40.692 29.5475 43.8024 32.6685 43.6371 33.7768L43.6363 33.7753Z" fill="#469C57"/>
<path d="M55.4303 35.0669V17.8841H62.5301C62.6972 17.8841 62.9119 17.8921 63.1744 17.908C63.437 17.916 63.6796 17.9398 63.9023 17.9796C64.8967 18.1308 65.7161 18.4609 66.3604 18.97C67.0127 19.4791 67.494 20.1235 67.8043 20.9031C68.1225 21.6747 68.2815 22.5338 68.2815 23.4805C68.2815 24.8806 67.9276 26.0857 67.2196 27.096C66.5116 28.0983 65.4257 28.7188 63.962 28.9575L62.733 29.0649H58.306V35.0669H55.4303ZM65.2984 35.0669L61.9096 28.0745L64.8331 27.4301L68.556 35.0669H65.2984ZM58.306 26.3801H62.4108C62.5699 26.3801 62.7489 26.3721 62.9477 26.3562C63.1466 26.3403 63.3296 26.3085 63.4966 26.2607C63.9739 26.1414 64.3478 25.9306 64.6183 25.6283C64.8967 25.326 65.0916 24.984 65.203 24.6021C65.3223 24.2203 65.382 23.8464 65.382 23.4805C65.382 23.1145 65.3223 22.7407 65.203 22.3588C65.0916 21.969 64.8967 21.623 64.6183 21.3207C64.3478 21.0184 63.9739 20.8076 63.4966 20.6883C63.3296 20.6405 63.1466 20.6127 62.9477 20.6048C62.7489 20.5888 62.5699 20.5809 62.4108 20.5809H58.306V26.3801Z" fill="#469C57"/>
<path d="M76.8767 35.4249C75.588 35.4249 74.4623 35.1345 73.4998 34.5538C72.5372 33.9731 71.7894 33.1736 71.2565 32.1554C70.7314 31.1292 70.4689 29.9519 70.4689 28.6234C70.4689 27.271 70.7394 26.0857 71.2803 25.0675C71.8213 24.0493 72.573 23.2538 73.5356 22.681C74.4981 22.1082 75.6118 21.8219 76.8767 21.8219C78.1733 21.8219 79.3029 22.1122 80.2655 22.6929C81.228 23.2736 81.9758 24.0771 82.5088 25.1033C83.0418 26.1215 83.3083 27.2949 83.3083 28.6234C83.3083 29.9598 83.0378 31.1411 82.4968 32.1673C81.9639 33.1856 81.2161 33.985 80.2535 34.5657C79.291 35.1385 78.1654 35.4249 76.8767 35.4249ZM76.8767 32.7281C78.0222 32.7281 78.8734 32.3463 79.4302 31.5826C79.9871 30.8189 80.2655 29.8325 80.2655 28.6234C80.2655 27.3744 79.9831 26.3801 79.4183 25.6403C78.8535 24.8925 78.0063 24.5186 76.8767 24.5186C76.105 24.5186 75.4686 24.6936 74.9675 25.0436C74.4743 25.3857 74.1083 25.867 73.8697 26.4875C73.631 27.1 73.5117 27.812 73.5117 28.6234C73.5117 29.8723 73.7941 30.8707 74.3589 31.6184C74.9317 32.3582 75.7709 32.7281 76.8767 32.7281Z" fill="#469C57"/>
<path d="M92.1303 35.4249C90.8734 35.4249 89.8193 35.1266 88.9682 34.5299C88.117 33.9333 87.4766 33.1219 87.047 32.0957C86.6175 31.0616 86.4027 29.9041 86.4027 28.6234C86.4027 27.3267 86.6175 26.1653 87.047 25.1391C87.4766 24.1129 88.105 23.3055 88.9324 22.7168C89.7676 22.1202 90.7978 21.8219 92.0229 21.8219C93.24 21.8219 94.294 22.1202 95.185 22.7168C96.0839 23.3055 96.78 24.1129 97.2732 25.1391C97.7664 26.1573 98.013 27.3188 98.013 28.6234C98.013 29.9121 97.7704 31.0695 97.2851 32.0957C96.7998 33.1219 96.1157 33.9333 95.2327 34.5299C94.3497 35.1266 93.3156 35.4249 92.1303 35.4249ZM85.9135 35.0669V17.8841H88.813V26.0221H88.4551V35.0669H85.9135ZM91.6888 32.8475C92.4365 32.8475 93.053 32.6605 93.5383 32.2866C94.0236 31.9128 94.3815 31.4076 94.6122 30.7712C94.8509 30.1269 94.9702 29.4109 94.9702 28.6234C94.9702 27.8438 94.8509 27.1358 94.6122 26.4994C94.3736 25.855 94.0037 25.3459 93.5025 24.972C93.0013 24.5902 92.3649 24.3993 91.5933 24.3993C90.8615 24.3993 90.2648 24.5783 89.8034 24.9362C89.342 25.2863 89 25.7795 88.7772 26.4159C88.5625 27.0443 88.4551 27.7801 88.4551 28.6234C88.4551 29.4586 88.5625 30.1945 88.7772 30.8309C89 31.4673 89.346 31.9645 89.8154 32.3224C90.2927 32.6725 90.9171 32.8475 91.6888 32.8475Z" fill="#469C57"/>
<path d="M101.848 20.3303L105.118 16.5716H107.528L110.786 20.3303H108.101L106.323 18.2063L104.533 20.3303H101.848ZM106.335 35.4249C105.046 35.4249 103.921 35.1345 102.958 34.5538C101.995 33.9731 101.248 33.1736 100.715 32.1554C100.19 31.1292 99.9272 29.9519 99.9272 28.6234C99.9272 27.271 100.198 26.0857 100.739 25.0675C101.28 24.0493 102.031 23.2538 102.994 22.681C103.956 22.1082 105.07 21.8219 106.335 21.8219C107.632 21.8219 108.761 22.1122 109.724 22.6929C110.686 23.2736 111.434 24.0771 111.967 25.1033C112.5 26.1215 112.767 27.2949 112.767 28.6234C112.767 29.9598 112.496 31.1411 111.955 32.1673C111.422 33.1856 110.674 33.985 109.712 34.5657C108.749 35.1385 107.624 35.4249 106.335 35.4249ZM106.335 32.7281C107.48 32.7281 108.332 32.3463 108.888 31.5826C109.445 30.8189 109.724 29.8325 109.724 28.6234C109.724 27.3744 109.441 26.3801 108.877 25.6403C108.312 24.8925 107.465 24.5186 106.335 24.5186C105.563 24.5186 104.927 24.6936 104.426 25.0436C103.933 25.3857 103.567 25.867 103.328 26.4875C103.089 27.1 102.97 27.812 102.97 28.6234C102.97 29.8723 103.252 30.8707 103.817 31.6184C104.39 32.3582 105.229 32.7281 106.335 32.7281Z" fill="#469C57"/>
<path d="M122.662 35.4249C120.944 35.4249 119.473 35.051 118.247 34.3032C117.022 33.5475 116.08 32.4974 115.419 31.1531C114.767 29.8087 114.441 28.2495 114.441 26.4755C114.441 24.7016 114.767 23.1424 115.419 21.798C116.08 20.4536 117.022 19.4075 118.247 18.6598C119.473 17.904 120.944 17.5262 122.662 17.5262C124.643 17.5262 126.294 18.0234 127.614 19.0177C128.935 20.0042 129.862 21.3366 130.395 23.0151L127.495 23.8146C127.161 22.6929 126.592 21.8179 125.789 21.1894C124.985 20.553 123.943 20.2348 122.662 20.2348C121.509 20.2348 120.546 20.4934 119.775 21.0105C119.011 21.5275 118.434 22.2554 118.045 23.1941C117.663 24.1248 117.468 25.2186 117.46 26.4755C117.46 27.7324 117.651 28.8302 118.033 29.7689C118.422 30.6996 119.003 31.4235 119.775 31.9406C120.546 32.4577 121.509 32.7162 122.662 32.7162C123.943 32.7162 124.985 32.398 125.789 31.7616C126.592 31.1252 127.161 30.2502 127.495 29.1365L130.395 29.9359C129.862 31.6144 128.935 32.9509 127.614 33.9453C126.294 34.9317 124.643 35.4249 122.662 35.4249Z" fill="#469C57"/>
<path d="M133.253 35.0669V17.8841H136.129V35.0669H133.253Z" fill="#469C57"/>
<path d="M148.617 35.0669V28.862C148.617 28.4563 148.589 28.0069 148.533 27.5137C148.478 27.0204 148.346 26.5471 148.14 26.0937C147.941 25.6323 147.638 25.2544 147.233 24.9601C146.835 24.6658 146.294 24.5186 145.61 24.5186C145.244 24.5186 144.882 24.5783 144.524 24.6976C144.166 24.8169 143.84 25.0237 143.546 25.3181C143.259 25.6045 143.029 26.0022 142.854 26.5113C142.678 27.0125 142.591 27.6568 142.591 28.4444L140.885 27.7165C140.885 26.6187 141.095 25.6243 141.517 24.7334C141.947 23.8424 142.575 23.1344 143.402 22.6094C144.23 22.0764 145.248 21.8099 146.457 21.8099C147.412 21.8099 148.199 21.969 148.82 22.2872C149.44 22.6054 149.933 23.0111 150.299 23.5043C150.665 23.9976 150.936 24.5226 151.111 25.0794C151.286 25.6363 151.397 26.1653 151.445 26.6664C151.501 27.1597 151.528 27.5614 151.528 27.8716V35.0669H148.617ZM139.679 35.0669V22.1798H142.245V26.1772H142.591V35.0669H139.679Z" fill="#469C57"/>
<path d="M13.6227 26.1726C13.5962 26.212 13.5484 26.2818 13.4893 26.3682C11.303 29.546 8.19267 32.667 8.35793 33.7753C8.36399 33.8155 8.39887 34.0012 8.49438 34.2294C9.03792 35.5242 10.5874 35.835 10.9346 35.9047C11.2553 35.9692 11.4547 35.9373 11.6207 35.8539C11.7435 35.7925 11.8542 35.6955 11.9482 35.556C11.9648 35.531 12.0293 35.4552 12.0907 35.3506C12.3469 34.9117 13.437 32.5283 13.4863 31.0652C13.4893 30.975 13.4886 30.8923 13.4886 30.8923C13.4022 30.4944 13.3438 30.0926 13.3074 29.6878C13.2376 28.9191 13.2649 28.1542 13.3802 27.3916C13.4416 26.9815 13.5318 26.5774 13.622 26.1741L13.6227 26.1726Z" stroke="#469C57" stroke-width="0.100109" stroke-miterlimit="10"/>
<path d="M10.6905 36.1776C9.66107 35.9313 8.77336 35.481 8.24423 34.5182C8.21011 34.4553 8.17752 34.4545 8.13052 34.5008C8.04789 34.5827 7.99104 34.6729 7.9683 34.7737C7.96602 34.7851 7.94783 34.8798 7.96678 34.9852C8.10702 35.7524 8.66117 36.2087 8.66117 36.2087C8.66117 36.2087 9.21836 36.6681 10.432 36.6325C10.4843 36.631 10.5533 36.6226 10.617 36.5802C10.7004 36.5248 10.736 36.4437 10.7716 36.3194C10.7997 36.2193 10.786 36.1996 10.6905 36.1769V36.1776Z" stroke="#469C57" stroke-width="0.100109" stroke-miterlimit="10"/>
<path d="M24.0515 37.3807C23.0729 36.7742 22.0192 36.5847 20.8904 36.844C20.3317 36.9728 19.8079 37.1843 19.3879 37.5861C19.0877 37.8734 19.1036 38.1137 19.425 38.3806C19.6115 38.5352 19.817 38.6641 20.0209 38.7945C20.666 39.2092 21.3543 39.4896 22.1101 39.473C22.2936 39.4813 22.4452 39.4684 22.5953 39.4449C23.3321 39.3297 23.9689 39.0067 24.5215 38.5223C24.7497 38.3222 24.7543 38.1153 24.5814 37.8674C24.4412 37.6665 24.26 37.5088 24.0515 37.3799V37.3807Z" stroke="#469C57" stroke-width="0.100109" stroke-miterlimit="10"/>
<path d="M32.2418 37.317C31.1797 36.7288 30.0669 36.6196 28.9108 36.9948C28.3794 37.1669 27.8965 37.4292 27.5084 37.8363C27.1923 38.1683 27.2264 38.4352 27.6084 38.6891C27.8533 38.8521 28.1186 38.9772 28.3824 39.1053C28.9032 39.3578 29.4452 39.5238 30.038 39.5101C30.3238 39.5207 30.6096 39.4828 30.8909 39.4093C31.5982 39.2236 32.1826 38.84 32.6754 38.3169C32.8513 38.1304 32.8611 37.9492 32.7231 37.7438C32.6011 37.5619 32.4343 37.4239 32.241 37.317H32.2418Z" stroke="#469C57" stroke-width="0.100109" stroke-miterlimit="10"/>
<path d="M14.6158 16.9552C14.6446 16.9832 14.6735 17.012 14.7007 17.0409C14.8569 17.2069 14.8592 17.2107 15.0411 17.0765C15.5202 16.7217 15.9493 16.3093 16.3814 15.9022C16.7513 15.5535 17.1137 15.1965 17.4404 14.8061C17.4851 14.753 17.5359 14.7022 17.5518 14.6393C17.5518 14.5908 17.5246 14.568 17.4995 14.543C17.4359 14.4786 17.3707 14.4156 17.3062 14.352C17.1334 14.1806 17.1281 14.1746 16.9393 14.3254C16.0948 15.0001 15.3148 15.7423 14.5931 16.5435C14.4081 16.749 14.4157 16.755 14.6158 16.9544V16.9552Z" stroke="#469C57" stroke-width="0.100109" stroke-miterlimit="10"/>
<path d="M14.5453 22.7112C14.9509 23.4466 15.5786 23.9461 16.323 24.3168C17.3168 24.8119 18.3888 25.0491 19.4789 25.2167C20.9139 25.4373 22.3633 25.5078 23.8128 25.5419C24.589 25.5608 25.3661 25.5449 26.1423 25.5449C27.66 25.5608 29.1761 25.5495 30.6908 25.4373C31.5656 25.3728 32.4373 25.2834 33.3 25.1249C34.2446 24.9513 35.1679 24.7087 36.0283 24.2691C37.5005 23.5163 38.2525 22.3337 38.2298 20.691C38.2146 19.5516 37.8583 18.513 37.2564 17.5495C37.2299 17.5071 37.1973 17.4707 37.1564 17.4388C36.8698 17.2152 36.5954 16.9779 36.3293 16.7316C35.7918 16.2358 35.2597 15.7362 34.7859 15.179C34.7472 15.1335 34.6858 15.085 34.7002 15.0274C34.7199 14.9463 34.6744 14.9235 34.6244 14.8894C34.3325 14.6901 34.0339 14.5006 33.7246 14.3285C31.6664 13.1838 29.4392 12.6228 27.0929 12.5061C25.2463 12.4136 23.4277 12.6008 21.6492 13.1231C20.3484 13.5052 19.1218 14.045 17.9885 14.7841C17.9521 14.8076 17.9013 14.822 17.8892 14.8712C17.8611 14.9895 17.7755 15.0706 17.7004 15.157C17.141 15.7991 16.5247 16.3859 15.8886 16.9537C15.6931 17.128 15.499 17.3054 15.2738 17.4426C15.2109 17.4813 15.1624 17.5245 15.1237 17.5851C14.4392 18.6616 14.0534 19.8222 14.114 21.1041C14.1405 21.6689 14.2709 22.2109 14.5476 22.712L14.5453 22.7112ZM32.1106 19.6153C32.1243 18.9808 32.147 18.347 32.3509 17.736C32.3775 17.6556 32.4093 17.5761 32.4457 17.4995C32.73 16.9021 33.2227 16.7414 33.8087 17.0666C34.4478 17.4206 34.8503 17.9748 35.1118 18.6351C35.5667 19.7836 35.2271 21.2762 34.3242 22.0911C34.0384 22.3489 33.7109 22.5194 33.3016 22.4338C33.0377 22.3792 32.849 22.2162 32.6959 22.0093C32.379 21.581 32.2524 21.0837 32.1736 20.572C32.1243 20.2558 32.1008 19.9367 32.1099 19.616L32.1106 19.6153ZM18.4653 17.3213C18.6761 17.1849 18.9133 17.1045 19.1711 17.1311C19.5433 17.1697 19.748 17.4184 19.892 17.7269C20.0505 18.0665 20.124 18.4296 20.1634 18.7973C20.2316 19.4394 20.2604 20.0822 20.168 20.7251C20.0975 21.2178 19.9845 21.6992 19.7101 22.1252C19.4857 22.4732 19.19 22.7165 18.7367 22.6695C18.4305 22.6377 18.1818 22.4815 17.9673 22.2769C17.4472 21.7818 17.1827 21.1595 17.0614 20.4689C17.0303 20.2915 17.0212 20.1118 17.0159 19.9276C17.0735 18.8307 17.5132 17.9361 18.4653 17.3206V17.3213Z" stroke="#469C57" stroke-width="0.100109" stroke-miterlimit="10"/>
<path d="M37.3557 17.0545C37.6339 17.2827 37.6385 17.2774 37.8932 17.0257C38.0332 16.8877 38.0367 16.7429 37.9038 16.5913C37.4126 16.0303 36.8668 15.5209 36.3164 15.0183C36.0708 14.7939 35.8214 14.5741 35.5515 14.3785C35.4984 14.3398 35.4416 14.308 35.3954 14.2777C35.3415 14.2746 35.3211 14.3072 35.296 14.3307C35.2164 14.4073 35.1459 14.496 35.0572 14.562C34.9299 14.6575 34.9511 14.7371 35.0436 14.8424C35.7494 15.6452 36.5264 16.376 37.355 17.0545H37.3557Z" stroke="#469C57" stroke-width="0.100109" stroke-miterlimit="10"/>
<path d="M38.3738 26.1726C38.464 26.5759 38.5542 26.9799 38.6156 27.3901C38.7301 28.1527 38.7582 28.9176 38.6884 29.6863C38.6513 30.0918 38.5936 30.4936 38.5072 30.8908C38.5072 30.8908 38.5072 30.9742 38.5095 31.0637C38.5588 32.5268 39.6489 34.9109 39.9051 35.3491C39.9665 35.4537 40.031 35.5295 40.0476 35.5545C40.1416 35.694 40.2523 35.791 40.3751 35.8524C40.5404 35.935 40.7398 35.9676 41.0612 35.9032C41.4091 35.8335 42.9586 35.5227 43.5014 34.2279C43.5977 33.9989 43.6318 33.8132 43.6379 33.7738C43.8031 32.6662 40.6927 29.5445 38.5065 26.3667C38.4473 26.281 38.4003 26.2113 38.373 26.1711L38.3738 26.1726Z" stroke="#469C57" stroke-width="0.100109" stroke-miterlimit="10"/>
<path d="M41.306 36.1776C41.2105 36.2004 41.1969 36.2201 41.2249 36.3202C41.2598 36.4445 41.2962 36.5256 41.3796 36.5809C41.4433 36.6234 41.5122 36.6317 41.5645 36.6332C42.7782 36.6681 43.3354 36.2095 43.3354 36.2095C43.3354 36.2095 43.8888 35.7531 44.0298 34.9859C44.0487 34.8806 44.0313 34.7851 44.0283 34.7744C44.0048 34.6736 43.9487 34.5834 43.8661 34.5015C43.8191 34.4553 43.7872 34.4568 43.7523 34.519C43.2232 35.481 42.3355 35.932 41.306 36.1784V36.1776Z" stroke="#469C57" stroke-width="0.100109" stroke-miterlimit="10"/>
<path d="M37.6953 25.0241C37.6044 24.7171 37.5263 24.4071 37.3875 24.116C37.3345 24.0045 37.2746 23.9848 37.1829 24.0773C37.0972 24.163 37.0108 24.2479 36.9175 24.3244C36.2345 24.8862 35.437 25.2227 34.5918 25.4638C33.2545 25.8451 31.8809 25.9929 30.4989 26.09C29.5423 26.1567 28.5841 26.1885 27.6251 26.2022C26.2447 26.2211 24.8642 26.2044 23.4845 26.162C22.3686 26.1279 21.255 26.0725 20.1467 25.9399C19.2855 25.8368 18.4327 25.692 17.6019 25.4395C16.5898 25.1318 15.6498 24.7035 14.9456 23.884C14.8554 23.7794 14.7947 23.7953 14.7356 23.9287C14.6257 24.1766 14.5393 24.4321 14.4634 24.6913C14.2337 25.4782 13.9957 26.2636 13.8956 27.0792C13.7751 28.0647 13.7842 29.0555 13.8615 30.0426C13.9502 31.1774 14.2641 32.2607 14.7083 33.3083C15.2579 34.6039 16.0266 35.7599 16.9893 36.7932C17.3707 37.2018 17.7451 37.624 18.347 37.7218C18.4016 37.7309 18.4547 37.7506 18.5085 37.765C18.7466 37.8317 18.7443 37.8302 18.8474 37.618C18.8823 37.5467 18.9277 37.4785 18.9785 37.4171C19.1392 37.2192 19.3416 37.0669 19.5607 36.9395C20.6667 36.2989 21.8425 36.1875 23.066 36.5271C23.7036 36.7037 24.2918 36.9819 24.7543 37.4664C24.9574 37.6786 25.1068 37.9227 25.0772 38.2313C25.0666 38.3427 25.1068 38.3647 25.2106 38.3647C25.6981 38.3624 26.1855 38.3616 26.6722 38.373C26.8322 38.3768 26.9292 38.3639 26.9125 38.1668C26.9049 38.0721 26.961 37.975 27.0065 37.8848C27.1354 37.6324 27.3325 37.4368 27.5576 37.273C28.5613 36.5438 29.684 36.2648 30.9182 36.4536C31.5307 36.5476 32.1098 36.7431 32.6185 37.1025C32.8634 37.2761 33.0855 37.4785 33.1704 37.7794C33.1984 37.8788 33.2379 37.8969 33.3304 37.8681C33.5479 37.8007 33.7662 37.7347 33.9868 37.6779C34.1794 37.6278 34.3348 37.5255 34.4766 37.3913C35.0542 36.8478 35.5856 36.2633 36.045 35.6197C37.5179 33.557 38.2889 31.2729 38.2692 28.7409C38.2669 28.2959 38.2646 27.851 38.2154 27.4075C38.1252 26.5956 37.9265 25.8064 37.6953 25.0241ZM31.8301 31.6102C31.5512 31.6034 31.2722 31.6049 30.994 31.5928C30.8712 31.5875 30.8022 31.6125 30.7976 31.7513C30.7817 32.2114 30.6756 32.6609 30.621 33.1165C30.6028 33.2666 30.4421 33.394 30.2579 33.4076C29.803 33.4417 29.3482 33.4728 28.8926 33.4994C28.0223 33.5501 27.1521 33.6131 26.2803 33.6381C25.7648 33.6532 25.2463 33.61 24.73 33.5858C24.2843 33.5653 23.8393 33.5357 23.3943 33.5077C22.9288 33.4781 22.4634 33.4471 21.9987 33.4137C21.8213 33.4008 21.7394 33.3235 21.6902 33.134C21.5833 32.7223 21.5105 32.3046 21.4483 31.8847C21.4165 31.6709 21.415 31.6588 21.2186 31.7012C21.0731 31.733 21.0147 31.6838 21.0003 31.5322C20.9707 31.2145 20.9616 31.2145 21.2914 31.1865C21.625 31.1584 21.9585 31.1327 22.2913 31.1016C22.3891 31.0925 22.4232 31.1213 22.4323 31.2214C22.4626 31.5814 22.4664 31.5807 22.1154 31.6239C21.9305 31.6466 21.9289 31.6466 21.9615 31.8369C22.0161 32.1515 22.0737 32.4661 22.1291 32.7807C22.145 32.8732 22.1768 32.9308 22.2913 32.9369C23.37 32.993 24.448 33.0635 25.5267 33.1112C26.3788 33.1491 27.2301 33.0915 28.0807 33.0339C28.6568 32.9945 29.2345 32.9657 29.8114 32.9316C29.872 32.9278 29.9327 32.9179 29.9933 32.9187C30.0919 32.9187 30.1373 32.8739 30.151 32.7784C30.2025 32.4327 30.2594 32.0878 30.2882 31.7391C30.2981 31.6201 30.2586 31.5822 30.1366 31.5852C29.8478 31.5928 29.5582 31.5845 29.2686 31.5898C29.1617 31.5913 29.1276 31.5534 29.1299 31.4503C29.1405 31.0023 29.0776 31.0841 29.4922 31.0796C29.8425 31.0758 30.1919 31.0788 30.5422 31.0788V31.1001C30.9583 31.1001 31.3745 31.1023 31.7907 31.0985C31.9112 31.097 31.9734 31.1243 31.9469 31.2608C31.9332 31.3328 31.9453 31.4101 31.9522 31.4844C31.9597 31.5739 31.9249 31.614 31.8316 31.6118L31.8301 31.6102ZM31.6323 30.6573C30.8863 30.6573 30.1396 30.6551 29.3937 30.6596C29.2618 30.6604 29.2042 30.6369 29.2095 30.4883C29.2216 30.1487 29.214 30.1487 29.5589 30.1487C29.7977 30.1487 30.0358 30.1441 30.2746 30.1502C30.3822 30.1532 30.4156 30.1146 30.4118 30.0107C30.4042 29.8363 30.4042 29.6605 30.4118 29.4861C30.4171 29.3694 30.3807 29.3307 30.2579 29.3292C29.6643 29.3239 29.0707 29.3103 28.4772 29.2981C28.2892 29.2943 28.1019 29.2814 27.9139 29.2807C27.8169 29.2807 27.7737 29.2504 27.782 29.1503C27.7858 29.1116 27.8101 29.0487 27.7449 29.0381C27.6827 29.0283 27.6562 29.0859 27.6448 29.1329C27.6069 29.2981 27.5713 29.4641 27.544 29.6317C27.5296 29.7181 27.5046 29.7545 27.406 29.7302C27.334 29.7128 27.2468 29.7014 27.1809 29.7257C27.0164 29.7856 26.9929 29.6885 26.9694 29.5718C26.9406 29.4262 26.9216 29.2777 26.8541 29.1063C26.7897 29.3072 26.7321 29.477 26.6805 29.6484C26.6532 29.7401 26.6153 29.7886 26.51 29.7408C26.4288 29.7037 26.3379 29.7075 26.256 29.734C26.1582 29.7659 26.1272 29.7226 26.109 29.6415C26.0718 29.477 26.0331 29.3133 25.9861 29.1147C25.8937 29.3095 25.8527 29.4816 25.8035 29.6506C25.7769 29.7401 25.7382 29.7765 25.6397 29.7386C25.5586 29.7075 25.4676 29.706 25.3858 29.7386C25.2834 29.7795 25.25 29.7317 25.2258 29.6453C25.1811 29.4839 25.1303 29.3239 25.0825 29.1632C25.0712 29.1655 25.059 29.1677 25.0477 29.1693C25.0105 29.3247 24.9718 29.4793 24.9362 29.6347C24.918 29.7135 24.8885 29.7583 24.7907 29.7317C24.7035 29.7075 24.6087 29.706 24.5208 29.7408C24.4275 29.778 24.3934 29.734 24.3714 29.6529C24.3313 29.5089 24.2858 29.3656 24.2388 29.2231C24.2183 29.1609 24.1903 29.0874 24.1092 29.1003C24.0265 29.1132 24.0675 29.1912 24.0682 29.2375C24.0697 29.3671 23.9674 29.3482 23.8961 29.3542C23.583 29.3815 23.2692 29.3997 22.9561 29.4225C22.5976 29.4482 22.239 29.4801 21.8797 29.5013C21.7698 29.5081 21.7432 29.5566 21.7508 29.6537C21.7652 29.8379 21.7781 30.0221 21.7804 30.2071C21.7819 30.3079 21.8221 30.3374 21.9183 30.3299C22.2974 30.3011 22.6779 30.2859 23.0562 30.248C23.4603 30.2078 23.4565 30.1995 23.5065 30.5868C23.5194 30.6907 23.4906 30.7347 23.3829 30.7415C22.9478 30.7688 22.5126 30.7999 22.0783 30.8302C21.3854 30.8779 20.6925 30.925 19.9996 30.975C19.9094 30.9818 19.873 30.9545 19.8655 30.8628C19.8329 30.4678 19.8298 30.4633 20.2286 30.4246C20.5212 30.3966 20.8153 30.3769 21.1079 30.364C21.2148 30.3587 21.2482 30.3208 21.2421 30.2192C21.227 29.9751 21.2171 29.7302 21.2103 29.4861C21.208 29.4118 21.2179 29.336 21.2308 29.2625C21.2588 29.101 21.3536 29.0123 21.515 29.0002C22.2079 28.9487 22.9008 28.8979 23.5929 28.8493C23.8181 28.8334 23.8226 28.8342 23.8597 28.6113C23.8764 28.5128 23.8999 28.415 23.9136 28.3164C23.9272 28.2164 23.9742 28.1701 24.0773 28.202C24.1645 28.2292 24.2524 28.2194 24.332 28.1883C24.4472 28.1436 24.4882 28.1921 24.514 28.2922C24.5382 28.3862 24.5716 28.4786 24.6322 28.5719C24.6671 28.4294 24.7065 28.2884 24.7338 28.1451C24.7512 28.0556 24.7975 28.0253 24.8824 28.0435C24.9832 28.0655 25.0855 28.0678 25.1833 28.0367C25.2811 28.0064 25.3114 28.0572 25.3342 28.1315C25.391 28.3232 25.4479 28.5143 25.5177 28.7508C25.5897 28.5241 25.6541 28.3384 25.7057 28.1504C25.7337 28.0488 25.7739 28.0033 25.8868 28.0412C25.9679 28.0685 26.0551 28.0807 26.1415 28.0496C26.256 28.0086 26.2962 28.0701 26.3167 28.1686C26.3477 28.3142 26.3834 28.4582 26.4235 28.6356C26.5138 28.4642 26.5479 28.3088 26.5911 28.158C26.6237 28.0428 26.679 27.9973 26.7988 28.0443C26.8397 28.0602 26.892 28.0731 26.9322 28.0625C27.1134 28.0132 27.2392 28.0382 27.2294 28.2884C27.2794 28.1982 27.337 28.1883 27.403 28.1951C27.5046 28.2057 27.6077 28.2126 27.7054 28.1822C27.8017 28.1519 27.8343 28.1989 27.8555 28.277C27.8851 28.3831 27.9276 28.4862 27.948 28.5939C27.9731 28.725 28.0519 28.7637 28.1739 28.7622C28.3415 28.7591 28.509 28.7606 28.6765 28.7644C29.3914 28.7819 30.107 28.8031 30.8219 28.8183C30.9257 28.8205 30.9621 28.8516 30.9599 28.9593C30.9515 29.2989 30.9591 29.6393 30.9508 29.9789C30.9477 30.0941 30.9902 30.1259 31.1001 30.1237C31.3594 30.1184 31.6179 30.1252 31.8764 30.1206C31.9825 30.1191 32.0166 30.157 32.0181 30.2609C32.0257 30.6596 32.0287 30.6596 31.63 30.6596L31.6323 30.6573Z" stroke="#469C57" stroke-width="0.100109" stroke-miterlimit="10"/>
<path d="M31.9454 31.2593C31.9719 31.1228 31.9105 31.0955 31.7892 31.097C31.373 31.1016 30.9568 31.0985 30.5407 31.0985V31.0773C30.1904 31.0773 29.841 31.0743 29.4907 31.0781C29.0753 31.0826 29.139 31 29.1284 31.4488C29.1261 31.5526 29.161 31.5905 29.2671 31.5882C29.5567 31.5829 29.8463 31.592 30.1351 31.5837C30.2571 31.5807 30.2966 31.6186 30.2867 31.7376C30.2579 32.0863 30.201 32.4312 30.1495 32.7769C30.1358 32.8724 30.0904 32.9179 29.9918 32.9171C29.9312 32.9171 29.8705 32.927 29.8099 32.93C29.233 32.9641 28.6553 32.993 28.0792 33.0324C27.2286 33.09 26.3773 33.1476 25.5252 33.1097C24.4465 33.0619 23.3685 32.9914 22.2898 32.9353C22.1753 32.9293 22.1435 32.8717 22.1276 32.7792C22.073 32.4646 22.0146 32.15 21.96 31.8354C21.9274 31.6451 21.9289 31.6451 22.1139 31.6224C22.4657 31.5791 22.4611 31.5799 22.4308 31.2198C22.4225 31.1198 22.3876 31.091 22.2898 31.1001C21.957 31.1311 21.6235 31.1569 21.2899 31.185C20.9601 31.213 20.9685 31.2122 20.9988 31.5306C21.0132 31.6822 21.0716 31.7315 21.2171 31.6997C21.4135 31.6572 21.415 31.6694 21.4468 31.8831C21.509 32.3031 21.5818 32.7216 21.6886 33.1325C21.7379 33.3212 21.8206 33.3993 21.9972 33.4122C22.4619 33.4463 22.9273 33.4766 23.3928 33.5062C23.8385 33.5342 24.2835 33.5638 24.7285 33.5843C25.2448 33.6085 25.7633 33.6517 26.2788 33.6366C27.1506 33.6115 28.0208 33.5486 28.8911 33.4978C29.3467 33.4713 29.8015 33.4402 30.2564 33.4061C30.4406 33.3925 30.6013 33.2651 30.6195 33.115C30.6741 32.6594 30.7802 32.2099 30.7961 31.7497C30.8007 31.6118 30.8697 31.5867 30.9925 31.5913C31.2707 31.6027 31.5504 31.6019 31.8286 31.6087C31.9219 31.611 31.9575 31.5708 31.9491 31.4814C31.9423 31.4071 31.9294 31.3298 31.9438 31.2577L31.9454 31.2593Z" stroke="#469C57" stroke-width="0.100109" stroke-miterlimit="10"/>
<path d="M32.6966 22.0093C32.8497 22.2162 33.0385 22.3792 33.3023 22.4338C33.7117 22.5194 34.0392 22.3489 34.3249 22.0911C35.2278 21.2762 35.5674 19.7836 35.1126 18.6351C34.8511 17.9756 34.4493 17.4214 33.8094 17.0666C33.2227 16.7414 32.7307 16.9021 32.4464 17.4995C32.41 17.5761 32.3782 17.6557 32.3517 17.736C32.147 18.347 32.125 18.9808 32.1114 19.6153C32.1023 19.9359 32.1258 20.2551 32.1751 20.5712C32.2539 21.0837 32.3805 21.581 32.6974 22.0085L32.6966 22.0093Z" stroke="#469C57" stroke-width="0.100109" stroke-miterlimit="10"/>
<path d="M31.8786 30.1184C31.6201 30.1237 31.3609 30.1161 31.1024 30.1214C30.9925 30.1237 30.95 30.0918 30.953 29.9766C30.9606 29.637 30.9531 29.2966 30.9622 28.957C30.9644 28.8493 30.928 28.819 30.8242 28.816C30.1086 28.8008 29.3937 28.7796 28.6788 28.7622C28.5113 28.7584 28.3438 28.7569 28.1762 28.7599C28.0534 28.7614 27.9746 28.7227 27.9503 28.5916C27.9298 28.484 27.8882 28.3809 27.8578 28.2747C27.8358 28.1966 27.804 28.1504 27.7077 28.18C27.6099 28.2103 27.5068 28.2035 27.4053 28.1929C27.3386 28.186 27.2817 28.1959 27.2317 28.2861C27.2415 28.0352 27.1157 28.0109 26.9345 28.0602C26.8943 28.0708 26.842 28.0579 26.8011 28.042C26.6805 27.995 26.626 28.0397 26.5934 28.1557C26.5509 28.3066 26.5161 28.462 26.4258 28.6333C26.3849 28.4559 26.3493 28.3119 26.319 28.1663C26.2985 28.0685 26.2575 28.0064 26.1438 28.0473C26.0574 28.0784 25.9702 28.0663 25.8891 28.039C25.7762 28.0018 25.736 28.0466 25.7079 28.1481C25.6556 28.3369 25.592 28.5219 25.5199 28.7485C25.4502 28.512 25.3926 28.321 25.3365 28.1292C25.3145 28.0541 25.2834 28.0041 25.1856 28.0344C25.0886 28.0648 24.9863 28.0625 24.8847 28.0412C24.799 28.023 24.7535 28.0534 24.7361 28.1428C24.708 28.2861 24.6694 28.4279 24.6345 28.5696C24.5739 28.4764 24.5405 28.3839 24.5163 28.2899C24.4905 28.1906 24.4495 28.1413 24.3343 28.186C24.2555 28.2164 24.1668 28.227 24.0796 28.1997C23.9758 28.1678 23.9295 28.2141 23.9159 28.3141C23.9022 28.4127 23.8787 28.5105 23.862 28.609C23.8241 28.8319 23.8203 28.8312 23.5952 28.8471C22.9023 28.8948 22.2094 28.9456 21.5173 28.9979C21.3559 29.0101 21.2611 29.0988 21.233 29.2602C21.2202 29.3338 21.2103 29.4096 21.2126 29.4839C21.2194 29.7287 21.2285 29.9728 21.2444 30.2169C21.2505 30.3193 21.2179 30.3564 21.1102 30.3617C20.8169 30.3753 20.5235 30.3943 20.2309 30.4224C19.8321 30.461 19.8352 30.4648 19.8678 30.8605C19.8753 30.953 19.9117 30.9795 20.0019 30.9727C20.6948 30.9227 21.3877 30.8757 22.0806 30.8279C22.5157 30.7976 22.9508 30.7665 23.3852 30.7392C23.4929 30.7324 23.5217 30.6884 23.5088 30.5846C23.4587 30.1972 23.4625 30.2055 23.0585 30.2457C22.6802 30.2829 22.2997 30.2988 21.9206 30.3276C21.8243 30.3352 21.7842 30.3056 21.7826 30.2048C21.7804 30.0198 21.7675 29.8356 21.7531 29.6514C21.7455 29.5543 21.772 29.5051 21.882 29.499C22.2413 29.4778 22.5998 29.4467 22.9584 29.4202C23.2723 29.3974 23.5861 29.3792 23.8984 29.3519C23.9697 29.3459 24.072 29.3648 24.0705 29.2352C24.0705 29.1882 24.0288 29.1109 24.1114 29.098C24.1926 29.0851 24.2206 29.1586 24.2411 29.2208C24.2873 29.3633 24.3328 29.5066 24.3737 29.6506C24.3965 29.7317 24.4298 29.7765 24.5231 29.7386C24.6103 29.7037 24.705 29.7052 24.7929 29.7295C24.8915 29.7568 24.9203 29.712 24.9385 29.6324C24.9741 29.477 25.0128 29.3224 25.0499 29.167C25.0613 29.1647 25.0734 29.1624 25.0848 29.1609C25.1333 29.3216 25.1834 29.4816 25.2281 29.6431C25.2523 29.7295 25.2857 29.7772 25.388 29.7363C25.4699 29.7029 25.5601 29.7045 25.642 29.7363C25.7398 29.7742 25.7792 29.7386 25.8057 29.6484C25.855 29.4801 25.8959 29.3072 25.9884 29.1124C26.0347 29.311 26.0741 29.4755 26.1112 29.6393C26.1294 29.7204 26.1605 29.7636 26.2583 29.7317C26.3402 29.7052 26.4311 29.7014 26.5123 29.7386C26.6176 29.7863 26.6555 29.7386 26.6828 29.6461C26.7344 29.4748 26.792 29.3049 26.8564 29.1041C26.9239 29.2754 26.9428 29.424 26.9716 29.5695C26.9951 29.6863 27.0179 29.7833 27.1832 29.7234C27.2499 29.6999 27.337 29.7105 27.4083 29.7279C27.5068 29.7522 27.5326 29.7158 27.5463 29.6294C27.5743 29.4619 27.6092 29.2959 27.6471 29.1306C27.6577 29.0828 27.685 29.026 27.7472 29.0358C27.8123 29.0457 27.7881 29.1094 27.7843 29.148C27.7752 29.2489 27.8184 29.2784 27.9162 29.2784C28.1042 29.2784 28.2915 29.2913 28.4795 29.2959C29.073 29.308 29.6666 29.3216 30.2602 29.3269C30.3822 29.3285 30.4194 29.3671 30.414 29.4839C30.4057 29.6582 30.4065 29.8341 30.414 30.0084C30.4186 30.1123 30.3845 30.1502 30.2768 30.1479C30.0381 30.1419 29.8 30.1464 29.5612 30.1464C29.2163 30.1464 29.2246 30.1464 29.2118 30.486C29.2064 30.6346 29.2641 30.6589 29.396 30.6573C30.1419 30.6528 30.8886 30.6551 31.6346 30.6551C32.0333 30.6551 32.0303 30.6551 32.0227 30.2563C32.0212 30.1525 31.9871 30.1146 31.8809 30.1161L31.8786 30.1184Z" stroke="#469C57" stroke-width="0.100109" stroke-miterlimit="10"/>
<path d="M17.9673 22.2776C18.1818 22.4823 18.4305 22.6385 18.7367 22.6703C19.1908 22.7173 19.4864 22.474 19.7101 22.126C19.9845 21.7 20.0974 21.2186 20.1679 20.7258C20.2604 20.083 20.2309 19.4394 20.1634 18.7981C20.1247 18.4296 20.0512 18.0665 19.892 17.7277C19.748 17.4191 19.5433 17.1712 19.1711 17.1318C18.9133 17.1053 18.6761 17.1857 18.4653 17.3221C17.5124 17.9369 17.0735 18.8314 17.0159 19.9291C17.0212 20.1133 17.0303 20.2922 17.0614 20.4704C17.1827 21.161 17.4472 21.7841 17.9673 22.2784V22.2776Z" stroke="#469C57" stroke-width="0.100109" stroke-miterlimit="10"/>
<path d="M25.9983 1.47156C12.4523 1.47156 1.47162 12.4522 1.47162 25.9982C1.47162 39.5442 12.4523 50.5249 25.9983 50.5249C39.5443 50.5249 50.5249 39.5442 50.5249 25.9982C50.5249 12.4522 39.5443 1.47156 25.9983 1.47156ZM35.0572 14.5627C35.1452 14.4968 35.2157 14.4081 35.296 14.3315C35.3203 14.308 35.3415 14.2754 35.3953 14.2784C35.4416 14.308 35.4992 14.3406 35.5515 14.3793C35.8214 14.5748 36.0715 14.7955 36.3164 15.0191C36.8668 15.5224 37.4126 16.0311 37.9038 16.5921C38.0362 16.7437 38.0327 16.8885 37.8932 17.0265C37.6385 17.2781 37.6339 17.2827 37.3557 17.0553C36.5271 16.3768 35.7501 15.646 35.0444 14.8432C34.9519 14.7378 34.9299 14.6582 35.058 14.5627H35.0572ZM14.5931 16.5451C15.314 15.7438 16.0941 15.0016 16.9393 14.327C17.1281 14.1761 17.1334 14.1814 17.3062 14.3535C17.3707 14.4172 17.4351 14.4809 17.4995 14.5445C17.5246 14.5695 17.5526 14.5923 17.5518 14.6408C17.5359 14.7037 17.4851 14.7545 17.4404 14.8076C17.1137 15.1972 16.7521 15.555 16.3814 15.9037C15.9493 16.3108 15.5202 16.7225 15.0411 17.078C14.8599 17.2122 14.8577 17.2091 14.7007 17.0424C14.6734 17.0128 14.6446 16.9847 14.6158 16.9567C14.4157 16.7573 14.4081 16.7513 14.5931 16.5458V16.5451ZM15.1215 17.5851C15.1601 17.5245 15.2086 17.4813 15.2715 17.4426C15.4967 17.3047 15.6908 17.128 15.8864 16.9537C16.5224 16.3859 17.1387 15.7991 17.6981 15.157C17.7732 15.0706 17.8581 14.9895 17.8869 14.8712C17.899 14.822 17.9491 14.8076 17.9862 14.7841C19.1203 14.045 20.3461 13.506 21.6469 13.1231C23.4254 12.6008 25.244 12.4136 27.0907 12.5061C29.4377 12.6236 31.6641 13.1845 33.7223 14.3285C34.0316 14.5006 34.3302 14.6901 34.6221 14.8894C34.6721 14.9235 34.7176 14.9471 34.6979 15.0274C34.6843 15.085 34.7449 15.1343 34.7836 15.179C35.2574 15.7362 35.7895 16.2365 36.327 16.7316C36.5938 16.9779 36.8675 17.216 37.1541 17.4388C37.195 17.4707 37.2276 17.5071 37.2541 17.5495C37.8561 18.513 38.2123 19.5523 38.2275 20.691C38.2502 22.3337 37.4982 23.5163 36.0261 24.2691C35.1664 24.7087 34.2423 24.9513 33.2978 25.1249C32.4351 25.2834 31.564 25.3728 30.6885 25.4373C29.1738 25.5487 27.6577 25.5608 26.14 25.5449C25.3638 25.5449 24.5868 25.5601 23.8105 25.5419C22.3611 25.507 20.9124 25.4365 19.4766 25.2167C18.3865 25.0491 17.3153 24.8119 16.3207 24.3168C15.5763 23.9461 14.9494 23.4466 14.5431 22.7112C14.2664 22.2102 14.136 21.6681 14.1094 21.1034C14.0488 19.8207 14.4346 18.6601 15.1192 17.5844L15.1215 17.5851ZM10.7716 36.3217C10.7368 36.446 10.7004 36.5271 10.617 36.5824C10.5533 36.6249 10.4843 36.6332 10.432 36.6347C9.21835 36.6696 8.66116 36.211 8.66116 36.211C8.66116 36.211 8.10778 35.7546 7.96678 34.9875C7.94782 34.8821 7.96526 34.7866 7.96829 34.776C7.99179 34.6751 8.04788 34.5849 8.13051 34.503C8.17751 34.4568 8.20935 34.4583 8.24422 34.5205C8.77336 35.4825 9.66106 35.9335 10.6905 36.1799C10.786 36.2026 10.7997 36.2223 10.7716 36.3224V36.3217ZM13.3082 29.687C13.3453 30.0926 13.4029 30.4944 13.4893 30.8916C13.4893 30.8916 13.4893 30.975 13.4871 31.0644C13.4378 32.5275 12.3477 34.9117 12.0914 35.3498C12.03 35.4544 11.9656 35.5302 11.9489 35.5553C11.8549 35.6947 11.7442 35.7918 11.6214 35.8532C11.4562 35.9358 11.2568 35.9684 10.9354 35.904C10.5874 35.8342 9.03793 35.5234 8.49515 34.2286C8.39888 33.9997 8.36476 33.814 8.35869 33.7745C8.19343 32.667 11.3038 29.5453 13.4901 26.3674C13.5492 26.2818 13.5962 26.212 13.6235 26.1718C13.5333 26.5751 13.4431 26.9792 13.3817 27.3893C13.2672 28.1519 13.2392 28.9168 13.3089 29.6855L13.3082 29.687ZM24.52 38.5239C23.9682 39.0083 23.3306 39.3312 22.5938 39.4464C22.4437 39.4699 22.2921 39.4828 22.1086 39.4745C21.3528 39.4919 20.6645 39.2107 20.0194 38.796C19.8154 38.6649 19.61 38.5368 19.4235 38.3821C19.1028 38.1153 19.0869 37.875 19.3864 37.5876C19.8063 37.1859 20.3302 36.9736 20.8889 36.8455C22.0169 36.5862 23.0706 36.7758 24.05 37.3822C24.2585 37.5111 24.4397 37.6688 24.5799 37.8696C24.7528 38.1175 24.7475 38.3245 24.52 38.5246V38.5239ZM32.6746 38.3184C32.1819 38.8415 31.5974 39.2258 30.8901 39.4108C30.6096 39.4843 30.3238 39.5222 30.0373 39.5116C29.4445 39.5253 28.9017 39.3593 28.3817 39.1068C28.1179 38.9787 27.8525 38.8536 27.6077 38.6906C27.2264 38.4367 27.1915 38.1698 27.5076 37.8378C27.8957 37.43 28.3786 37.1684 28.91 36.9963C30.0661 36.6211 31.1789 36.7303 32.241 37.3185C32.4343 37.4254 32.6011 37.5634 32.7231 37.7453C32.8611 37.9508 32.8512 38.1319 32.6754 38.3184H32.6746ZM36.0435 35.6197C35.5833 36.2633 35.0519 36.847 34.475 37.3913C34.3333 37.5247 34.1779 37.6278 33.9853 37.6779C33.7647 37.7347 33.5464 37.8007 33.3288 37.8681C33.2364 37.8969 33.1969 37.8795 33.1689 37.7794C33.0847 37.4785 32.8619 37.2761 32.617 37.1025C32.1083 36.7424 31.5292 36.5468 30.9167 36.4536C29.6833 36.2648 28.5606 36.5445 27.5561 37.273C27.3302 37.4368 27.1331 37.6324 27.005 37.8848C26.9595 37.975 26.9027 38.072 26.911 38.1668C26.9277 38.3631 26.8306 38.3768 26.6707 38.373C26.1833 38.3616 25.6966 38.3624 25.2091 38.3647C25.1053 38.3647 25.0651 38.3427 25.0757 38.2312C25.1053 37.9227 24.9559 37.6778 24.7528 37.4663C24.2903 36.9819 23.7021 36.7045 23.0645 36.5271C21.841 36.1875 20.6652 36.2989 19.5592 36.9395C19.3401 37.0661 19.1377 37.2192 18.977 37.4171C18.927 37.4792 18.8807 37.5467 18.8459 37.618C18.742 37.831 18.7451 37.8317 18.507 37.765C18.4532 37.7499 18.4001 37.7302 18.3455 37.7218C17.7436 37.6248 17.3691 37.2018 16.9878 36.7932C16.0251 35.7607 15.2564 34.6039 14.7068 33.3083C14.2626 32.2607 13.948 31.1774 13.86 30.0426C13.7827 29.0555 13.7744 28.0647 13.8941 27.0792C13.9934 26.2636 14.2315 25.4782 14.4619 24.6913C14.5377 24.4321 14.6249 24.1758 14.7341 23.9287C14.7932 23.7953 14.8539 23.7794 14.9441 23.884C15.6483 24.7034 16.5883 25.1318 17.6004 25.4395C18.4312 25.692 19.284 25.8368 20.1452 25.9399C21.2543 26.0725 22.3679 26.1279 23.483 26.162C24.8627 26.2037 26.2431 26.2211 27.6236 26.2021C28.5826 26.1885 29.5408 26.1567 30.4974 26.09C31.8794 25.9937 33.253 25.8451 34.5903 25.4638C35.4348 25.2227 36.233 24.8861 36.916 24.3244C37.0093 24.2479 37.0957 24.1629 37.1814 24.0773C37.2731 23.9848 37.333 24.0045 37.386 24.1159C37.5248 24.407 37.6028 24.7171 37.6938 25.0241C37.925 25.8064 38.1229 26.5956 38.2139 27.4075C38.2631 27.8502 38.2654 28.2952 38.2677 28.7409C38.2874 31.2721 37.5164 33.557 36.0435 35.6197ZM43.8645 34.5015C43.9472 34.5834 44.004 34.6736 44.0267 34.7744C44.029 34.7858 44.0472 34.8806 44.0283 34.9859C43.888 35.7531 43.3339 36.2095 43.3339 36.2095C43.3339 36.2095 42.7767 36.6689 41.563 36.6332C41.5107 36.6317 41.4417 36.6234 41.3781 36.5809C41.2947 36.5256 41.259 36.4445 41.2234 36.3202C41.1954 36.2201 41.209 36.2004 41.3045 36.1776C42.334 35.9313 43.2217 35.481 43.7508 34.5182C43.7849 34.4553 43.8175 34.4545 43.8645 34.5008V34.5015ZM43.6363 33.7753C43.6303 33.8155 43.5954 34.0012 43.4999 34.2294C42.9564 35.5242 41.4069 35.835 41.0597 35.9047C40.739 35.9692 40.5396 35.9373 40.3736 35.8539C40.2508 35.7925 40.1401 35.6955 40.0461 35.556C40.0294 35.531 39.965 35.4552 39.9036 35.3506C39.6474 34.9117 38.5573 32.5283 38.508 31.0652C38.505 30.975 38.5057 30.8923 38.5057 30.8923C38.5921 30.4944 38.6505 30.0926 38.6869 29.6878C38.7566 28.9191 38.7294 28.1542 38.6141 27.3916C38.5527 26.9815 38.4625 26.5774 38.3723 26.1741C38.3988 26.2135 38.4466 26.2833 38.5057 26.3697C40.692 29.5475 43.8024 32.6685 43.6371 33.7768L43.6363 33.7753Z" stroke="#469C57" stroke-width="0.100109" stroke-miterlimit="10"/>
<path d="M55.4303 35.0669V17.8841H62.5301C62.6972 17.8841 62.9119 17.8921 63.1744 17.908C63.437 17.916 63.6796 17.9398 63.9023 17.9796C64.8967 18.1308 65.7161 18.4609 66.3604 18.97C67.0127 19.4791 67.494 20.1235 67.8043 20.9031C68.1225 21.6747 68.2815 22.5338 68.2815 23.4805C68.2815 24.8806 67.9276 26.0857 67.2196 27.096C66.5116 28.0983 65.4257 28.7188 63.962 28.9575L62.733 29.0649H58.306V35.0669H55.4303ZM65.2984 35.0669L61.9096 28.0745L64.8331 27.4301L68.556 35.0669H65.2984ZM58.306 26.3801H62.4108C62.5699 26.3801 62.7489 26.3721 62.9477 26.3562C63.1466 26.3403 63.3296 26.3085 63.4966 26.2607C63.9739 26.1414 64.3478 25.9306 64.6183 25.6283C64.8967 25.326 65.0916 24.984 65.203 24.6021C65.3223 24.2203 65.382 23.8464 65.382 23.4805C65.382 23.1145 65.3223 22.7407 65.203 22.3588C65.0916 21.969 64.8967 21.623 64.6183 21.3207C64.3478 21.0184 63.9739 20.8076 63.4966 20.6883C63.3296 20.6405 63.1466 20.6127 62.9477 20.6048C62.7489 20.5888 62.5699 20.5809 62.4108 20.5809H58.306V26.3801Z" stroke="#469C57" stroke-width="0.100109" stroke-miterlimit="10"/>
<path d="M76.8767 35.4249C75.588 35.4249 74.4623 35.1345 73.4998 34.5538C72.5372 33.9731 71.7894 33.1736 71.2565 32.1554C70.7314 31.1292 70.4689 29.9519 70.4689 28.6234C70.4689 27.271 70.7394 26.0857 71.2803 25.0675C71.8213 24.0493 72.573 23.2538 73.5356 22.681C74.4981 22.1082 75.6118 21.8219 76.8767 21.8219C78.1733 21.8219 79.3029 22.1122 80.2655 22.6929C81.228 23.2736 81.9758 24.0771 82.5088 25.1033C83.0418 26.1215 83.3083 27.2949 83.3083 28.6234C83.3083 29.9598 83.0378 31.1411 82.4968 32.1673C81.9639 33.1856 81.2161 33.985 80.2535 34.5657C79.291 35.1385 78.1654 35.4249 76.8767 35.4249ZM76.8767 32.7281C78.0222 32.7281 78.8734 32.3463 79.4302 31.5826C79.9871 30.8189 80.2655 29.8325 80.2655 28.6234C80.2655 27.3744 79.9831 26.3801 79.4183 25.6403C78.8535 24.8925 78.0063 24.5186 76.8767 24.5186C76.105 24.5186 75.4686 24.6936 74.9675 25.0436C74.4743 25.3857 74.1083 25.867 73.8697 26.4875C73.631 27.1 73.5117 27.812 73.5117 28.6234C73.5117 29.8723 73.7941 30.8707 74.3589 31.6184C74.9317 32.3582 75.7709 32.7281 76.8767 32.7281Z" stroke="#469C57" stroke-width="0.100109" stroke-miterlimit="10"/>
<path d="M92.1303 35.4249C90.8734 35.4249 89.8193 35.1266 88.9682 34.5299C88.117 33.9333 87.4766 33.1219 87.047 32.0957C86.6175 31.0616 86.4027 29.9041 86.4027 28.6234C86.4027 27.3267 86.6175 26.1653 87.047 25.1391C87.4766 24.1129 88.105 23.3055 88.9324 22.7168C89.7676 22.1202 90.7978 21.8219 92.0229 21.8219C93.24 21.8219 94.294 22.1202 95.185 22.7168C96.0839 23.3055 96.78 24.1129 97.2732 25.1391C97.7664 26.1573 98.013 27.3188 98.013 28.6234C98.013 29.9121 97.7704 31.0695 97.2851 32.0957C96.7998 33.1219 96.1157 33.9333 95.2327 34.5299C94.3497 35.1266 93.3156 35.4249 92.1303 35.4249ZM85.9135 35.0669V17.8841H88.813V26.0221H88.4551V35.0669H85.9135ZM91.6888 32.8475C92.4365 32.8475 93.053 32.6605 93.5383 32.2866C94.0236 31.9128 94.3815 31.4076 94.6122 30.7712C94.8509 30.1269 94.9702 29.4109 94.9702 28.6234C94.9702 27.8438 94.8509 27.1358 94.6122 26.4994C94.3736 25.855 94.0037 25.3459 93.5025 24.972C93.0013 24.5902 92.3649 24.3993 91.5933 24.3993C90.8615 24.3993 90.2648 24.5783 89.8034 24.9362C89.342 25.2863 89 25.7795 88.7772 26.4159C88.5625 27.0443 88.4551 27.7801 88.4551 28.6234C88.4551 29.4586 88.5625 30.1945 88.7772 30.8309C89 31.4673 89.346 31.9645 89.8154 32.3224C90.2927 32.6725 90.9171 32.8475 91.6888 32.8475Z" stroke="#469C57" stroke-width="0.100109" stroke-miterlimit="10"/>
<path d="M101.848 20.3303L105.118 16.5716H107.528L110.786 20.3303H108.101L106.323 18.2063L104.533 20.3303H101.848ZM106.335 35.4249C105.046 35.4249 103.921 35.1345 102.958 34.5538C101.995 33.9731 101.248 33.1736 100.715 32.1554C100.19 31.1292 99.9272 29.9519 99.9272 28.6234C99.9272 27.271 100.198 26.0857 100.739 25.0675C101.28 24.0493 102.031 23.2538 102.994 22.681C103.956 22.1082 105.07 21.8219 106.335 21.8219C107.632 21.8219 108.761 22.1122 109.724 22.6929C110.686 23.2736 111.434 24.0771 111.967 25.1033C112.5 26.1215 112.767 27.2949 112.767 28.6234C112.767 29.9598 112.496 31.1411 111.955 32.1673C111.422 33.1856 110.674 33.985 109.712 34.5657C108.749 35.1385 107.624 35.4249 106.335 35.4249ZM106.335 32.7281C107.48 32.7281 108.332 32.3463 108.888 31.5826C109.445 30.8189 109.724 29.8325 109.724 28.6234C109.724 27.3744 109.441 26.3801 108.877 25.6403C108.312 24.8925 107.465 24.5186 106.335 24.5186C105.563 24.5186 104.927 24.6936 104.426 25.0436C103.933 25.3857 103.567 25.867 103.328 26.4875C103.089 27.1 102.97 27.812 102.97 28.6234C102.97 29.8723 103.252 30.8707 103.817 31.6184C104.39 32.3582 105.229 32.7281 106.335 32.7281Z" stroke="#469C57" stroke-width="0.100109" stroke-miterlimit="10"/>
<path d="M122.662 35.4249C120.944 35.4249 119.473 35.051 118.247 34.3032C117.022 33.5475 116.08 32.4974 115.419 31.1531C114.767 29.8087 114.441 28.2495 114.441 26.4755C114.441 24.7016 114.767 23.1424 115.419 21.798C116.08 20.4536 117.022 19.4075 118.247 18.6598C119.473 17.904 120.944 17.5262 122.662 17.5262C124.643 17.5262 126.294 18.0234 127.614 19.0177C128.935 20.0042 129.862 21.3366 130.395 23.0151L127.495 23.8146C127.161 22.6929 126.592 21.8179 125.789 21.1894C124.985 20.553 123.943 20.2348 122.662 20.2348C121.509 20.2348 120.546 20.4934 119.775 21.0105C119.011 21.5275 118.434 22.2554 118.045 23.1941C117.663 24.1248 117.468 25.2186 117.46 26.4755C117.46 27.7324 117.651 28.8302 118.033 29.7689C118.422 30.6996 119.003 31.4235 119.775 31.9406C120.546 32.4577 121.509 32.7162 122.662 32.7162C123.943 32.7162 124.985 32.398 125.789 31.7616C126.592 31.1252 127.161 30.2502 127.495 29.1365L130.395 29.9359C129.862 31.6144 128.935 32.9509 127.614 33.9453C126.294 34.9317 124.643 35.4249 122.662 35.4249Z" stroke="#469C57" stroke-width="0.100109" stroke-miterlimit="10"/>
<path d="M133.253 35.0669V17.8841H136.129V35.0669H133.253Z" stroke="#469C57" stroke-width="0.100109" stroke-miterlimit="10"/>
<path d="M148.617 35.0669V28.862C148.617 28.4563 148.589 28.0069 148.533 27.5137C148.478 27.0204 148.346 26.5471 148.14 26.0937C147.941 25.6323 147.638 25.2544 147.233 24.9601C146.835 24.6658 146.294 24.5186 145.61 24.5186C145.244 24.5186 144.882 24.5783 144.524 24.6976C144.166 24.8169 143.84 25.0237 143.546 25.3181C143.259 25.6045 143.029 26.0022 142.854 26.5113C142.678 27.0125 142.591 27.6568 142.591 28.4444L140.885 27.7165C140.885 26.6187 141.095 25.6243 141.517 24.7334C141.947 23.8424 142.575 23.1344 143.402 22.6094C144.23 22.0764 145.248 21.8099 146.457 21.8099C147.412 21.8099 148.199 21.969 148.82 22.2872C149.44 22.6054 149.933 23.0111 150.299 23.5043C150.665 23.9976 150.936 24.5226 151.111 25.0794C151.286 25.6363 151.397 26.1653 151.445 26.6664C151.501 27.1597 151.528 27.5614 151.528 27.8716V35.0669H148.617ZM139.679 35.0669V22.1798H142.245V26.1772H142.591V35.0669H139.679Z" stroke="#469C57" stroke-width="0.100109" stroke-miterlimit="10"/>
</svg>
