<svg width="225" height="48" viewBox="0 0 225 48" fill="none" xmlns="http://www.w3.org/2000/svg">
<path d="M22.7425 22.7453H0V0.00280762H22.7425V22.7453Z" fill="#F1511B"/>
<path d="M47.7264 22.7453H24.9843V0.0027771H47.7264V22.7453Z" fill="#80CC28"/>
<path d="M22.7418 47.7295H0V24.9873H22.7418V47.7295Z" fill="#00ADEF"/>
<path d="M47.7258 47.7297H24.9838V24.9874H47.7258V47.7297Z" fill="#FBBC09"/>
<path d="M224.285 22.3979V18.4553H219.389V12.326L219.224 12.3767L214.625 13.7837L214.535 13.8113V18.4555H207.276V15.8683C207.276 14.6636 207.546 13.7417 208.077 13.1268C208.604 12.5194 209.358 12.2106 210.32 12.2106C211.011 12.2106 211.727 12.3734 212.447 12.6946L212.628 12.7753V8.62315L212.543 8.59192C211.871 8.35033 210.957 8.22867 209.824 8.22867C208.396 8.22867 207.098 8.53944 205.966 9.15534C204.834 9.77212 203.943 10.6526 203.32 11.7721C202.698 12.8902 202.382 14.1817 202.382 15.6108V18.4553H198.973V22.3979H202.382V39.0076H207.276V22.3979H214.535V32.9531C214.535 37.3002 216.585 39.5032 220.629 39.5032C221.294 39.5032 221.993 39.4253 222.707 39.2728C223.434 39.1163 223.929 38.9599 224.221 38.7929L224.285 38.7548V34.7757L224.086 34.9073C223.82 35.0843 223.49 35.2289 223.102 35.3365C222.712 35.446 222.387 35.5009 222.135 35.5009C221.188 35.5009 220.487 35.2456 220.052 34.7418C219.612 34.2335 219.389 33.3446 219.389 32.101V22.3979H224.285ZM188.044 35.5015C186.267 35.5015 184.867 34.9125 183.88 33.7523C182.887 32.5862 182.384 30.9237 182.384 28.8114C182.384 26.6321 182.887 24.9264 183.88 23.7397C184.868 22.5608 186.255 21.9625 188.004 21.9625C189.701 21.9625 191.052 22.5339 192.019 23.6618C192.992 24.7956 193.485 26.4876 193.485 28.6923C193.485 30.9241 193.021 32.6384 192.106 33.7852C191.197 34.9233 189.831 35.5015 188.044 35.5015ZM188.261 17.9602C184.872 17.9602 182.181 18.9532 180.261 20.9117C178.343 22.8705 177.371 25.5811 177.371 28.969C177.371 32.1869 178.32 34.7752 180.193 36.6609C182.065 38.5472 184.613 39.5027 187.766 39.5027C191.051 39.5027 193.689 38.4958 195.608 36.5102C197.526 34.5267 198.498 31.8417 198.498 28.5329C198.498 25.2647 197.586 22.6571 195.786 20.784C193.986 18.9101 191.454 17.9602 188.261 17.9602ZM169.48 17.9602C167.175 17.9602 165.268 18.5498 163.811 19.7125C162.346 20.882 161.602 22.4159 161.602 24.2721C161.602 25.237 161.763 26.094 162.078 26.821C162.396 27.5503 162.888 28.1924 163.541 28.7313C164.189 29.2659 165.19 29.8259 166.516 30.3956C167.631 30.8543 168.462 31.2422 168.99 31.548C169.506 31.8477 169.872 32.149 170.079 32.4424C170.28 32.7295 170.382 33.1225 170.382 33.6074C170.382 34.9882 169.348 35.66 167.22 35.66C166.431 35.66 165.531 35.4952 164.545 35.1704C163.566 34.8504 162.642 34.3818 161.805 33.7811L161.602 33.6354V38.3473L161.676 38.382C162.369 38.7016 163.242 38.9712 164.271 39.1833C165.298 39.3956 166.231 39.5036 167.042 39.5036C169.543 39.5036 171.558 38.9111 173.028 37.7415C174.507 36.564 175.257 34.9938 175.257 33.0735C175.257 31.6881 174.853 30.5001 174.058 29.542C173.268 28.5917 171.897 27.7192 169.984 26.948C168.46 26.3365 167.484 25.8288 167.081 25.4391C166.693 25.0626 166.496 24.5302 166.496 23.8559C166.496 23.2583 166.739 22.7794 167.239 22.3916C167.742 22.0019 168.443 21.8037 169.322 21.8037C170.137 21.8037 170.971 21.9325 171.801 22.185C172.63 22.4374 173.358 22.7755 173.966 23.1891L174.166 23.3257V18.8561L174.089 18.8231C173.529 18.5826 172.789 18.3768 171.891 18.2098C170.997 18.0439 170.186 17.9602 169.48 17.9602ZM148.844 35.5015C147.068 35.5015 145.667 34.9125 144.68 33.7523C143.687 32.5862 143.185 30.9241 143.185 28.8114C143.185 26.6321 143.687 24.9264 144.681 23.7397C145.668 22.5608 147.055 21.9625 148.804 21.9625C150.501 21.9625 151.852 22.5339 152.82 23.6618C153.792 24.7956 154.286 26.4876 154.286 28.6923C154.286 30.9241 153.821 32.6384 152.906 33.7852C151.997 34.9233 150.631 35.5015 148.844 35.5015ZM149.062 17.9602C145.672 17.9602 142.98 18.9532 141.062 20.9117C139.144 22.8705 138.171 25.5811 138.171 28.969C138.171 32.1882 139.121 34.7752 140.993 36.6609C142.866 38.5472 145.413 39.5027 148.566 39.5027C151.851 39.5027 154.49 38.4958 156.408 36.5102C158.326 34.5267 159.298 31.8417 159.298 28.5329C159.298 25.2647 158.386 22.6571 156.586 20.784C154.785 18.9101 152.254 17.9602 149.062 17.9602ZM130.742 22.0145V18.4553H125.907V39.0072H130.742V28.4941C130.742 26.7064 131.147 25.2378 131.947 24.1285C132.736 23.0325 133.789 22.4771 135.073 22.4771C135.509 22.4771 135.998 22.5489 136.527 22.6909C137.051 22.8321 137.431 22.9854 137.654 23.1468L137.858 23.294V18.4202L137.779 18.3865C137.329 18.1953 136.692 18.0988 135.886 18.0988C134.671 18.0988 133.584 18.4891 132.653 19.2577C131.836 19.9332 131.245 20.8595 130.793 22.0145H130.742ZM117.25 17.9602C115.032 17.9602 113.054 18.4358 111.371 19.3733C109.685 20.313 108.381 21.6545 107.494 23.3604C106.61 25.0622 106.162 27.05 106.162 29.2668C106.162 31.2086 106.597 32.9906 107.456 34.5612C108.316 36.1343 109.533 37.3651 111.074 38.2187C112.612 39.0712 114.39 39.5034 116.359 39.5034C118.656 39.5034 120.618 39.0441 122.191 38.1382L122.254 38.1018V33.6727L122.051 33.821C121.339 34.34 120.542 34.7542 119.686 35.0526C118.831 35.3508 118.052 35.5015 117.369 35.5015C115.472 35.5015 113.949 34.908 112.844 33.7377C111.736 32.566 111.175 30.9206 111.175 28.8502C111.175 26.7667 111.76 25.0791 112.915 23.8338C114.066 22.5923 115.591 21.9625 117.449 21.9625C119.038 21.9625 120.586 22.5005 122.051 23.5632L122.254 23.7104V19.0436L122.189 19.0068C121.637 18.6982 120.886 18.4434 119.952 18.2501C119.023 18.0573 118.114 17.9602 117.25 17.9602ZM102.832 18.4555H97.9977V39.0072H102.832V18.4555ZM100.464 9.70033C99.6687 9.70033 98.9747 9.9712 98.4046 10.5079C97.8321 11.0462 97.5417 11.7239 97.5417 12.5237C97.5417 13.311 97.8286 13.9763 98.3957 14.5003C98.9591 15.0227 99.6553 15.2875 100.465 15.2875C101.274 15.2875 101.973 15.0227 102.543 14.5011C103.116 13.9763 103.408 13.3112 103.408 12.5237C103.408 11.7519 103.124 11.0811 102.566 10.5296C102.009 9.97922 101.301 9.70033 100.464 9.70033ZM88.4022 16.9392V39.0072H93.336V10.3295H86.5074L77.828 31.6304L69.405 10.3295H62.2985V39.007H66.9349V16.937H67.0941L75.9885 39.0072H79.4874L88.243 16.9392H88.4022Z" fill="#706D6E"/>
</svg>
