<svg width="180" height="42" viewBox="0 0 180 42" fill="none" xmlns="http://www.w3.org/2000/svg">
<path fill-rule="evenodd" clip-rule="evenodd" d="M56.2755 15.7559L31.0756 34.356V18.6005L56.2755 0V15.7559Z" fill="#0061AB"/>
<path fill-rule="evenodd" clip-rule="evenodd" d="M31.0756 18.6017L0 41.5386V29.1355L31.0756 6.19857V18.6017Z" fill="#FABA00"/>
<path fill-rule="evenodd" clip-rule="evenodd" d="M31.0756 34.356L21.0437 41.7603V26.0048L31.0756 18.6005V34.356Z" fill="#F6A600"/>
<path fill-rule="evenodd" clip-rule="evenodd" d="M56.2755 33.6582L45.2083 41.8272V23.9249L56.2755 15.7559V33.6582Z" fill="#272C6E"/>
<path fill-rule="evenodd" clip-rule="evenodd" d="M84.7235 22.1567L96.5359 10.2814V16.1448H96.5363V33.4862H91.967V21.3534L80.1546 33.2287L80.1542 21.2388L67.9712 33.4862H61.5263L84.7235 10.1668V22.1567Z" fill="#1D1D1B"/>
<path fill-rule="evenodd" clip-rule="evenodd" d="M139.853 10.0299H144.422V33.4938H135.468C130.33 33.4938 126.126 29.2903 126.126 24.1522V10.0303H130.695V24.1522C130.695 26.7682 132.852 28.9249 135.468 28.9249H139.853V10.0299Z" fill="#1D1D1B"/>
<path fill-rule="evenodd" clip-rule="evenodd" d="M166.792 9.94907H169.119C174.623 9.94907 179.126 14.4523 179.126 19.9559V33.3422H166.812C162.871 33.3422 159.647 30.1179 159.647 26.1767C159.647 22.2355 162.871 19.0113 166.812 19.0113H174.269C173.559 16.064 170.892 13.8576 167.735 13.8576H162.905L166.792 9.94907ZM174.455 29.1223V23.2307H167.345C165.724 23.2307 164.399 24.5562 164.399 26.1763C164.399 27.7964 165.725 29.1223 167.345 29.1223H174.455Z" fill="#1D1D1B"/>
<path fill-rule="evenodd" clip-rule="evenodd" d="M157.774 9.94907H163.157L159.269 13.8572H158.186C154.866 13.8572 152.15 16.5732 152.15 19.893V33.3422H147.479V20.244C147.479 14.5817 152.112 9.94907 157.774 9.94907Z" fill="#1D1D1B"/>
<path fill-rule="evenodd" clip-rule="evenodd" d="M111.329 9.2043C118.172 9.2043 123.72 14.752 123.72 21.5955C123.72 28.4389 118.172 33.9866 111.329 33.9866C104.485 33.9866 98.9374 28.4389 98.9374 21.5955C98.9374 14.752 104.485 9.2043 111.329 9.2043ZM111.329 13.8596C115.601 13.8596 119.064 17.3231 119.064 21.5951C119.064 25.8674 115.601 29.3305 111.329 29.3305C107.057 29.3305 103.593 25.867 103.593 21.5951C103.593 17.3231 107.056 13.8596 111.329 13.8596Z" fill="#1D1D1B"/>
</svg>
